<?xml version="1.0" encoding="UTF-8" standalone="no"?><!DOCTYPE svg PUBLIC "-//W3C//DTD SVG 1.1//EN" "http://www.w3.org/Graphics/SVG/1.1/DTD/svg11.dtd"><svg width="100%" height="100%" viewBox="0 0 1176 2023" version="1.1" xmlns="http://www.w3.org/2000/svg" xmlns:xlink="http://www.w3.org/1999/xlink" xml:space="preserve" xmlns:serif="http://www.serif.com/" style="fill-rule:evenodd;clip-rule:evenodd;stroke-linejoin:round;stroke-miterlimit:2;"><g id="Layer-1" serif:id="Layer 1"><path id="path1136" d="M473.528,2021.57c-0,-0.437 -1.016,-1.392 -2.244,-2.124c-1.866,-1.103 -2.173,-1.566 -1.796,-2.718c0.544,-1.616 0.52,-8.402 0,-12.012c-0.283,-1.883 0,-3.966 1.607,-8.437c1.795,-5.354 2.962,-8.5 7.797,-20.938c9.832,-25.289 31.394,-88.312 36.459,-106.563c0.33,-1.202 1.866,-6.546 3.418,-11.874c10.07,-34.716 20.234,-75.893 26.305,-106.563c1.488,-7.563 2.899,-14.594 3.116,-15.625c1.465,-6.958 4.148,-22.402 5.669,-32.5c0.473,-3.094 1.016,-6.328 1.229,-7.187c0.236,-0.86 0.803,-4.657 1.323,-8.438c0.519,-3.781 1.346,-9.828 1.842,-13.437c0.496,-3.61 1.181,-8.25 1.535,-10.313c0.355,-2.062 0.638,-5.167 0.638,-6.9c0,-1.731 0.425,-4.806 0.969,-6.83c0.519,-2.024 1.134,-6.794 1.323,-10.6c0.236,-3.806 0.614,-7.23 0.921,-7.609c0.614,-0.793 1.748,-27.005 1.772,-41.186c0.004,-3.976 0.236,-6.586 1.063,-17.188c0.236,-1.889 0.377,-11.031 0.496,-20.312c0.236,-9.281 0.236,-17.297 0.283,-17.812c0.26,-3.337 -0.827,-21.076 -1.323,-21.694c-0.543,-0.676 -0.803,-5.652 -0.472,-9.394c-0,-0.77 -0.473,-2.536 -1.205,-3.925c-0.732,-1.389 -1.323,-2.94 -1.323,-3.446c0,-0.506 -0.567,-1.971 -1.252,-3.253c-0.685,-1.283 -1.252,-2.65 -1.252,-3.038c0,-0.782 -4.365,-4 -5.426,-4c-0.378,-0 -2.315,-0.73 -4.341,-1.626c-3.504,-1.549 -8.488,-2.824 -11.171,-2.855c-2.748,-0.024 -6.938,0.949 -7.996,1.871c-0.615,0.536 -2.15,1.327 -3.385,1.755c-2.15,0.734 -2.426,0.666 -5.051,-1.214l-2.785,-1.994l-0.945,1.405c-1.11,1.666 -2.149,1.765 -4.23,0.404c-1.158,-0.751 -2.268,-0.895 -4.51,-0.574c-7.405,1.061 -17.14,0.189 -22.238,-2.001c-2.244,-0.956 -2.501,-0.952 -4.275,0.095l-1.89,1.117l-2.15,-2.076c-1.937,-1.878 -2.315,-2.01 -3.94,-1.396c-0.992,0.373 -2.173,0.453 -2.612,0.165c-0.449,-0.276 -2.797,-0.501 -5.221,-0.498c-2.608,-0 -5.348,-0.395 -6.709,-0.971c-1.275,-0.536 -4.781,-1.377 -7.814,-1.871c-3.03,-0.491 -6.777,-1.358 -8.324,-1.925c-1.536,-0.567 -3.305,-1.188 -3.905,-1.377c-0.59,-0.189 -1.086,-0.617 -1.086,-0.952c-0,-0.359 -0.993,-0.44 -2.445,-0.189c-1.985,0.335 -2.566,0.189 -3.09,-0.728c-0.567,-0.987 -0.827,-1.03 -1.984,-0.314c-1.158,0.706 -1.512,0.666 -2.549,-0.267c-0.921,-0.834 -1.37,-0.919 -1.937,-0.357c-0.567,0.563 -1.11,0.383 -2.339,-0.758c-0.874,-0.822 -2.579,-1.63 -3.784,-1.795c-1.205,-0.166 -3.113,-0.685 -4.245,-1.153c-1.772,-0.735 -2.15,-0.723 -2.648,0.071c-0.52,0.805 -0.59,0.798 -0.59,-0.071c-0.01,-0.921 -2.386,-2.444 -3.815,-2.444c-0.331,0 -1.371,-0.56 -2.315,-1.245c-0.945,-0.685 -3.1,-1.422 -4.819,-1.639c-1.725,-0.213 -3.463,-0.815 -3.877,-1.332c-0.425,-0.518 -1.181,-0.773 -1.724,-0.565c-1.512,0.576 -12.236,-2.298 -15.912,-4.263c-0.874,-0.472 -3.378,-1.202 -5.539,-1.623c-2.821,-0.548 -4.266,-1.188 -5.11,-2.261c-0.897,-1.143 -1.559,-1.403 -2.752,-1.1c-0.992,0.25 -2.102,0.023 -3,-0.603c-0.779,-0.548 -2.031,-0.997 -2.794,-0.997c-0.756,0 -2.873,-0.755 -4.706,-1.679c-1.842,-0.924 -3.933,-1.632 -4.667,-1.576c-0.827,0.071 -1.465,-0.33 -1.654,-1.065c-0.236,-0.78 -1.441,-1.5 -3.664,-2.157c-1.842,-0.541 -4.396,-1.696 -5.667,-2.566c-1.275,-0.869 -2.721,-1.583 -3.222,-1.583c-1.086,0 -7.67,-3.656 -10.599,-5.89c-1.157,-0.876 -3.612,-3.919 -5.468,-6.759c-1.867,-2.84 -3.631,-5.269 -3.938,-5.398c-0.307,-0.118 -2.032,-1.536 -3.818,-3.126c-3.403,-3.02 -5.234,-4.181 -10.984,-6.971c-1.913,-0.923 -3.949,-2.423 -4.545,-3.331c-0.685,-1.032 -1.653,-1.651 -2.598,-1.651c-0.827,0 -1.748,-0.387 -2.008,-0.862c-0.283,-0.475 -1.37,-1.389 -2.44,-2.031c-1.063,-0.643 -3.319,-2.981 -5.001,-5.194c-1.677,-2.214 -3.822,-4.463 -4.755,-4.999c-0.921,-0.537 -2.291,-1.748 -3.014,-2.695c-0.732,-0.945 -1.866,-1.719 -2.537,-1.719c-1.252,-0 -9.416,-5.32 -12.475,-8.125c-0.945,-0.86 -2.898,-2.407 -4.361,-3.438c-1.464,-1.032 -3.791,-3.07 -5.18,-4.531c-1.394,-1.462 -2.776,-2.656 -3.08,-2.656c-0.307,-0 -2.965,-2.391 -5.908,-5.313c-2.941,-2.922 -5.695,-5.312 -6.118,-5.312c-0.425,-0 -1.796,-0.773 -3.031,-1.72c-1.252,-0.945 -4.141,-2.844 -6.437,-4.219c-2.291,-1.375 -5.017,-3.296 -6.047,-4.268c-1.04,-0.973 -2.485,-2.169 -3.234,-2.661c-0.756,-0.491 -1.748,-1.663 -2.221,-2.606c-2.338,-4.603 -5.232,-7.002 -13.089,-10.827c-2.976,-1.448 -5.4,-3.371 -9.063,-7.187c-2.75,-2.864 -6.827,-6.616 -9.062,-8.336c-8.601,-6.62 -10.136,-7.959 -12.531,-10.915c-1.748,-2.166 -2.469,-3.645 -2.469,-5.1c0,-1.765 -0.732,-2.739 -5.322,-7.03c-4.679,-4.378 -9.982,-8.433 -15.98,-12.221c-0.992,-0.633 -1.819,-1.505 -1.819,-1.937c0,-0.433 -1.488,-2.164 -3.291,-3.849c-1.818,-1.684 -3.994,-3.906 -4.854,-4.937c-0.85,-1.032 -3.314,-3.378 -5.457,-5.215c-2.411,-2.072 -4.344,-4.362 -5.078,-6.027c-0.662,-1.479 -2.542,-3.912 -4.196,-5.41c-4.899,-4.436 -7.164,-6.87 -8.898,-9.559c-0.898,-1.397 -2.979,-4.072 -4.618,-5.945c-1.63,-1.873 -2.981,-3.675 -2.981,-4.004c-0,-0.328 -0.78,-1.589 -1.725,-2.805c-2.702,-3.47 -3.148,-4.54 -2.891,-6.928c0.307,-2.987 -3.25,-8.199 -7.748,-11.312c-1.819,-1.255 -5.471,-4.454 -8.126,-7.108l-4.828,-4.827l2.362,-2.001c2.22,-1.882 2.315,-2.102 1.559,-3.694c-0.425,-0.93 -1.772,-2.192 -2.979,-2.8c-1.205,-0.61 -2.891,-1.569 -3.751,-2.131c-1.937,-1.271 -7.765,-4.451 -13.124,-7.166c-2.244,-1.132 -5.521,-3.41 -7.302,-5.062c-1.772,-1.654 -4.372,-3.824 -5.757,-4.825c-3.772,-2.728 -6.529,-5.787 -6.134,-6.812c0.283,-0.748 0.921,-0.789 3.675,-0.236c2.958,0.598 4.198,0.659 8.488,0.418c1.252,-0.071 8.173,1.356 11.404,2.351c1.205,0.371 3.735,0.848 5.625,1.063c1.89,0.212 4.382,0.692 5.534,1.06c2.757,0.884 4.011,-0.302 4.011,-3.794l0,-2.549c0,0 3.279,1.58 7.146,3.513c3.865,1.932 7.923,3.729 9.017,3.993c1.086,0.265 2.974,0.895 4.178,1.399c2.653,1.115 5.141,0.562 7.777,-1.725c1.134,-0.985 2.22,-1.436 2.813,-1.179c4.125,1.767 12.579,1.453 14.575,-0.54c1.181,-1.177 1.323,-1.182 3.808,-0.142c6.316,2.612 11.057,4.052 15.104,4.59c2.397,0.319 6.47,1.186 9.047,1.928c2.58,0.742 6.201,1.627 8.05,1.97c1.843,0.34 3.839,0.876 4.422,1.188c0.686,0.364 1.938,0.269 3.513,-0.26c1.89,-0.635 2.594,-1.282 3.052,-2.776c0.661,-2.135 1.535,-2.398 3.643,-1.082c0.755,0.477 2.924,1.056 4.804,1.29c1.89,0.236 3.711,0.649 4.063,0.926c1.134,0.886 11.814,4.568 14.114,4.864c1.536,0.189 2.474,-0.023 3.045,-0.704c1.016,-1.219 2.776,-1.282 3.73,-0.141c0.402,0.472 1.843,1.039 3.229,1.261c1.394,0.213 2.996,0.673 3.582,1.002c2.503,1.408 13.192,5.626 14.267,5.63c0.638,-0 1.984,0.423 2.965,0.938c2.719,1.419 7.696,1.238 8.667,-0.317c1.11,-1.771 1.889,-1.58 5.166,1.25c1.583,1.375 3.364,2.5 3.945,2.5c0.59,0.001 2.884,0.872 5.119,1.937c3.982,1.9 7.849,3.102 12.791,3.98c1.37,0.241 3.234,0.978 4.16,1.637c0.921,0.659 1.866,1.195 2.102,1.195c0.236,0 1.299,0.676 2.405,1.502c1.087,0.825 3.751,2.237 5.905,3.138c2.15,0.9 5.249,2.659 6.877,3.909c3.482,2.677 15.524,8.552 16.408,8.006c0.33,-0.212 0.614,-0.782 0.614,-1.278c-0,-0.496 0.307,-0.9 0.685,-0.9c0.803,0 6.321,2.712 8.246,4.062c0.733,0.517 1.914,0.94 2.608,0.942c0.685,0 2.008,0.395 2.936,0.874c0.922,0.48 2.885,1.073 4.375,1.321c1.488,0.248 3.466,0.838 4.394,1.313c0.921,0.475 2.433,0.864 3.345,0.864c0.897,0 2.539,0.393 3.623,0.875c2.632,1.169 6.704,2.052 8.098,1.757c0.614,-0.142 1.394,-0.94 1.724,-1.798c0.52,-1.37 0.851,-1.504 2.623,-1.117c1.11,0.243 2.633,1.037 3.375,1.767c0.732,0.73 3.196,2.261 5.457,3.4c2.268,1.141 4.285,2.355 4.497,2.699c0.237,0.345 1.441,0.55 2.722,0.458c2.464,-0.189 3.758,0.725 13.119,9.156c5.417,4.877 7.585,6.305 11.294,7.433c5.23,1.59 7.058,1.567 7.798,-0.094c0.803,-1.824 1.11,-1.788 5.149,0.626c5.601,3.336 6.074,3.575 7.094,3.584c0.543,0.007 1.795,0.853 2.773,1.885c0.992,1.03 2.055,1.876 2.362,1.876c0.308,0 2.436,1.632 4.727,3.625c2.292,1.994 5.15,4.364 6.352,5.266c1.205,0.903 4.814,4.194 8.027,7.313c3.21,3.119 6.312,5.671 6.891,5.671c0.566,-0 3.153,2.121 5.723,4.712c2.57,2.592 6.555,5.99 8.858,7.553c2.292,1.561 4.517,3.238 4.921,3.725c0.992,1.202 2.889,1.117 3.605,-0.165c0.519,-0.91 0.874,-0.726 2.841,1.405c1.252,1.349 2.244,2.695 2.244,2.99c0,0.295 0.874,1.634 1.937,2.978c1.063,1.344 3.069,4.618 4.453,7.277c1.394,2.659 2.981,5.397 3.546,6.085c2.149,2.617 3.916,5.45 6.716,10.756c3.663,6.947 8.178,13.649 11.612,17.243c4.521,4.728 6.725,7.577 6.733,8.698c0.004,1.025 0.496,2.308 3.333,8.615c2.102,4.687 3.89,9.511 4.741,12.812c0.259,1.033 0.944,2.776 1.511,3.876c0.567,1.1 1.04,2.403 1.04,2.897c-0,1.006 1.228,5.305 3.491,12.29c0.827,2.578 1.512,5.311 1.512,6.073c-0.007,0.763 0.401,2.307 0.874,3.437c0.496,1.129 1.512,4.162 2.268,6.74c0.756,2.578 2.078,6.656 2.905,9.062c0.851,2.407 1.89,5.641 2.339,7.188c0.449,1.547 1.559,4.641 2.508,6.875c0.945,2.235 2.339,5.75 3.126,7.812c0.779,2.063 2.007,5.086 2.759,6.719c0.732,1.632 1.866,4.182 2.52,5.665c0.638,1.483 1.583,3.099 2.055,3.593c0.473,0.494 2.542,2.727 4.571,4.961c2.032,2.235 5.306,5.328 7.273,6.875c1.961,1.547 4.184,3.586 4.921,4.531c1.677,2.15 2.501,2.188 2.501,0.118c0,-0.881 0.284,-2.13 0.615,-2.774c0.354,-0.642 0.755,-8.149 0.921,-16.678c0.236,-8.529 0.519,-19.866 0.779,-25.194c0.685,-13.943 -0.236,-53.368 -1.724,-83.125c-0.354,-6.703 -0.921,-17.391 -1.252,-23.75c-0.709,-13.726 -3.208,-49.218 -6.248,-88.75c-0.709,-9.109 -1.559,-20.5 -1.913,-25.313c-0.355,-4.916 -1.04,-9.613 -1.536,-10.719c-0.496,-1.084 -0.898,-3.282 -0.898,-4.885c0,-1.604 -0.307,-3.478 -0.661,-4.166c-0.898,-1.679 -1.937,-7.202 -1.866,-9.97c-0,-1.46 -0.354,-2.615 -1.134,-3.316c-0.685,-0.622 -1.063,-1.574 -0.874,-2.249c0.236,-0.7 -0.591,-2.542 -1.937,-4.561c-1.228,-1.863 -2.244,-3.68 -2.244,-4.037c-0,-0.357 -0.638,-0.82 -1.394,-1.028c-0.779,-0.212 -2.102,-1.346 -2.969,-2.526c-0.85,-1.182 -2.055,-2.282 -2.655,-2.443c-0.756,-0.189 -1.087,-0.917 -1.087,-2.242c0,-1.725 -0.236,-1.904 -1.464,-1.58c-0.922,0.236 -1.748,0.007 -2.268,-0.612c-0.449,-0.539 -1.299,-0.978 -1.913,-0.978c-0.591,-0 -1.843,-0.593 -2.764,-1.318c-1.111,-0.877 -2.221,-1.212 -3.322,-1.004c-1.606,0.307 -8.166,-2.044 -10.174,-3.643c-0.519,-0.411 -2.584,-0.907 -4.594,-1.103c-2.008,-0.189 -4.122,-0.758 -4.689,-1.252c-1.37,-1.183 -4.238,-1.66 -6.35,-1.056c-1.299,0.371 -1.937,0.213 -2.678,-0.649c-0.567,-0.666 -2.221,-1.295 -3.988,-1.512c-3.716,-0.463 -9.682,-1.455 -13.013,-2.166c-11.953,-2.552 -14.662,-3.179 -15.983,-3.702c-0.827,-0.331 -4.469,-1.496 -8.079,-2.59c-3.609,-1.094 -7.766,-2.528 -9.236,-3.187c-1.464,-0.659 -3.255,-1.197 -3.968,-1.197c-0.709,-0 -2.174,-0.376 -3.265,-0.834c-3.312,-1.403 -6.186,-2.393 -9.782,-3.367c-1.89,-0.512 -3.718,-1.145 -4.063,-1.407c-0.33,-0.263 -1.724,-0.674 -3.045,-0.915c-1.322,-0.241 -2.877,-0.678 -3.437,-0.971c-2.244,-1.176 -19.433,-7.503 -23.83,-8.766c-4.254,-1.224 -10.613,-3.558 -19.063,-7c-2.669,-1.086 -12.25,-6.083 -22.063,-11.503c-1.488,-0.817 -3,-1.486 -3.377,-1.486c-0.378,0 -1.56,-0.661 -2.625,-1.469c-1.063,-0.808 -3.758,-2.116 -5.988,-2.906c-2.221,-0.789 -5.745,-2.364 -7.812,-3.499c-2.079,-1.134 -5.447,-2.502 -7.509,-3.037c-2.055,-0.537 -5.438,-1.786 -7.5,-2.777c-2.055,-0.992 -5.438,-2.442 -7.5,-3.223c-3.298,-1.25 -4.588,-2.239 -8.315,-6.384c-0.685,-0.751 -4.576,-3.399 -6.997,-4.749c-1.205,-0.671 -3.156,-2.23 -4.342,-3.462c-1.181,-1.234 -2.485,-2.242 -2.889,-2.242c-0.401,-0 -2.102,-0.99 -3.784,-2.197c-1.677,-1.21 -4.032,-2.892 -5.235,-3.74c-2.078,-1.474 -14.57,-7.903 -18.477,-9.52c-1.016,-0.423 -3.404,-1.058 -5.287,-1.412c-1.889,-0.352 -4.126,-1.198 -4.986,-1.878c-0.851,-0.681 -3.532,-2.566 -5.939,-4.193c-2.404,-1.628 -5.298,-3.741 -6.427,-4.698c-1.134,-0.957 -2.96,-2.157 -4.063,-2.664c-1.111,-0.508 -2.431,-1.164 -2.946,-1.46c-0.52,-0.295 -3.945,-2.026 -7.62,-3.845c-3.676,-1.819 -6.818,-3.652 -6.978,-4.074c-0.237,-0.423 -1.465,-0.954 -2.892,-1.181c-1.512,-0.241 -3.245,-1.065 -4.143,-1.963c-0.85,-0.853 -2.055,-1.55 -2.674,-1.55c-3.017,0 -8.676,-3.883 -9.888,-6.784c-0.945,-2.275 -4.873,-6.341 -6.118,-6.341c-0.378,0 -1.654,-0.982 -2.809,-2.185c-3.283,-3.388 -10.918,-8.526 -15.737,-10.594c-1.252,-0.541 -3.149,-2.062 -4.191,-3.375c-1.653,-2.089 -9.857,-8.221 -10.998,-8.221c-0.236,0 -1.677,-0.86 -3.194,-1.911c-1.535,-1.051 -4.171,-2.327 -5.874,-2.832c-2.197,-0.652 -3.589,-1.559 -4.77,-3.109c-0.921,-1.205 -3.458,-3.364 -5.641,-4.801c-2.173,-1.436 -3.973,-2.97 -3.973,-3.408c0,-0.439 0.992,-1.207 2.197,-1.71c1.205,-0.503 2.173,-1.281 2.173,-1.727c0,-2.881 -8.291,-13.391 -12.468,-15.934c-0.874,-0.526 -2.884,-2.553 -4.481,-4.502c-2.577,-3.141 -10.5,-8.815 -12.312,-8.815c-0.307,0 -0.897,-0.385 -1.275,-0.855c-0.378,-0.47 -2.268,-1.342 -4.158,-1.939c-1.889,-0.596 -4.589,-2.041 -5.988,-3.209c-1.393,-1.169 -2.754,-2.123 -3.014,-2.123c-0.26,-0 -1.653,-0.851 -3.08,-1.89c-2.292,-1.658 -2.525,-2.048 -1.914,-3.176c0.945,-1.75 -1.181,-4.903 -6.531,-9.681c-3.555,-3.181 -3.966,-3.771 -3.215,-4.607c1.961,-2.181 1.724,-3.923 -1.11,-8.318c-1.512,-2.329 -3.565,-4.86 -4.581,-5.625c-1.015,-0.765 -2.492,-2.048 -3.281,-2.852c-0.779,-0.803 -2.464,-1.887 -3.723,-2.408c-2.48,-1.025 -9.174,-5.371 -10.783,-6.999c-0.543,-0.553 -2.476,-2.272 -4.285,-3.82c-4.793,-4.094 -5.606,-5.033 -6.206,-7.153c-0.307,-1.049 -1.653,-3.568 -3.035,-5.595c-2.268,-3.356 -2.424,-3.825 -1.701,-5.234c0.945,-1.84 0.614,-2.944 -1.653,-5.455c-6.01,-6.649 -10.55,-11.935 -10.562,-12.296c-0.007,-0.236 0.803,-1.247 1.819,-2.258c1.299,-1.306 1.725,-2.228 1.488,-3.188c-0.425,-1.641 -5.608,-6.317 -7.006,-6.326c-1.583,-0.009 -7.387,-2.899 -7.722,-3.837c-0.236,-0.466 -0,-1.359 0.283,-1.989c0.78,-1.5 -0.826,-3.321 -3.429,-3.892c-3.156,-0.694 -15.466,-7.213 -16.449,-8.712c-0.661,-1.014 -0.755,-1.819 -0.33,-2.95c0.567,-1.49 0.992,-1.604 10.223,-2.687c8.044,-0.945 10.087,-1.004 12.395,-0.35c6.489,1.836 7.724,1.356 7.564,-2.941l-0,-2.308l1.393,1.611c2.15,2.47 8.466,4.76 13.895,5.027c6.912,0.34 8.35,0.047 10.599,-2.209c2.079,-2.069 2.197,-2.107 5.135,-1.498c1.654,0.345 3.282,0.877 3.61,1.184c0.331,0.307 1.157,0.562 1.866,0.567c1.488,0.009 9.721,2.034 12.732,3.136c2.811,1.028 7.359,0.437 9.081,-1.179c1.228,-1.15 1.677,-1.226 3.867,-0.642c5.641,1.509 13.143,3.856 13.726,4.292c0.355,0.257 1.323,0.626 2.197,0.82c0.851,0.189 2.688,0.649 4.063,1.011c3.166,0.834 9.064,-0.189 9.064,-1.578c-0,-0.751 0.803,-0.855 4.531,-0.581c2.492,0.189 6.359,0.626 8.593,0.978c2.245,0.352 6.333,0.878 9.107,1.169c5.293,0.553 9.526,1.748 10.58,2.986c0.567,0.659 6.95,3.986 11.875,6.186c3.451,1.54 10.97,3.513 11.953,3.137c0.543,-0.213 1.275,-1.217 1.677,-2.247c0.732,-1.918 2.149,-2.414 3.375,-1.181c0.378,0.38 2.618,1.063 4.968,1.517c2.362,0.453 5.684,1.145 7.403,1.54c1.725,0.394 5.221,0.706 7.781,0.694c3.314,-0.012 4.937,0.248 5.625,0.914c1.512,1.463 10.863,6.917 18.935,11.045c6.066,3.101 7.505,3.619 8.282,2.975c0.52,-0.428 0.945,-1.134 0.945,-1.567c-0,-1.459 2.468,-1.502 4.233,-0.07c0.945,0.758 2.546,1.911 3.576,2.562c1.04,0.649 3.863,3.029 6.291,5.286c2.431,2.255 5.806,4.878 7.502,5.827c1.701,0.95 4.21,2.413 5.585,3.253c1.37,0.841 4.124,1.859 6.108,2.265c1.984,0.407 3.758,0.981 3.943,1.278c0.236,0.298 1.582,0.541 3.087,0.541c1.961,0 2.934,-0.311 3.38,-1.093c1.748,-3.045 1.701,-3.037 4.396,-0.874c1.394,1.126 4.038,2.706 5.854,3.51c1.819,0.803 4.129,2.152 5.143,2.998c2.636,2.204 11.031,7.335 12,7.335c0.448,0 1.488,0.439 2.315,0.976c1.228,0.808 1.7,0.838 2.761,0.189c1.157,-0.721 1.701,-0.39 5.747,3.556c9.435,9.167 11.62,11.026 14.707,12.508c3.579,1.72 4.668,1.866 5.755,0.777c0.59,-0.586 1.37,-0.141 3.595,2.032c1.559,1.53 6.935,6.819 11.938,11.751l9.1,8.967l2.634,-0.395c2.565,-0.385 2.714,-0.309 5.714,2.969c1.7,1.849 3.923,4.544 4.953,5.986c1.04,1.443 2.511,3.5 3.288,4.573c1.276,1.75 8.4,6.668 9.752,6.724c0.307,0.011 1.842,1.11 3.437,2.439c1.582,1.33 4.445,3.196 6.337,4.147c1.89,0.952 4.108,2.254 4.928,2.895c1.913,1.498 5.072,1.573 5.072,0.118c-0,-1.422 7.97,6.605 11.045,11.124c3.307,4.863 8.988,11.179 10.635,11.825c0.827,0.328 2.244,2.305 3.619,5.098c3.546,7.188 4.467,8.654 8.364,13.311c2.008,2.406 3.856,4.986 4.089,5.732c0.237,0.747 1.914,3.03 3.742,5.074c1.819,2.043 4.132,4.792 5.128,6.108c0.993,1.315 2.589,3.243 3.534,4.284c0.945,1.042 1.725,2.124 1.725,2.406c-0,0.281 1.204,1.835 2.693,3.454c1.488,1.618 3.637,4.489 4.795,6.38c1.157,1.889 2.858,4.281 3.784,5.312c1.606,1.798 2.641,3.645 6.586,11.831c0.992,2.039 2.431,4.653 3.215,5.809c0.779,1.158 1.417,2.42 1.417,2.807c0,0.388 0.378,1.148 0.874,1.692c1.465,1.684 5.185,9.537 6.515,13.799c0.709,2.234 2.126,6.256 3.151,8.936c1.04,2.681 2.079,5.775 2.292,6.875c0.236,1.101 1.937,5.194 3.791,9.096c1.866,3.902 3.376,7.472 3.376,7.932c-0,0.461 0.26,0.992 0.567,1.179c0.307,0.189 0.732,1.4 0.968,2.693c0.402,2.199 1.937,6.642 3.881,11.195c0.473,1.084 0.851,2.348 0.874,2.812c0.01,0.463 0.425,1.389 0.945,2.056c0.496,0.668 0.921,1.967 0.921,2.892c0,0.924 0.449,2.046 0.993,2.495c0.543,0.449 1.488,1.819 2.126,3.045c1.204,2.348 11.912,13.252 15.637,15.924c1.205,0.863 3.454,2.261 5.001,3.106c1.536,0.846 4.077,2.706 5.624,4.134c4.767,4.403 7.5,5.29 7.5,2.435c0,-0.685 0.378,-2.003 0.875,-2.932c1.181,-2.291 2.43,-12.266 1.937,-15.266c-0.237,-1.445 -0,-3.176 0.354,-4.27c0.59,-1.441 0.59,-4.717 -0,-15.12c-0.402,-7.305 -0.992,-40.704 -1.323,-74.219c-0.402,-42.631 -0.85,-64.599 -1.488,-73.125c-0.638,-8.405 -0.945,-22.714 -0.992,-46.107c-0,-33.085 -0,-33.938 -1.3,-34.688c-0.708,-0.437 -1.393,-1.748 -1.606,-3.033c-0.85,-5.233 -4.412,-8.684 -12.274,-11.855c-0.945,-0.385 -2.008,-1.231 -2.364,-1.883c-0.355,-0.651 -1.181,-1.183 -1.843,-1.183c-0.661,0 -1.512,-0.562 -1.866,-1.25c-0.378,-0.687 -1.11,-1.249 -1.654,-1.249c-0.543,-0 -1.7,-0.562 -2.563,-1.25c-0.874,-0.687 -1.937,-1.249 -2.364,-1.249c-0.425,-0 -1.158,-0.454 -1.606,-1.007c-0.685,-0.817 -6.331,-4.398 -11.193,-7.091c-5.716,-3.166 -28.426,-13.776 -29.494,-13.779c-0.449,0 -1.724,-0.553 -2.83,-1.228c-1.11,-0.676 -3.638,-1.784 -5.624,-2.465c-6.7,-2.296 -9.232,-3.231 -11.209,-4.145c-1.087,-0.501 -2.197,-0.912 -2.502,-0.917c-0.708,-0.009 -13.561,-4.757 -15.021,-5.544c-0.614,-0.336 -3.664,-1.789 -6.758,-3.227c-9.026,-4.198 -13.578,-6.493 -16.25,-8.196c-1.37,-0.876 -3.203,-1.807 -4.063,-2.067c-0.85,-0.26 -4.375,-1.883 -7.812,-3.606c-3.437,-1.722 -7.235,-3.573 -8.437,-4.111c-1.205,-0.538 -3.773,-1.909 -5.707,-3.047c-1.937,-1.139 -3.957,-2.069 -4.493,-2.069c-0.544,-0 -2.79,-1.389 -5.006,-3.09c-2.22,-1.698 -5.398,-3.729 -7.07,-4.511c-1.677,-0.781 -5.005,-2.902 -7.413,-4.71c-2.404,-1.81 -5.603,-4.209 -7.105,-5.333c-1.512,-1.124 -4.455,-3.538 -6.562,-5.365c-2.103,-1.825 -4.675,-3.767 -5.707,-4.313c-1.04,-0.546 -3.702,-2.576 -5.937,-4.511c-2.244,-1.934 -5.752,-4.603 -7.814,-5.93c-2.055,-1.327 -4.953,-3.217 -6.423,-4.2c-1.464,-0.983 -2.929,-1.788 -3.238,-1.788c-1.087,-0 -4.937,-2.825 -5.679,-4.162c-0.401,-0.742 -2.197,-2.261 -3.954,-3.377c-1.772,-1.115 -4.188,-2.926 -5.393,-4.024c-1.205,-1.099 -4.016,-3.043 -6.251,-4.32c-9.04,-5.167 -11.248,-6.778 -11.248,-8.204c-0,-0.423 -1.134,-1.715 -2.504,-2.872c-1.37,-1.157 -4.647,-4.017 -7.262,-6.356c-2.617,-2.339 -5.497,-4.721 -6.401,-5.294c-0.898,-0.574 -3.052,-2.065 -4.772,-3.317c-1.724,-1.252 -4.62,-3.072 -6.449,-4.047c-1.819,-0.976 -4.143,-2.772 -5.145,-3.994c-2.943,-3.589 -3.342,-3.947 -8.043,-7.221c-2.466,-1.719 -5.528,-4 -6.798,-5.071c-1.276,-1.07 -3.159,-2.393 -4.189,-2.939c-1.039,-0.546 -3.07,-2.121 -4.53,-3.498c-2.362,-2.225 -2.658,-2.818 -2.658,-5.314c0,-2.948 -1.582,-6.049 -4.675,-9.122c-0.874,-0.862 -1.582,-1.847 -1.582,-2.187c-0,-0.65 -5.866,-5.931 -6.588,-5.931c-0.237,-0 -1.465,-0.82 -2.719,-1.821c-1.252,-1.002 -3.619,-2.524 -5.235,-3.382c-1.606,-0.857 -4.415,-3.138 -6.227,-5.065c-1.819,-1.928 -4.03,-3.992 -4.927,-4.587c-0.898,-0.595 -2.776,-1.845 -4.17,-2.778c-1.393,-0.933 -2.707,-2.237 -2.917,-2.901c-0.236,-0.664 -0.921,-1.349 -1.606,-1.524c-1.748,-0.456 -2.965,-3.351 -1.984,-4.71c1.559,-2.159 1.511,-2.724 -0.426,-4.709c-1.086,-1.111 -1.96,-2.523 -1.96,-3.138c-0,-0.615 -1.63,-2.852 -3.629,-4.971c-2.008,-2.119 -4.067,-4.555 -4.604,-5.414c-0.543,-0.86 -2.291,-3.025 -3.9,-4.812c-1.606,-1.786 -3.692,-4.684 -4.629,-6.438c-1.89,-3.53 -11.136,-13.235 -16.146,-16.943c-4.458,-3.298 -6.031,-5.606 -5.237,-7.692c0.708,-1.842 0.425,-2.676 -2.75,-8.178c-2.908,-5.049 -5.355,-9.584 -5.355,-9.924c0,-0.142 1.11,-0.465 2.473,-0.697c3.258,-0.55 3.589,-1.802 1.866,-7.049c-1.251,-3.799 -2.031,-4.869 -8.057,-11.08c-4.356,-4.49 -7.077,-7.851 -7.84,-9.688c-0.638,-1.547 -1.677,-3.393 -2.292,-4.102c-0.614,-0.712 -1.133,-1.621 -1.133,-2.027c-0,-0.404 -0.591,-1.089 -1.3,-1.522c-1.866,-1.126 -3.699,-5.021 -3.699,-7.861c0,-1.571 -0.567,-3.258 -1.559,-4.741c-0.85,-1.266 -1.559,-2.501 -1.559,-2.743c0,-0.243 -1.134,-2.128 -2.499,-4.191c-1.37,-2.062 -2.497,-4.042 -2.497,-4.399c0,-0.357 -0.567,-1.748 -1.252,-3.09l-1.252,-2.442l1.323,-1.405c0.945,-1 1.228,-1.914 0.992,-3.16c-0.496,-2.683 -2.315,-7.262 -3.309,-8.365c-0.496,-0.544 -0.898,-1.337 -0.898,-1.765c-0,-0.898 -5.081,-6.636 -14.22,-16.059c-3.523,-3.633 -6.407,-6.985 -6.407,-7.449c0,-0.463 0.544,-1.014 1.205,-1.222c1.772,-0.562 2.126,-2.218 0.945,-4.365c-1.063,-1.927 -3.569,-4.178 -12.234,-10.978c-2.854,-2.24 -5.036,-4.476 -5.407,-5.537c-0.331,-0.978 -1.512,-2.695 -2.608,-3.814c-2.126,-2.176 -2.032,-2.508 1.016,-3.71c1.984,-0.784 3.779,-0.236 10.847,3.319c3.671,1.848 6.839,2.475 9.061,1.793c1.819,-0.557 2.41,-0.481 3.6,0.456c2.925,2.299 9.636,4.964 14.214,5.641c3.104,0.46 6.399,1.526 9.758,3.154c2.79,1.354 5.655,2.461 6.369,2.461c0.708,-0 1.464,0.26 1.653,0.576c0.236,0.317 1.819,1.058 3.631,1.647c1.795,0.588 3.555,1.285 3.897,1.549c1.819,1.41 6.378,0.586 7.068,-1.28c0.425,-1.132 0.638,-1.058 2.943,1.006c3.173,2.837 11.235,6.705 17.568,8.429c2.707,0.737 5.237,1.594 5.625,1.906c0.897,0.721 2.735,0.047 2.735,-1.016c0,-0.441 0.496,-1.41 1.087,-2.154l1.086,-1.354l2.15,2.221c1.181,1.221 2.603,2.22 3.156,2.22c0.543,0 1.275,0.244 1.582,0.544c0.331,0.297 2.008,1.056 3.721,1.682c2.835,1.032 5.752,2.538 6.562,3.385c0.236,0.189 2.421,1.427 4.999,2.772c3.552,1.852 5.459,2.458 7.863,2.5c2.398,0.047 3.695,0.453 5.313,1.682c3.503,2.668 11.804,6.81 13.644,6.81c1.11,-0 3.295,1.198 6.18,3.384c2.456,1.861 6.373,4.275 8.702,5.363c2.338,1.089 5.268,2.682 6.529,3.54c2.667,1.817 4.479,1.333 5.159,-1.377l0.402,-1.623l2.197,1.921c1.204,1.056 2.553,1.92 3.004,1.92c0.449,0 1.323,0.563 1.937,1.25c0.614,0.687 1.37,1.25 1.677,1.25c0.308,-0 1.725,0.758 3.185,1.681c3.982,2.535 7.923,4.568 8.851,4.568c0.449,0 1.157,0.383 1.535,0.85c0.378,0.468 2.315,1.016 4.281,1.219c3.302,0.34 3.767,0.593 6.089,3.299c3.848,4.483 10.85,11.402 11.19,11.06c0.236,-0.166 1.228,0.387 2.379,1.235c2.695,2.001 10.155,5.463 11.775,5.463c0.804,-0 1.489,-0.617 1.89,-1.645c0.591,-1.582 0.662,-1.604 1.843,-0.55c0.661,0.602 1.795,2.232 2.527,3.622c0.733,1.389 2.079,3.262 2.993,4.159c0.921,0.898 2.653,2.837 3.848,4.31c1.205,1.472 3.052,3.219 4.122,3.882c1.063,0.661 2.934,2.133 4.139,3.269c1.205,1.136 3.361,2.452 4.793,2.924c1.441,0.473 2.915,1.236 3.297,1.694c0.378,0.458 1.087,0.834 1.559,0.834c0.473,-0 1.394,0.321 2.008,0.716c1.914,1.202 4.429,0.141 5.457,-2.327c0.496,-1.205 1.158,-2.036 1.465,-1.847c0.472,0.29 2.506,3.604 6.101,9.923c1.37,2.42 7.791,9.215 10.214,10.818c2.495,1.651 4.966,1.58 4.966,-0.142c-0,-0.491 0.236,-0.895 0.543,-0.895c0.638,-0 5.417,7.24 7.512,11.406c0.827,1.633 1.701,2.969 1.984,2.969c0.26,-0 1.063,1.207 1.772,2.681c0.708,1.474 2.643,4.076 4.287,5.781c1.654,1.706 3.31,3.804 3.699,4.663c1.914,4.211 10.637,12.471 14.091,13.337c0.898,0.237 2.22,1.354 2.934,2.515c1.866,3.025 6.909,6.797 8.638,6.466c1.111,-0.213 1.725,0.281 2.97,2.413c0.874,1.474 1.582,3.101 1.582,3.616c0,1.354 4.189,9.189 5.894,11.028c0.803,0.86 1.843,2.291 2.315,3.183c0.472,0.89 2.22,3.667 3.872,6.169c1.653,2.501 3.264,5.147 3.571,5.879c0.709,1.67 1.961,3.237 2.856,3.574c0.378,0.142 2.592,2.437 4.916,5.101c2.315,2.664 4.545,4.886 4.935,4.937c0.378,0.047 1.275,0.118 1.96,0.165c1.559,0.071 3.34,3.703 4.096,8.336c0.496,3.112 2.244,8.494 3.631,11.245c0.307,0.609 2.055,4.136 3.891,7.837c1.842,3.7 3.977,7.335 4.766,8.077c0.78,0.742 1.441,1.739 1.441,2.216c0,0.477 0.993,2.154 2.197,3.731c1.205,1.576 2.197,3.149 2.197,3.496c0,0.347 1.417,2.119 3.125,3.935c2.15,2.268 3.126,3.828 3.126,4.974c-0,0.919 1.346,3.958 3.009,6.756c1.653,2.798 4.077,7.196 5.386,9.774c1.299,2.578 3.312,6.375 4.453,8.438c2.078,3.751 2.957,6.094 4.958,13.125c0.59,2.062 1.748,5.16 2.568,6.884c0.826,1.724 1.511,3.485 1.511,3.914c0,0.43 0.284,1.269 0.615,1.867c1.157,2.024 3.755,9.664 3.755,11.034c0,0.749 0.26,1.63 0.567,1.956c0.52,0.551 1.37,3.318 3.402,11.219c0.449,1.719 1.134,3.739 1.535,4.49c0.402,0.751 0.733,2.105 0.733,3.01c-0,0.905 0.33,2.258 0.732,3.01c0.401,0.751 0.945,2.35 1.205,3.552c0.543,2.459 4.511,13.647 5.475,15.415c0.355,0.63 1.299,2.695 2.126,4.585c0.827,1.89 2.773,5.407 4.328,7.813c3.498,5.413 21.401,24.023 22.247,23.125c1.016,-1.089 2.646,-6.144 2.906,-9.062c0.614,-6.772 1.629,-22.533 2.22,-34.063c1.488,-29.41 3.565,-53.001 8.128,-92.813c1.748,-15.242 2.828,-25.157 4.394,-40.312c0.709,-6.875 1.701,-16.438 2.197,-21.25c0.496,-4.813 1.181,-10.719 1.512,-13.125c0.945,-6.833 0.826,-13.143 -0.284,-14.063c-0.519,-0.427 -0.945,-1.679 -0.945,-2.778c0,-1.791 -0.236,-2.063 -2.338,-2.58c-1.843,-0.454 -2.41,-0.938 -2.658,-2.249c-0.33,-1.738 -2.501,-3.801 -4.745,-4.504c-0.709,-0.236 -2.556,-1.599 -4.087,-3.054c-1.535,-1.456 -3.926,-3.43 -5.322,-4.387c-1.394,-0.957 -3.9,-3.265 -5.558,-5.127c-1.654,-1.864 -3.881,-3.734 -4.935,-4.158c-1.063,-0.426 -4.294,-3.003 -7.195,-5.729c-2.903,-2.726 -5.995,-5.237 -6.874,-5.579c-0.874,-0.343 -3.428,-2.626 -5.662,-5.075c-3.766,-4.126 -8.904,-8.748 -12.4,-11.155c-0.803,-0.553 -3.252,-2.629 -5.442,-4.613c-2.197,-1.984 -5.093,-4.33 -6.447,-5.215c-1.346,-0.886 -4.743,-3.648 -7.528,-6.14c-2.787,-2.492 -5.398,-4.531 -5.802,-4.531c-0.401,-0 -3.004,-2.221 -5.778,-4.936c-7.322,-7.168 -10.525,-10.011 -11.728,-10.405c-0.59,-0.189 -1.228,-0.853 -1.417,-1.472c-0.236,-0.619 -1.063,-1.443 -1.914,-1.833c-0.85,-0.39 -1.866,-1.379 -2.244,-2.197c-0.378,-0.817 -1.559,-1.875 -2.648,-2.352c-1.228,-0.539 -2.055,-1.401 -2.173,-2.275c-0.236,-0.773 -0.449,-1.406 -0.756,-1.406c-0.307,0 -2.697,-1.828 -5.327,-4.062c-2.629,-2.235 -5,-4.063 -5.272,-4.063c-0.26,0 -2.849,-2.277 -5.724,-5.057c-2.877,-2.782 -6.215,-5.577 -7.417,-6.212c-1.205,-0.636 -4.221,-3.14 -6.706,-5.568c-2.485,-2.427 -4.805,-4.413 -5.155,-4.413c-0.354,0 -1.7,-0.968 -3.021,-2.154c-1.323,-1.186 -3.772,-2.874 -5.471,-3.753c-1.701,-0.879 -4.49,-3.006 -6.21,-4.726c-1.724,-1.72 -4.389,-3.737 -5.936,-4.48c-3.848,-1.849 -6.747,-4.443 -9.574,-8.569c-1.299,-1.916 -2.608,-3.628 -2.88,-3.806c-0.283,-0.189 -0.968,-1.255 -1.559,-2.391c-0.59,-1.136 -2.338,-2.882 -3.914,-3.878c-1.583,-0.997 -3.262,-2.392 -3.761,-3.102c-0.496,-0.711 -2.244,-2.06 -3.876,-2.997c-3.513,-2.018 -8.813,-6.567 -8.813,-7.566c-0,-0.388 -0.355,-0.704 -0.78,-0.707c-0.425,-0.002 -2.679,-1.932 -4.996,-4.29c-2.315,-2.357 -5.272,-4.984 -6.565,-5.839c-1.346,-0.893 -2.952,-2.771 -3.772,-4.413c-1.417,-2.844 -3.548,-4.97 -7.961,-7.953c-2.031,-1.363 -6.928,-5.387 -11.395,-9.338c-0.779,-0.685 -1.984,-1.549 -2.676,-1.925c-0.709,-0.373 -2.925,-2.39 -4.944,-4.479c-3.605,-3.731 -4.871,-6.38 -3.716,-7.778c0.756,-0.912 -1.039,-4.328 -3.35,-6.339c-0.945,-0.827 -1.724,-1.859 -1.724,-2.296c-0,-0.435 -0.992,-2.081 -2.197,-3.658c-1.559,-2.055 -2.454,-4.127 -3.125,-7.318c-0.52,-2.449 -0.945,-4.533 -0.945,-4.632c-0,-0.094 -0.874,-1.086 -1.937,-2.196c-1.063,-1.111 -2.362,-3.05 -2.87,-4.312c-0.52,-1.261 -1.984,-3.56 -3.274,-5.107c-1.276,-1.547 -3.22,-4.564 -4.302,-6.705c-3.267,-6.465 -4.748,-8.439 -9.718,-12.957c-4.29,-3.901 -4.668,-4.429 -3.836,-5.349c1.465,-1.627 1.299,-3.708 -0.78,-9.052c-1.063,-2.749 -2.702,-7.671 -3.642,-10.937c-0.945,-3.266 -2.126,-7.097 -2.613,-8.513c-1.275,-3.673 -0.874,-5.376 1.559,-6.447c1.559,-0.692 2.197,-1.478 2.722,-3.435c0.945,-3.472 0.921,-7.96 -0,-13.167c-0.827,-4.541 -0.992,-4.988 -4.689,-12.931c-1.229,-2.643 -2.244,-5.656 -2.244,-6.697c-0,-3.208 -3.461,-12.306 -5.611,-14.747c-1.441,-1.644 -2.031,-4.247 -1.346,-6.051c0.307,-0.817 0.307,-2.079 0.007,-2.895c-0.307,-0.793 -0.827,-3.326 -1.205,-5.624c-0.354,-2.299 -0.827,-4.806 -1.016,-5.571c-0.259,-1.061 0,-1.561 1.229,-2.107c0.874,-0.395 1.748,-1.316 1.96,-2.046c0.378,-1.367 -2.338,-13.57 -3.784,-16.999c-0.449,-1.056 -1.016,-4.274 -1.252,-7.152c-0.567,-6.743 -0.236,-6.156 -8.579,-15.559c-2.008,-2.265 -4.328,-5.166 -5.152,-6.446c-0.827,-1.28 -2.268,-2.732 -3.222,-3.229c-2.4,-1.26 -6.636,-5.76 -6.154,-6.539c0.26,-0.441 0.992,-0.434 2.315,0.024c1.276,0.444 2.362,0.461 3.267,0.047c1.63,-0.741 8.58,0.981 10.328,2.561c0.614,0.563 1.7,1.023 2.409,1.023c0.709,0 1.606,0.409 2.032,0.907c0.803,0.962 5.619,3.469 6.668,3.469c0.354,0 1.441,0.844 2.421,1.876c2.103,2.206 2.849,2.31 4.375,0.626c1.677,-1.85 1.252,-1.961 9.338,2.459c2.055,1.118 5.901,4.061 8.572,6.543c2.67,2.481 5.5,4.813 6.286,5.18c1.583,0.744 5.851,2.405 7.503,2.925c0.59,0.189 1.464,1.264 1.96,2.397c0.803,1.849 2.502,3.839 5.83,6.823c0.614,0.557 1.843,1.226 2.693,1.483c0.85,0.258 2.735,1.418 4.169,2.58c1.441,1.159 2.851,2.111 3.154,2.111c0.307,0 1.63,1.115 2.967,2.478c1.323,1.363 4.5,3.542 7.042,4.843c2.539,1.302 5.515,2.846 6.614,3.431c2.936,1.566 4.535,1.384 6.011,-0.692c0.709,-1 1.3,-2.124 1.3,-2.501c-0,-1.013 1.063,-0.831 1.464,0.253c0.236,0.515 0.78,0.938 1.276,0.938c0.496,-0 1.086,0.569 1.323,1.266c0.236,0.697 1.157,1.741 2.078,2.322c0.922,0.581 3.447,2.752 5.613,4.827c2.173,2.074 4.571,4.102 5.339,4.505c0.756,0.404 1.771,1.45 2.244,2.327c0.968,1.828 4.202,3.111 6.42,2.554c1.252,-0.316 1.89,0.118 3.834,2.629c3.444,4.458 7.928,9.557 10.406,11.832c3.125,2.871 8.683,6.488 9.97,6.488c1.087,0 5.289,4.269 9.241,9.378c2.627,3.395 6.903,6.748 12.312,9.653c4.389,2.357 5.107,2.449 9.874,1.254c1.276,-0.321 1.795,-0.165 2.032,0.581c0.732,2.27 0.59,2.048 4.783,8.253c0.898,1.344 2.492,3.372 3.522,4.506c1.016,1.134 2.929,4.591 4.226,7.681c2.15,5.102 2.818,6.047 7.394,10.281c2.771,2.565 5.386,4.663 5.813,4.663c0.874,0 3.655,-2.604 4.146,-3.871c0.425,-1.119 3.269,2.169 4.816,5.59c0.662,1.46 1.465,2.656 1.796,2.656c0.33,0 0.874,0.848 1.252,1.883c0.354,1.037 1.157,2.06 1.771,2.277c0.615,0.213 2.055,1.268 3.192,2.336c1.252,1.177 2.733,1.942 3.751,1.942c1.559,-0 1.701,0.246 2.055,3.125c0.378,3.112 1.276,6.088 2.743,9.062c0.425,0.86 0.944,2.407 1.181,3.438c0.543,2.467 2.362,6.121 3.345,6.75c0.425,0.274 0.779,1.004 0.779,1.618c0,1.183 2.813,2.834 3.796,2.227c0.307,-0.189 0.567,-0.786 0.567,-1.311c0,-2.303 1.63,-0.008 4.098,5.745c1.465,3.421 3.952,8.14 5.53,10.487c1.583,2.348 2.873,4.496 2.873,4.776c-0,1.451 5.917,10.699 8.39,13.113c1.961,1.906 2.967,3.48 3.222,5c0.237,1.219 0.78,3.105 1.252,4.188c0.496,1.084 0.874,2.658 0.874,3.5c0,0.841 0.898,2.768 1.985,4.28c2.338,3.224 4.254,7.957 4.254,10.493c-0,0.985 0.425,2.802 0.945,4.036c0.52,1.233 0.945,3.087 0.945,4.118c-0,1.03 1.11,3.923 2.466,6.426c1.866,3.457 2.757,4.519 3.683,4.416c0.826,-0.095 1.417,0.415 1.842,1.561c0.685,1.845 3.111,11.424 3.924,15.449c0.567,2.818 1.559,6.675 2.839,11.166c0.473,1.672 0.874,3.782 0.898,4.687c-0,1.619 1.606,6.419 4.339,13.21c0.756,1.89 1.63,4.703 1.937,6.25c0.284,1.547 0.969,3.937 1.465,5.312c0.519,1.375 0.945,3.943 0.968,5.705c0,1.763 0.449,4.215 0.969,5.449c0.519,1.233 0.945,3.342 0.945,4.685c-0,1.342 0.425,3.638 0.944,5.099c0.52,1.462 0.945,3.412 0.945,4.334c0,0.924 0.52,3.911 1.181,6.641c3.015,12.78 3.919,18.282 5.92,36.021c0.449,4.02 1.134,7.676 1.488,8.125c0.355,0.449 1.3,3.207 2.055,6.129c0.78,2.922 1.772,6.015 2.221,6.875c0.449,0.86 0.968,2.282 1.134,3.159c0.236,0.879 1.181,2.847 2.22,4.375c1.04,1.529 1.89,3.153 1.89,3.611c-0,1.197 4.38,6.355 5.376,6.355c1.89,-0 2.502,-2.619 4.926,-20.938c1.606,-12.111 2.773,-19.874 3.753,-24.898c0.52,-2.695 0.969,-6.97 0.969,-9.501c-0,-3.573 0.236,-4.726 0.992,-5.162c0.921,-0.515 0.921,-0.721 -0,-2.5c-1.158,-2.239 -1.299,-4.581 -0.331,-5.548c0.85,-0.863 0.898,-18.818 0,-21.613c-0.331,-1.115 -0.803,-4.902 -1.016,-8.415c-0.236,-3.603 -0.779,-7.145 -1.299,-8.125c-0.496,-0.957 -0.898,-2.947 -0.921,-4.425c-0,-1.479 -0.402,-3.447 -0.874,-4.375c-0.473,-0.928 -1.063,-3.797 -1.323,-6.375c-0.26,-2.578 -0.685,-4.969 -0.945,-5.313c-0.26,-0.342 -0.945,-2.875 -1.512,-5.625c-2.008,-9.831 -2.338,-11.258 -2.823,-11.875c-0.259,-0.342 -0.685,-2.149 -0.921,-4.011c-0.236,-1.863 -0.827,-4.357 -1.323,-5.545c-0.496,-1.188 -0.897,-3.119 -0.897,-4.292c-0,-1.174 -0.378,-2.756 -0.851,-3.517c-0.472,-0.761 -1.039,-2.725 -1.252,-4.364c-0.236,-1.639 -0.803,-3.805 -1.323,-4.813c-0.519,-1.008 -0.944,-2.84 -0.944,-4.071c-0,-1.413 -0.355,-2.371 -0.945,-2.598c-0.52,-0.189 -0.945,-0.912 -0.945,-1.59c-0,-0.675 -0.709,-3.323 -1.559,-5.884c-0.851,-2.56 -1.559,-5.918 -1.559,-7.462c-0,-1.545 -0.26,-3.296 -0.567,-3.893c-0.827,-1.585 -3.818,-12.383 -3.818,-13.74c0,-0.637 -0.259,-1.424 -0.59,-1.752c-0.756,-0.768 -1.748,-9.298 -2.492,-21.649c-0.402,-6.563 -0.898,-10.415 -1.559,-11.654c-0.52,-1.018 -1.087,-3.444 -1.252,-5.393c-0.236,-1.949 -0.591,-3.899 -0.945,-4.332c-0.614,-0.749 -1.89,-7.901 -1.913,-10.805c-0.008,-0.768 0.472,-1.519 1.11,-1.718c1.582,-0.503 3.527,-3.964 2.756,-4.916c-0.33,-0.413 -0.803,-2.503 -1.039,-4.643c-0.236,-2.14 -0.968,-4.941 -1.63,-6.226c-0.661,-1.285 -1.181,-2.778 -1.181,-3.32c0,-1.016 -1.913,-5.103 -3.016,-6.435c-0.331,-0.414 -0.827,-1.878 -1.063,-3.253c-0.26,-1.374 -0.686,-2.811 -0.993,-3.191c-0.307,-0.381 -0.803,-1.928 -1.133,-3.438c-0.709,-3.335 -2.719,-10.291 -3.591,-12.433c-1.677,-4.13 -1.37,-6.168 1.039,-6.976c0.355,-0.118 0.709,-1.195 0.804,-2.4c0.236,-3.293 -0.851,-17.097 -1.418,-17.812c-0.26,-0.342 -0.685,-2.102 -0.921,-3.905c-0.236,-1.805 -0.685,-3.426 -0.969,-3.604c-0.283,-0.189 -0.708,-1.937 -0.921,-3.907c-0.756,-6.792 -0.779,-6.709 0.921,-6.709c2.174,0 2.892,-1.901 3.745,-9.968c0.401,-3.763 0.803,-6.997 0.897,-7.187c0,-0.189 -0.236,-3.123 -0.614,-6.518l-0.803,-6.174l1.583,-2.396c0.874,-1.318 1.913,-4.016 2.291,-5.996c0.685,-3.506 0.779,-3.627 3.501,-4.568c2.485,-0.859 2.874,-1.266 3.578,-3.695c0.426,-1.5 0.638,-2.964 0.473,-3.252c-0.236,-0.288 0.236,-1.219 0.685,-2.067c0.85,-1.283 1.039,-3.808 1.157,-14.857l0.237,-13.311l2.149,-0.388c3.269,-0.588 5.589,-1.681 5.589,-2.634c0,-0.47 0.591,-1.391 1.323,-2.046c3.064,-2.773 6.109,-9.221 7.791,-16.504c2.173,-9.361 2.47,-10.127 4.544,-11.312c1.3,-0.744 2.008,-1.895 2.748,-4.51c0.543,-1.93 0.85,-4.084 0.661,-4.785c-0.236,-0.702 0,-1.654 0.354,-2.114c0.662,-0.799 1.158,-2.744 2.861,-11.341c0.945,-4.741 1.417,-5.801 2.854,-6.255c0.637,-0.212 1.346,-1.23 1.582,-2.315c0.236,-1.072 0.685,-2.256 0.992,-2.628c0.307,-0.373 0.945,-1.211 1.394,-1.866c0.685,-0.994 1.11,-1.084 2.639,-0.555c0.992,0.35 2.402,0.418 3.118,0.142c2.338,-0.86 6.81,-8.823 7.552,-13.41c0.472,-2.91 2.787,-9.828 3.874,-11.562c2.898,-4.624 4.653,-6.25 6.746,-6.25c1.205,-0 2.577,-0.494 3.246,-1.165c1.512,-1.502 4.59,-8.022 4.764,-10.068c0,-0.869 0.52,-3.225 0.969,-5.235c0.685,-3.003 1.394,-4.231 3.999,-6.9c3.215,-3.292 5.244,-7.965 5.674,-13.062c0,-1.105 0.236,-2.209 0.236,-2.456c0,-0.245 0.945,-1.441 2.008,-2.653c1.158,-1.32 2.008,-3.054 2.126,-4.318c0,-1.162 0.567,-2.71 1.016,-3.441c0.85,-1.372 3.654,-1.861 3.654,-0.638c0,0.381 0.709,1.526 1.559,2.548c0.851,1.021 1.559,2.237 1.559,2.702c0,0.466 0.473,1.321 1.063,1.904c0.756,0.756 1.276,3.105 1.843,8.212c0.85,7.814 1.748,9.926 4.677,11.035c1.937,0.728 2.126,1.472 1.252,4.534c-0.59,2.1 0,5.455 2.884,14.625c2.575,8.354 6.329,13.261 9.04,11.81c0.686,-0.363 1.394,-0.512 1.56,-0.33c0.236,0.189 0.968,2.746 1.771,5.697c1.559,5.84 3.732,9.326 6.201,9.946c1.039,0.262 1.724,0.975 1.984,2.104c0.236,0.941 0.662,2.02 0.945,2.399c0.307,0.377 0.709,2.488 0.921,4.687c0.284,2.886 0.78,4.433 1.796,5.561c1.299,1.439 1.37,1.888 0.874,5.625c-1.418,10.811 3.047,26.044 7.904,26.968c1.11,0.213 1.275,1.082 1.842,9.457c0.591,8.857 0.685,9.28 2.268,10.619c1.441,1.209 1.748,2.135 2.338,7.019c0.827,7.012 1.867,12.741 2.58,14.375c0.307,0.687 0.732,1.887 0.945,2.667c0.236,0.789 1.275,1.785 2.383,2.246c3.522,1.472 3.874,2.377 2.665,6.845c-0.827,3.02 -0.898,4.322 -0.402,5.682c0.52,1.384 0.402,2.789 -0.59,6.536c-2.339,8.859 -3.092,13.653 -2.525,15.832c0.307,1.137 0.732,3.851 0.968,6.033c0.402,3.717 0.567,4.02 2.44,4.808c3.614,1.509 3.749,2.121 1.654,7.575c-2.974,7.739 -3.9,12.572 -3.166,16.536c0.544,2.881 0.426,3.861 -0.685,6.803c-0.708,1.889 -1.748,5.475 -2.267,7.967c-0.898,4.266 -0.898,4.631 0.236,6.25c0.638,0.945 1.039,2.001 0.921,2.343c0,0.343 -0.709,3.016 -1.323,5.938c-0.614,2.922 -1.582,6.859 -2.149,8.75c-1.134,3.718 -1.914,7.657 -2.577,13.233c-0.402,3.297 -0.308,3.653 1.228,5.072c0.898,0.838 1.653,1.958 1.653,2.486c0,0.53 -2.267,5.474 -5.031,10.99c-5.183,10.336 -6.477,14.542 -6.515,21.161c-0,2.43 0.26,3.463 1.11,4.079c0.992,0.727 1.04,1.19 0.473,3.933c-0.378,1.71 -1.063,4.093 -1.559,5.296c-0.496,1.202 -1.063,3.485 -1.276,5.071c-0.236,1.847 -1.276,4.284 -2.913,6.785c-4.578,7.046 -9.817,18.193 -11.102,23.624c-0.85,3.609 -1.819,5.914 -3.187,7.644c-1.086,1.363 -2.667,3.803 -3.526,5.424c-0.851,1.621 -2.197,3.702 -2.981,4.625c-2.008,2.401 -5.991,13.407 -5.991,16.602c-0,1.635 -4.625,11.143 -6.95,14.287c-2.544,3.441 -8.676,13.026 -8.676,13.561c0,0.645 -12.905,26.65 -14.672,29.564c-6.895,11.37 -10.679,19.142 -13.849,28.438c-1.583,4.64 -3.085,8.578 -3.336,8.75c-0.26,0.165 -0.614,1.488 -0.803,2.924c-0.236,1.437 -0.897,3.202 -1.559,3.923c-0.661,0.72 -1.583,2.498 -2.031,3.95c-0.449,1.453 -1.3,3.765 -1.89,5.14c-0.591,1.375 -1.417,4.61 -1.819,7.188c-0.402,2.578 -1.134,7.078 -1.606,10c-0.473,2.922 -1.158,7.281 -1.536,9.687c-0.378,2.407 -0.945,6.063 -1.299,8.125c-0.354,2.062 -1.063,7.266 -1.559,11.563c-2.362,19.849 -2.443,22.32 -0.685,19.953c0.401,-0.541 1.228,-1.254 1.819,-1.585c3.418,-1.889 15.716,-14.071 16.767,-16.61c0.401,-0.966 0.968,-1.758 1.275,-1.758c0.307,0 0.544,-0.328 0.544,-0.729c-0,-0.402 0.425,-1.174 0.945,-1.72c3.146,-3.314 12.007,-16.636 13.081,-19.664c0.378,-1.073 1.158,-2.654 1.725,-3.514c0.567,-0.859 1.512,-2.687 2.102,-4.062c2.008,-4.671 2.677,-6.247 3.692,-8.75c0.567,-1.375 1.276,-2.989 1.607,-3.585c0.33,-0.598 0.59,-1.467 0.59,-1.935c0,-0.468 0.567,-1.358 1.252,-1.98c0.685,-0.621 1.252,-1.8 1.252,-2.616c0,-0.817 0.425,-1.646 0.945,-1.845c0.52,-0.189 0.945,-0.633 0.945,-0.964c-0,-0.982 5.09,-9.261 5.695,-9.261c0.307,0 0.543,-0.668 0.543,-1.486c0,-0.817 0.426,-1.835 0.945,-2.263c0.52,-0.427 0.945,-1.1 0.945,-1.497c0,-0.395 1.016,-2.259 2.268,-4.143c1.252,-1.882 2.764,-4.708 3.385,-6.278c2.102,-5.332 6.052,-12.437 8.398,-15.108c3.481,-3.971 9.711,-13.137 9.711,-14.294c-0,-0.558 0.519,-1.682 1.157,-2.502c1.299,-1.685 5.717,-9.858 5.717,-10.603c-0,-0.267 1.204,-2.24 2.655,-4.382c1.464,-2.143 3.501,-5.378 4.53,-7.19c2.339,-4.102 5.015,-7.128 6.31,-7.128c1.275,-0 8.641,-7.065 10.403,-9.967c0.732,-1.222 1.512,-2.36 1.724,-2.533c0.237,-0.166 1.607,-2.563 3.078,-5.313c1.489,-2.75 3.085,-5.442 3.556,-5.982c0.472,-0.541 1.818,-2.966 3,-5.391c1.96,-4.008 2.362,-4.447 4.414,-4.834c1.725,-0.321 3.402,-1.573 6.922,-5.139c2.558,-2.592 4.651,-4.939 4.651,-5.215c-0,-0.276 0.921,-1.894 2.031,-3.598c1.111,-1.703 3.123,-4.882 4.458,-7.063l2.424,-3.966l1.11,1.375c0.614,0.756 1.417,1.375 1.795,1.375c1.512,-0 8.641,-5.526 13.644,-10.582c4.406,-4.45 10.148,-11.725 12.187,-15.439c0.26,-0.47 0.756,-1.347 1.086,-1.949c0.355,-0.602 0.898,-1.71 1.229,-2.466c0.378,-0.874 1.37,-1.519 2.728,-1.774c2.079,-0.393 6.798,-4.618 9.387,-8.417c0.591,-0.86 2.056,-3.039 3.258,-4.844c1.205,-1.805 2.464,-3.281 2.797,-3.281c0.331,-0 1.181,0.562 1.866,1.249c1.653,1.647 1.937,1.602 5.131,-0.782c1.488,-1.117 3.772,-2.567 5.048,-3.223c1.275,-0.657 2.315,-1.422 2.315,-1.703c-0,-0.281 0.921,-0.976 2.031,-1.543c1.11,-0.567 3.77,-2.614 5.896,-4.547c2.126,-1.932 4.798,-4.281 5.936,-5.217c1.134,-0.935 3.005,-2.523 4.144,-3.527l2.078,-1.826l1.489,1.495c0.826,0.822 1.842,1.495 2.244,1.495c1.063,0 7.972,-3.935 14.931,-8.504c3.267,-2.145 7.625,-5.004 9.688,-6.354c3.163,-2.07 3.978,-2.355 5.192,-1.812c2.832,1.264 11.466,-2.921 17.667,-8.563c2.707,-2.465 3.437,-2.856 3.978,-2.135c0.354,0.486 1.157,1.072 1.771,1.304c1.37,0.51 7.129,-1.389 13.881,-4.566c9.38,-4.413 10.627,-4.955 14.343,-6.233c2.031,-0.704 4.294,-1.651 4.998,-2.11c0.709,-0.456 2.055,-1.02 3.003,-1.254c0.945,-0.236 1.724,-0.699 1.724,-1.037c0,-1.214 1.795,-0.579 2.986,1.056c1.205,1.642 1.252,1.656 4.271,0.841c1.677,-0.456 7.557,-2.303 13.056,-4.109c5.499,-1.804 10.212,-3.15 10.469,-2.991c0.26,0.166 0.472,0.959 0.472,1.779c0,0.82 0.237,1.625 0.497,1.791c0.755,0.463 8.681,-1.34 10.863,-2.468c1.063,-0.551 3.336,-1.418 5.051,-1.925c4.424,-1.314 11.813,-4.922 14.574,-7.116c1.3,-1.028 3.832,-2.299 5.641,-2.825c1.819,-0.526 4.014,-1.523 4.895,-2.215c1.653,-1.309 2.244,-1.198 4.55,0.869c1.37,1.233 1.393,1.233 3.517,-0.024c1.181,-0.694 3.019,-1.455 4.094,-1.691c1.063,-0.236 1.96,-0.666 1.96,-0.957c0,-0.29 1.016,-0.86 2.244,-1.266c1.229,-0.406 3.411,-1.41 4.843,-2.227c1.441,-0.82 3.201,-1.493 3.931,-1.498c0.732,-0.005 2.763,-1.153 4.521,-2.554c2.593,-2.064 3.938,-2.653 7.112,-3.112c4.774,-0.69 12.355,-0.766 12.35,-0.118c-0.009,1.15 -2.539,4.087 -6.848,7.949c-2.565,2.3 -5.558,5.494 -6.652,7.1c-1.087,1.606 -2.591,3.279 -3.324,3.718c-0.732,0.439 -2.338,2.362 -3.559,4.275c-1.229,1.913 -4.106,5.49 -6.407,7.951c-3.888,4.16 -7.686,8.992 -10.256,13.047c-1.937,3.042 -1.063,7.991 1.393,7.991c2.988,-0 3.154,0.48 1.583,4.58c-0.803,2.122 -2.339,5.545 -3.383,7.607c-1.063,2.063 -1.913,4.066 -1.937,4.452c0,2.698 -3.723,11.178 -7.509,17.241c-2.424,3.882 -4.708,8.182 -5.077,9.557c-0.378,1.375 -0.968,2.876 -1.346,3.334c-0.378,0.459 -0.685,2.202 -0.685,3.872c-0,2.457 0.331,3.355 1.677,4.703l1.677,1.665l-2.102,2.041c-1.158,1.122 -3.109,3.553 -4.342,5.401c-3.281,4.916 -4.249,6.285 -5.846,8.256c-0.78,0.976 -1.772,3.071 -2.15,4.659c-0.567,2.199 -1.772,4.017 -5.152,7.634c-2.433,2.61 -4.84,5.576 -5.346,6.591c-0.496,1.015 -1.842,2.9 -2.969,4.19c-1.134,1.289 -2.055,2.757 -2.055,3.259c0,0.503 -0.85,1.876 -1.866,3.05c-2.032,2.319 -2.421,4.801 -0.945,6.033c1.394,1.157 1.134,2.455 -0.614,3.124c-0.851,0.326 -3.038,1.734 -4.843,3.125c-6.293,4.852 -9.238,7.03 -12.971,9.589c-2.832,1.942 -3.819,3.113 -6.141,7.287c-1.488,2.678 -1.772,3.689 -1.276,4.576c0.827,1.448 -0.732,3.334 -3.841,4.646c-1.819,0.768 -5.357,3.006 -8.423,5.324c-0.355,0.267 -3.171,2.341 -6.265,4.613c-3.095,2.27 -7.665,6.061 -10.158,8.422c-2.494,2.363 -4.809,4.294 -5.144,4.294c-0.331,-0 -2.103,1.483 -3.903,3.298c-1.819,1.814 -4.067,3.789 -5.015,4.389c-1.323,0.834 -1.724,1.583 -1.724,3.18c-0,2.616 -1.772,4.93 -4.831,6.279c-1.299,0.572 -3.059,1.446 -3.919,1.939c-0.85,0.494 -2.031,0.9 -2.622,0.907c-1.393,0.012 -10.023,4.494 -12.916,6.708c-2.396,1.833 -5.207,3.072 -8.837,3.895c-2.174,0.492 -10.437,3.96 -14.063,5.897c-1.039,0.551 -2.508,1.004 -3.285,1.006c-0.78,0.002 -2.578,0.848 -4,1.878c-1.417,1.03 -2.969,1.876 -3.432,1.876c-0.472,-0 -0.85,0.239 -0.85,0.529c-0,0.825 -2.776,3.847 -3.529,3.847c-0.378,0 -1.37,0.546 -2.221,1.212c-0.85,0.666 -2.362,1.415 -3.345,1.665c-0.992,0.248 -2.102,0.683 -2.452,0.962c-4.226,3.331 -7.285,5.921 -9.12,7.725c-1.229,1.203 -2.492,2.188 -2.816,2.188c-0.331,-0 -1.394,0.843 -2.362,1.875c-0.969,1.033 -2.268,1.876 -2.882,1.876c-0.614,-0 -1.772,0.51 -2.603,1.134c-1.795,1.37 -7.585,3.866 -8.958,3.866c-0.543,-0 -1.535,0.281 -2.22,0.626c-0.685,0.342 -1.795,0.907 -2.492,1.249c-0.685,0.343 -1.748,0.872 -2.339,1.177c-3.368,1.696 -6.954,3.199 -7.627,3.199c-0.426,0 -1.489,0.562 -2.363,1.25c-0.874,0.687 -2.102,1.249 -2.718,1.249c-0.615,0 -1.489,0.52 -1.937,1.155c-0.449,0.636 -2.079,1.725 -3.629,2.417c-1.535,0.695 -3.491,1.864 -4.32,2.6c-0.827,0.737 -2.658,1.665 -4.063,2.067c-1.394,0.399 -2.977,1.058 -3.492,1.46c-2.291,1.795 -8.095,4.677 -9.411,4.677c-0.803,-0 -2.055,0.574 -2.804,1.275c-0.756,0.702 -2.444,1.451 -3.777,1.668c-1.323,0.212 -3.678,1.19 -5.213,2.164c-1.536,0.973 -3.137,1.769 -3.56,1.769c-0.425,-0 -1.134,0.352 -1.606,0.782c-0.449,0.43 -3.322,2.048 -6.366,3.594c-7.016,3.564 -9.161,4.765 -9.985,5.59c-0.355,0.364 -1.087,0.669 -1.63,0.68c-0.544,0.012 -2.103,0.565 -3.47,1.229c-1.371,0.664 -2.84,1.216 -3.253,1.228c-0.921,0.024 -5.1,2.813 -6.052,4.039c-0.378,0.491 -1.866,1.195 -3.279,1.566c-1.417,0.371 -2.917,1.077 -3.324,1.569c-0.401,0.491 -1.559,1.074 -2.577,1.296c-1.015,0.213 -2.126,0.943 -2.48,1.602c-0.425,0.782 -1.299,1.2 -2.551,1.2c-1.063,0 -2.592,0.536 -3.423,1.191c-0.85,0.675 -2.055,1.048 -2.757,0.864c-0.874,-0.236 -1.252,-0.012 -1.252,0.702c0,0.642 -0.708,1.167 -1.889,1.403c-1.04,0.212 -2.032,0.621 -2.221,0.921c-0.236,0.3 -0.874,0.543 -1.512,0.543c-0.661,0 -2.22,0.704 -3.486,1.562c-1.276,0.86 -2.809,1.561 -3.43,1.561c-0.614,0 -1.3,0.281 -1.512,0.626c-0.236,0.343 -0.921,0.626 -1.606,0.626c-0.662,0 -1.205,0.428 -1.205,0.952c-0,1.037 -2.865,2.405 -3.813,1.819c-0.33,-0.189 -1.535,0.213 -2.678,0.933c-1.158,0.711 -2.8,1.295 -3.662,1.295c-0.85,-0 -1.913,0.423 -2.338,0.937c-0.426,0.515 -1.182,0.938 -1.701,0.938c-0.496,0 -1.654,0.574 -2.54,1.274c-1.11,0.876 -2.149,1.159 -3.278,0.909c-1.087,-0.241 -1.937,-0.047 -2.462,0.6c-0.449,0.531 -1.323,0.966 -1.96,0.966c-0.638,0 -1.654,0.513 -2.268,1.139c-1.37,1.386 -5.752,3.046 -9.555,3.615c-1.536,0.236 -3.312,0.938 -3.919,1.571c-0.898,0.921 -1.677,1.072 -3.943,0.761c-2.315,-0.317 -3.172,-0.142 -4.651,0.952c-0.992,0.737 -2.126,1.339 -2.504,1.339c-0.378,-0 -1.677,0.756 -2.898,1.682c-1.984,1.516 -4.895,2.329 -10.212,2.851c-1.417,0.142 -1.606,0.503 -2.032,3.904c-0.85,6.875 -2.385,21.734 -3.604,34.688c-1.748,18.534 -4.075,41.482 -6.567,64.687c-2.648,24.636 -3.534,33.578 -4.332,43.75c-0.497,6.188 -1.04,12.375 -1.229,13.75c-0.236,1.375 -0.638,8.688 -0.992,16.25c-0.354,7.563 -0.898,18.109 -1.228,23.438c-1.063,17.257 -1.347,28.749 -0.709,28.749c0.331,0 0.78,-0.548 0.992,-1.218c0.236,-0.671 0.874,-1.373 1.441,-1.562c1.89,-0.612 16.132,-14.931 18.369,-18.47c5.055,-8.001 6.132,-9.83 6.132,-10.426c-0,-0.348 0.567,-1.139 1.252,-1.763c0.685,-0.621 1.252,-1.76 1.252,-2.53c-0,-0.77 0.425,-1.561 0.945,-1.757c0.519,-0.189 0.945,-1.016 0.945,-1.817c-0,-0.8 0.259,-1.724 0.567,-2.05c0.307,-0.326 1.748,-4.109 3.158,-8.406c1.417,-4.297 2.806,-8.375 3.08,-9.063c1.04,-2.594 2.055,-5.697 2.565,-7.732c0.284,-1.16 0.827,-2.411 1.205,-2.782c0.378,-0.371 0.685,-1.091 0.685,-1.601c0,-0.51 0.591,-2.211 1.323,-3.781c3.461,-7.465 5.766,-12.312 6.258,-13.166c0.307,-0.515 1.393,-2.626 2.442,-4.688c1.039,-2.062 2.126,-4.172 2.398,-4.688c3.689,-7.008 7.578,-14.843 7.578,-15.274c-0,-0.236 0.685,-1.887 1.511,-3.671c0.827,-1.784 1.678,-3.74 1.867,-4.348c0.236,-0.607 1.346,-1.691 2.556,-2.405c1.204,-0.716 2.196,-1.531 2.196,-1.812c0,-0.281 1.04,-1.68 2.339,-3.104c3.69,-4.112 11.648,-15.263 13.833,-19.385c0.827,-1.548 1.843,-3.235 2.291,-3.75c1.134,-1.326 2.852,-5.661 2.483,-6.256c-0.236,-0.274 0.685,-1.077 1.89,-1.788c1.205,-0.709 2.197,-1.651 2.197,-2.093c0.009,-0.442 0.85,-1.623 1.866,-2.625c1.016,-1.002 1.866,-2.294 1.866,-2.872c-0,-0.576 0.567,-1.559 1.252,-2.18c0.685,-0.621 1.252,-1.467 1.252,-1.878c-0,-0.411 0.85,-1.911 1.866,-3.335c1.039,-1.425 1.866,-2.898 1.866,-3.277c0,-0.378 0.567,-1.403 1.252,-2.277c0.685,-0.874 1.252,-2.001 1.252,-2.502c0,-0.503 0.402,-1.658 0.874,-2.572c0.496,-0.912 2.079,-4.137 3.56,-7.166c1.465,-3.029 2.903,-5.647 3.179,-5.818c0.284,-0.166 0.497,-0.985 0.497,-1.81c-0,-2.282 2.681,-5.913 3.874,-5.246c0.708,0.402 1.937,-0.397 4.809,-3.118c2.518,-2.397 4.365,-3.658 5.36,-3.658c0.874,0 3.118,-1.285 5.317,-3.047c10.056,-8.054 12.704,-10.307 13.89,-11.813c1.087,-1.394 1.606,-1.573 3.548,-1.247c2.055,0.347 2.504,0.141 4.736,-2.145c1.37,-1.392 2.771,-2.529 3.142,-2.529c0.803,0 10.84,-9.932 11.731,-11.619c0.945,-1.802 4.996,-5.881 5.832,-5.881c0.402,0 1.157,0.633 1.677,1.406c0.898,1.346 0.992,1.36 2.15,0.311c0.661,-0.602 1.417,-1.093 1.677,-1.093c1.677,-0 8.898,-4.406 15.784,-9.644c2.639,-2.005 7.72,-8.048 7.72,-9.178c-0,-0.456 0.685,-0.574 1.89,-0.331c1.724,0.345 2.267,-0.023 6.184,-4.143c2.362,-2.486 6.371,-7.613 8.91,-11.393c8.589,-12.786 9.265,-13.561 10.028,-11.512c0.567,1.552 2.402,1.531 4.41,-0.047c0.874,-0.688 1.89,-1.25 2.268,-1.25c0.378,0 0.685,-0.276 0.685,-0.612c-0,-0.337 1.133,-1.185 2.499,-1.887c1.37,-0.702 2.501,-1.502 2.501,-1.783c0,-0.709 5.913,-4.468 7.028,-4.468c0.496,0 1.606,-0.633 2.461,-1.405c0.851,-0.775 3.636,-2.507 6.185,-3.851c5.057,-2.665 4.984,-2.611 9.897,-7.205c1.866,-1.741 3.572,-3.163 3.806,-3.163c0.236,-0 0.756,0.704 1.134,1.561c0.921,2.027 1.653,1.958 5.364,-0.479c4.729,-3.115 4.899,-3.222 7.562,-4.715c1.37,-0.773 3.342,-1.949 4.374,-2.617c1.04,-0.669 2.989,-1.822 4.349,-2.561c1.37,-0.742 3.891,-2.325 5.625,-3.521l3.151,-2.173l0.945,2.244c0.519,1.233 1.252,2.366 1.653,2.516c0.378,0.141 2.079,-0.166 3.751,-0.685c1.678,-0.527 4.03,-1.243 5.235,-1.59c2.797,-0.81 8.518,-3.473 9.532,-4.438c0.425,-0.409 1.488,-1.094 2.338,-1.526c0.851,-0.43 3.109,-1.765 5.001,-2.965c4.918,-3.123 7.188,-4.011 12.005,-4.694c2.338,-0.333 4.854,-0.957 5.582,-1.386c1.063,-0.626 1.393,-0.626 1.606,-0.002c0.685,1.878 8.055,0.244 15.803,-3.5c2.58,-1.244 5.109,-2.579 5.627,-2.963c0.519,-0.385 2.482,-1.222 4.375,-1.859c1.889,-0.638 4.183,-1.663 5.095,-2.278c2.362,-1.587 3.557,-1.393 4.776,0.775c0.874,1.559 1.347,1.824 2.627,1.503c1.583,-0.397 3.257,-0.669 15,-2.428c7.157,-1.072 11.006,-2.258 12.865,-3.968c2.102,-1.923 5.671,-3.875 7.103,-3.875c0.756,-0 3.751,-0.836 6.642,-1.857l5.261,-1.856l1.016,1.568c1.724,2.631 2.643,2.752 8.352,1.103c4.753,-1.372 10.099,-4.087 12.388,-6.289c0.449,-0.437 1.039,-0.794 1.323,-0.794c0.283,0 1.441,-0.822 2.586,-1.826l2.103,-1.826l2.031,1.784l2.032,1.785l6.118,-3.166c3.363,-1.741 7.452,-3.847 9.085,-4.679c2.846,-1.451 8.775,-2.891 11.407,-2.77c0.685,0.024 1.748,0.071 2.338,0.095c3.222,0.142 0.851,4.457 -5.903,10.696c-15.886,14.7 -17.197,16.098 -15.581,16.637c1.63,0.543 0.52,2.631 -2.695,5.059c-1.866,1.417 -3.588,2.575 -3.803,2.575c-1.181,-0 -7.453,7.492 -8.823,10.535c-3.333,7.403 -3.293,10.276 0.236,11.723c1.559,0.654 1.984,1.134 1.677,1.961c-0.567,1.545 -3.63,7.202 -5.489,10.146c-0.875,1.368 -1.56,2.739 -1.56,3.05c0,0.312 -0.685,1.014 -1.511,1.559c-0.827,0.546 -1.678,1.493 -1.866,2.103c-0.237,0.612 -1.205,1.59 -2.245,2.175c-1.039,0.586 -1.866,1.529 -1.866,2.098c0,0.569 -0.708,1.868 -1.559,2.89c-0.85,1.02 -1.559,2.305 -1.559,2.853c0,0.548 -0.401,1.441 -0.897,1.984c-0.497,0.544 -1.087,1.737 -1.3,2.654c-0.33,1.307 -0.236,1.819 0.898,2.366c1.535,0.817 1.701,2.669 0.378,3.78c-0.52,0.427 -0.945,1.157 -0.945,1.62c0,0.796 -1.37,3.907 -3.555,8.068c-2.53,4.815 -4.096,7.651 -5.178,9.375c-1.535,2.455 -1.535,3.142 -0,4.621l1.323,1.233l-2.88,3.337c-3.295,3.817 -8.435,8.429 -13.712,12.304c-5.436,3.991 -15.296,13.876 -15.759,15.798c-0.307,1.304 0,1.821 0.922,2.375c1.299,0.692 1.299,0.753 0.236,2.708c-0.614,1.1 -2.032,3.172 -3.142,4.605c-1.11,1.434 -2.031,2.764 -2.031,2.957c-0,0.189 -0.992,1.366 -2.197,2.605c-1.205,1.238 -2.197,2.527 -2.197,2.862c-0,0.336 -3.416,3.932 -7.587,7.992l-7.588,7.382l0.307,3.192c0.307,3.246 -0.614,5.092 -2.575,5.092c-1.015,0 -11.159,4.928 -15.994,7.767c-2.055,1.212 -4.441,2.505 -5.284,2.876c-0.851,0.37 -2.885,1.644 -4.533,2.828c-1.654,1.186 -3.163,2.154 -3.362,2.154c-0.236,0 -1.559,0.985 -3.031,2.188c-1.464,1.202 -2.848,2.187 -3.066,2.187c-0.236,-0 -1.819,1.337 -3.531,2.969c-1.725,1.632 -4.245,3.901 -5.599,5.041c-1.559,1.306 -2.338,2.415 -2.102,3c0.449,1.169 -2.15,3.99 -3.661,3.99c-0.638,-0 -1.158,0.213 -1.158,0.468c-0.009,0.257 -1.842,1.594 -4.089,2.969c-2.244,1.374 -5.395,3.362 -7.013,4.417c-1.63,1.054 -3.364,2.124 -3.881,2.374c-4.892,2.38 -6.092,3.546 -8.126,7.896c-0.237,0.515 -1.016,1.023 -1.725,1.129c-0.708,0.095 -1.771,0.737 -2.376,1.406c-0.614,0.668 -1.417,1.214 -1.819,1.214c-1.89,-0 -7.519,3.46 -11.15,6.855c-2.22,2.074 -4.337,3.77 -4.71,3.77c-0.378,-0 -0.992,0.562 -1.346,1.249c-0.378,0.688 -1.229,1.25 -1.914,1.25c-0.685,-0 -1.417,0.437 -1.63,0.971c-0.236,0.534 -1.677,1.552 -3.262,2.26c-5.785,2.581 -6.834,3.018 -7.238,3.018c-0.236,0 -1.441,0.827 -2.716,1.836c-1.276,1.008 -3.151,2.041 -4.184,2.293c-3.363,0.82 -9.687,5.507 -9.687,7.178c0,1.888 -5.49,6.403 -11.249,9.254c-2.244,1.106 -5.187,2.675 -6.564,3.487c-1.37,0.813 -2.953,1.5 -3.508,1.526c-0.567,0.024 -1.701,0.593 -2.542,1.257c-0.85,0.664 -3.765,2.37 -6.491,3.793c-2.726,1.422 -5.27,2.99 -5.653,3.482c-0.378,0.491 -0.945,0.895 -1.252,0.895c-1.087,-0 -9.992,4.628 -12.213,6.355c-1.252,0.973 -2.541,1.77 -2.863,1.77c-0.33,-0 -2.267,1.523 -4.327,3.386c-2.622,2.372 -6.444,4.742 -12.763,7.912c-4.961,2.49 -9.442,4.87 -9.957,5.29c-0.52,0.42 -1.63,0.973 -2.466,1.23c-0.85,0.258 -2.809,1.243 -4.375,2.192c-1.559,0.948 -3.55,1.938 -4.41,2.197c-0.85,0.26 -2.686,1.193 -4.063,2.072c-1.37,0.879 -4.318,2.538 -6.543,3.688c-2.221,1.15 -4.526,2.524 -5.115,3.056c-1.322,1.2 -3.725,2.527 -10.528,5.821c-2.922,1.415 -6.016,2.953 -6.876,3.416c-0.851,0.466 -2.481,1.04 -3.603,1.281c-1.133,0.241 -3.536,1.235 -5.367,2.213c-1.842,0.978 -4.429,1.98 -5.773,2.23c-1.346,0.251 -3.007,0.813 -3.694,1.25c-0.685,0.437 -2.965,1.367 -5.062,2.067c-2.103,0.699 -4.628,1.691 -5.625,2.204c-3.81,1.958 -7.559,3.493 -8.537,3.493c-0.567,-0 -1.181,0.281 -1.394,0.626c-0.236,0.342 -0.944,0.626 -1.63,0.626c-0.685,-0 -2.338,0.562 -3.687,1.249c-1.346,0.688 -3.052,1.25 -3.787,1.25c-0.732,0 -2.22,0.376 -3.307,0.834c-3.311,1.403 -6.186,2.393 -9.781,3.366c-1.89,0.513 -3.719,1.146 -4.061,1.408c-0.354,0.263 -1.725,0.676 -3.062,0.917c-1.346,0.241 -3.026,0.822 -3.748,1.292c-0.733,0.468 -3.473,1.571 -6.107,2.452c-2.634,0.881 -6.9,2.445 -9.479,3.478c-2.577,1.032 -5.381,1.878 -6.227,1.878c-0.85,-0 -1.89,0.423 -2.315,0.938c-0.425,0.515 -1.205,0.937 -1.701,0.937c-0.496,0 -1.677,0.39 -2.579,0.87c-6.092,3.188 -14.707,7.256 -15.366,7.256c-0.426,0 -1.3,0.563 -1.914,1.25c-0.614,0.687 -1.771,1.25 -2.553,1.25c-2.379,-0 -8.684,3.692 -9.447,5.531c-0.378,0.912 -0.85,4.609 -1.063,8.219c-0.661,11.32 -0.449,97.053 0.236,104.233c0.355,3.687 0.922,23.157 1.252,43.267c0.709,43.979 2.197,94.71 3.225,110.782c0.874,13.717 -0.236,13.363 8.87,2.927c4.736,-5.454 8.402,-11.406 9.789,-15.897c0.425,-1.375 1.275,-3.625 1.866,-5c1.181,-2.647 2.291,-6.726 3.248,-11.875c0.331,-1.719 1.087,-4.672 1.724,-6.562c0.615,-1.89 1.489,-4.703 1.914,-6.25c0.425,-1.548 1.464,-4.647 2.268,-6.889c0.803,-2.241 1.488,-4.294 1.488,-4.561c-0,-0.267 1.275,-3.176 2.813,-6.464c1.536,-3.288 2.811,-6.24 2.811,-6.561c0,-0.321 0.709,-1.904 1.559,-3.518c0.851,-1.613 1.559,-3.5 1.583,-4.19c-0,-1.698 2.15,-7.734 3.024,-8.611c0.401,-0.387 0.708,-1.082 0.708,-1.54c0,-1.099 2.922,-6.843 3.74,-7.347c0.354,-0.213 0.637,-0.789 0.637,-1.271c0,-0.482 0.992,-2.951 2.197,-5.485c1.205,-2.535 2.197,-4.963 2.197,-5.396c0,-0.433 0.402,-1.536 0.874,-2.447c1.228,-2.32 3.397,-8.343 6.144,-16.971c0.709,-2.235 1.961,-5.547 2.764,-7.361c0.803,-1.815 1.465,-3.8 1.465,-4.413c-0,-0.612 0.992,-3.112 2.196,-5.554c1.205,-2.442 2.197,-4.776 2.197,-5.185c0,-0.411 0.851,-1.81 1.866,-3.112c1.04,-1.302 1.867,-2.644 1.867,-2.983c-0,-0.338 0.425,-0.959 0.921,-1.379c1.866,-1.557 7.828,-11.304 7.828,-12.82c0,-0.961 0.354,-1.568 0.921,-1.568c1.441,-0 5.086,-3.526 6.303,-6.098c0.614,-1.287 1.889,-3.324 2.832,-4.527c0.945,-1.203 2.365,-3.454 3.146,-5c1.961,-3.859 7.517,-10.607 8.76,-10.617c0.566,-0.006 1.37,0.423 1.818,0.949c0.685,0.832 1.205,0.504 3.846,-2.467c1.677,-1.883 4.661,-4.407 6.626,-5.608c1.961,-1.2 5.251,-3.887 7.304,-5.97c2.055,-2.083 4.042,-3.787 4.422,-3.787c0.874,-0 3.347,-2.607 4.297,-4.508c0.401,-0.787 1.464,-1.786 2.367,-2.223c0.921,-0.437 2.338,-1.594 3.151,-2.571c0.827,-0.978 2.601,-2.13 3.952,-2.563c2.953,-0.945 4.368,-2.204 11.617,-10.322c3.071,-3.438 6.477,-7.187 7.571,-8.331l1.984,-2.081l1.134,1.412c1.134,1.396 1.158,1.401 3.14,0.274c1.11,-0.626 2.697,-1.738 3.557,-2.47c2.15,-1.833 5.485,-4.117 6.005,-4.117c0.236,-0 1.583,-0.94 2.993,-2.091c1.417,-1.15 3.182,-2.417 3.938,-2.817c1.441,-0.76 6.441,-4.755 8.692,-6.94c1.749,-1.689 2.651,-1.611 3.371,0.285c0.331,0.86 1.04,1.562 1.607,1.562c1.275,-0 11.078,-5.168 14.017,-7.386c1.205,-0.907 5.731,-5.102 10.063,-9.32c4.332,-4.218 8.239,-7.669 8.686,-7.669c1.016,-0 7.285,-4.125 7.949,-5.222c0.59,-0.978 7.422,-6.035 8.119,-6.011c0.283,0.009 1.204,0.987 2.055,2.171c0.85,1.183 1.771,2.161 2.031,2.171c0.26,0.009 1.795,-0.57 3.437,-1.283c6.288,-2.761 7.094,-3.074 7.906,-3.074c0.473,-0 1.205,-0.437 1.654,-0.974c0.449,-0.536 1.677,-1.346 2.733,-1.802c1.063,-0.456 4.08,-2.83 6.711,-5.276c2.634,-2.447 4.98,-4.449 5.216,-4.449c0.236,0 1.134,-0.562 2.008,-1.249c0.874,-0.688 2.518,-1.25 3.654,-1.25c1.134,0 2.244,-0.295 2.473,-0.659c0.402,-0.661 10.687,-7.466 11.277,-7.466c0.237,-0 1.182,-0.634 2.221,-1.406c2.055,-1.509 2.055,-1.507 3.985,1.713c0.567,0.94 0.968,0.855 4.283,-0.884c2.007,-1.058 4.157,-1.923 4.767,-1.923c0.614,0 1.464,-0.422 1.889,-0.937c0.425,-0.515 1.205,-0.938 1.725,-0.938c0.519,-0 2.489,-1.264 4.365,-2.808c1.866,-1.545 4.717,-3.204 6.314,-3.687c1.607,-0.484 3.747,-1.327 4.777,-1.875c1.039,-0.549 2.315,-1 2.856,-1.002c0.543,-0 2.626,-0.846 4.639,-1.876c3.399,-1.738 3.742,-1.8 4.781,-0.859c0.661,0.609 1.677,0.874 2.546,0.666c2.613,-0.631 8.861,-2.946 9.208,-3.413c0.355,-0.477 1.063,-0.833 10.321,-5.133c5.237,-2.435 5.653,-2.533 6.406,-1.502c0.449,0.607 0.803,1.611 0.803,2.232c0,1.771 1.961,1.379 7.314,-1.451c4.925,-2.607 12.63,-5.367 18.935,-6.781c1.89,-0.425 5.301,-1.328 7.58,-2.008c5.181,-1.547 7.035,-1.358 7.316,0.744c0,0.86 0.425,1.795 0.709,2.081c0.921,0.957 7.79,0.489 11.823,-0.803c2.196,-0.704 4.308,-1.278 4.7,-1.278c0.402,-0 2.197,-0.985 4.037,-2.187c1.819,-1.203 3.44,-2.188 3.586,-2.188c0.236,0 1.465,-0.543 2.915,-1.207c3.551,-1.618 8.355,-3.168 9.82,-3.168c0.661,0 1.346,-0.252 1.535,-0.562c0.237,-0.309 1.748,-0.9 3.477,-1.313c1.725,-0.414 3.286,-1.004 3.478,-1.314c0.236,-0.309 1.181,-0.562 2.173,-0.562c1.984,0 2.362,0.992 1.181,3.19c-0.803,1.479 -0.283,3.431 1.039,3.934c0.52,0.189 1.961,-0.048 3.178,-0.567c1.228,-0.513 2.881,-0.931 3.677,-0.931c0.804,0 1.607,-0.257 1.796,-0.569c0.236,-0.314 1.535,-0.751 3.004,-0.973c4.826,-0.73 10.758,-2.299 12.204,-3.223c1.771,-1.129 2.371,-0.784 2.851,1.609l0.378,1.868l5.175,-0.342c2.847,-0.189 5.818,-0.657 6.603,-1.037c1.063,-0.515 1.96,-0.501 3.482,0.047c1.133,0.409 2.737,0.744 3.571,0.744c0.827,-0 2.44,0.565 3.565,1.25c1.134,0.687 2.551,1.247 3.17,1.247c0.614,-0 1.772,0.751 2.57,1.668c1.701,1.967 1.087,3.691 -1.299,3.57c-0.803,-0.048 -1.701,0.29 -1.961,0.739c-0.543,0.912 -3.994,2.773 -5.159,2.773c-0.425,0 -1.464,0.563 -2.339,1.25c-0.874,0.687 -1.96,1.25 -2.435,1.25c-1.157,-0 -4.061,2.783 -5.218,5.02c-0.52,1.02 -1.228,1.854 -1.559,1.854c-0.331,0 -0.614,0.423 -0.614,0.938c-0,0.515 -0.402,0.938 -0.874,0.938c-0.473,-0 -1.772,1.405 -2.875,3.122l-2.008,3.122l2.598,4.37l-4.195,4.283c-2.315,2.355 -5.967,5.361 -8.135,6.679c-3.808,2.315 -4.994,3.469 -8.913,8.667c-2.149,2.868 -2.412,5.349 -0.59,5.827c1.653,0.434 1.606,0.732 -0.945,5.451c-1.205,2.227 -2.197,4.497 -2.197,5.041c-0,1.034 -4.852,5.9 -5.939,5.955c-0.756,0.047 -3.852,4.306 -5.704,7.849c-0.945,1.798 -1.158,2.862 -0.756,3.594c0.33,0.572 0.354,1.413 -0,1.866c-0.709,1.181 -5.552,5.424 -6.185,5.424c-0.968,-0 -7.752,7.135 -7.752,8.164c-0,0.56 -0.567,1.526 -1.252,2.148c-0.78,0.708 -1.252,1.925 -1.252,3.253c-0,1.654 -0.52,2.599 -2.339,4.275c-1.299,1.184 -2.627,2.155 -2.969,2.157c-0.78,0.006 -4.162,3.18 -10.937,10.302c-6.839,7.187 -8.24,9.45 -7.675,12.399c0.26,1.408 0.803,1.821 3.201,2.421c1.582,0.4 2.534,0.839 2.102,0.981c-0.425,0.141 -0.756,0.583 -0.756,0.985c0,0.401 -2.39,3.385 -5.312,6.631c-4.663,5.183 -5.311,6.187 -5.311,8.237c0,2.647 -1.086,4.002 -4.377,5.484c-3.569,1.606 -8.792,5.092 -12.467,8.321c-1.867,1.647 -3.65,2.994 -3.95,2.994c-0.638,-0 -5.095,3.026 -7.271,4.933c-0.827,0.723 -1.748,1.316 -2.031,1.316c-0.284,0 -0.993,1.127 -1.536,2.505c-1.086,2.716 -6.023,7.545 -9.309,9.104c-1.134,0.533 -3.175,1.939 -4.557,3.119c-1.37,1.181 -2.745,2.149 -3.033,2.152c-0.591,0.006 -7.857,7.278 -8.343,8.357c-1.418,3.128 -4.652,7.264 -5.693,7.264c-0.662,-0 -1.37,0.404 -1.559,0.9c-0.237,0.494 -1.158,1.075 -2.126,1.29c-0.969,0.212 -2.126,0.793 -2.526,1.287c-0.401,0.494 -1.11,0.898 -1.559,0.898c-0.448,-0 -2.102,0.985 -3.678,2.187c-1.582,1.202 -3.044,2.187 -3.262,2.187c-1.37,0 -6.697,3.25 -9.706,5.917c-1.961,1.729 -5.256,4.652 -7.342,6.492c-2.079,1.84 -3.796,3.689 -3.796,4.109c0,0.421 -0.685,1.404 -1.512,2.185c-0.826,0.782 -1.819,2.167 -2.196,3.078c-0.378,0.912 -2.032,2.453 -3.643,3.425c-1.63,0.973 -3.914,2.378 -5.095,3.125c-1.181,0.746 -3.01,1.875 -4.063,2.509c-4.096,2.462 -7.814,6.976 -8.7,10.556c-0.307,1.233 -1.205,2.057 -3.189,2.968c-1.536,0.695 -3.196,1.262 -3.718,1.262c-0.804,-0 -5.171,1.419 -9.433,3.074c-1.204,0.463 -7.093,3.297 -9.063,4.354c-0.52,0.276 -1.63,0.867 -2.476,1.313c-0.85,0.447 -2.698,1.427 -4.113,2.18c-1.417,0.754 -5.017,3.104 -8,5.225c-2.984,2.121 -5.592,3.855 -5.797,3.855c-0.638,0 -7.113,6.814 -7.113,7.487c0,0.352 -0.307,0.638 -0.685,0.638c-0.378,-0 -1.512,0.701 -2.542,1.557c-1.015,0.857 -3.448,1.993 -5.402,2.527c-1.961,0.534 -4.042,1.24 -4.639,1.568c-0.591,0.329 -1.465,0.598 -1.914,0.598c-0.449,-0 -3.113,1.124 -5.919,2.5c-2.804,1.375 -5.658,2.5 -6.341,2.5c-0.685,0 -1.606,0.503 -2.055,1.12c-0.449,0.616 -2.504,1.92 -4.566,2.901c-2.055,0.98 -4.646,2.445 -5.74,3.255c-1.087,0.811 -2.268,1.474 -2.603,1.474c-0.331,0 -0.709,0.237 -0.827,0.506c-0.236,0.279 -1.866,1.446 -3.89,2.596c-2.032,1.15 -4.255,2.75 -4.956,3.557c-0.733,0.846 -1.961,1.467 -2.927,1.467c-1.134,-0 -2.197,0.68 -3.392,2.187c-0.969,1.203 -2.103,2.188 -2.523,2.188c-0.425,-0 -2.079,0.985 -3.647,2.189c-1.583,1.205 -3.518,2.47 -4.309,2.811c-1.346,0.584 -2.055,0.952 -4.722,2.512c-0.591,0.35 -1.937,1.058 -2.969,1.571c-1.04,0.515 -2.292,1.19 -2.811,1.505c-0.898,0.548 -5.481,2.588 -8.75,3.898c-0.85,0.345 -2.603,1.162 -3.874,1.819c-1.276,0.656 -2.941,1.192 -3.709,1.192c-0.779,0 -2.541,0.53 -3.94,1.174c-2.851,1.319 -3.392,1.534 -9.104,3.6c-2.244,0.808 -4.8,1.471 -5.704,1.474c-0.898,-0 -1.961,0.387 -2.363,0.857c-1.275,1.531 -16.141,6.287 -17.74,5.674c-0.59,-0.236 -1.583,0.142 -2.374,0.881c-0.874,0.808 -2.643,1.417 -4.878,1.672c-3.931,0.452 -7.575,1.545 -7.575,2.273c-0,0.264 -0.402,0.328 -0.874,0.142c-0.496,-0.189 -1.725,0.094 -2.781,0.644c-1.039,0.541 -2.969,0.985 -4.275,0.988c-1.323,-0 -3.211,0.557 -4.25,1.245c-1.039,0.682 -2.45,1.242 -3.149,1.245c-0.708,-0 -2.378,0.567 -3.725,1.254c-1.346,0.687 -3.073,1.25 -3.831,1.25c-0.756,-0 -2.174,0.396 -3.152,0.883c-3.982,1.989 -9.113,3.908 -12.706,4.754c-3.357,0.792 -8.105,2.501 -11.596,4.177c-1.748,0.834 -3.425,1.453 -3.751,1.375c-0.331,-0.071 -1.394,0.189 -2.362,0.583c-0.969,0.399 -2.712,0.725 -3.874,0.725c-1.158,0 -2.339,0.352 -2.618,0.782c-0.85,1.316 -4.443,3.594 -5.681,3.594c-0.638,-0 -1.512,0.633 -1.913,1.405c-0.662,1.245 -1.134,1.382 -4.207,1.191c-2.412,-0.142 -3.777,0.071 -4.512,0.706c-0.567,0.508 -1.984,1.399 -3.139,1.98c-1.654,0.843 -2.008,1.339 -1.748,2.435c0.236,0.758 0.779,8.542 1.299,17.299c0.519,8.756 1.228,18.03 1.559,20.609c0.33,2.578 0.779,7.781 0.968,11.562c0.236,3.781 0.638,8.984 0.969,11.563c0.33,2.578 1.039,11.015 1.582,18.75c0.544,7.734 1.371,19.124 1.843,25.312c1.89,24.876 3.463,48.136 4.032,59.688c0.331,6.703 0.898,17.39 1.252,23.75c0.355,6.359 0.921,20.422 1.276,31.25c0.354,10.828 0.779,21.024 0.968,22.659c0.237,1.634 0.756,14.29 1.3,28.125c0.519,13.834 1.11,29.02 1.299,33.747l0.354,8.594l3.515,-1.966c4.878,-2.729 9.846,-5.982 13.382,-8.758c3.468,-2.724 9.194,-9.361 9.194,-10.656c-0,-0.487 0.85,-1.694 1.866,-2.682c1.039,-0.988 1.866,-2.178 1.866,-2.642c-0,-0.466 0.52,-1.609 1.157,-2.54c1.111,-1.608 4.907,-8.148 7.897,-13.568c2.849,-5.165 6.681,-11.108 9.584,-14.866c1.653,-2.135 4.339,-6.064 5.974,-8.728c1.63,-2.664 3.165,-4.844 3.399,-4.845c0.236,0 1.417,-1.476 2.605,-3.281c1.205,-1.805 3.419,-4.687 4.93,-6.405c1.512,-1.72 3.343,-4.005 4.068,-5.081c1.795,-2.672 7.11,-9.756 9.69,-12.934c1.157,-1.436 2.759,-3.595 3.546,-4.798c0.779,-1.202 4.155,-5 7.485,-8.437c3.331,-3.438 6.881,-7.446 7.89,-8.906c1.087,-1.592 2.315,-2.657 3.052,-2.657c0.661,0 1.228,-0.257 1.228,-0.571c0,-0.314 1.371,-1.413 3.041,-2.442c1.677,-1.03 4.873,-3.585 7.112,-5.679c2.244,-2.095 4.354,-3.808 4.699,-3.808c0.354,0 1.606,-1.054 2.794,-2.343c2.197,-2.387 3.139,-3.109 6.359,-4.902c0.992,-0.558 3.577,-2.458 5.733,-4.227c10.316,-8.465 9.836,-8.21 15.513,-8.26c5.482,-0.047 7.079,-0.63 11.938,-4.36c2.868,-2.201 6.763,-4.276 9.123,-4.858c1.323,-0.326 1.748,-0.118 2.339,1.15c0.567,1.214 1.181,1.55 2.868,1.55c1.181,-0 2.95,-0.31 3.918,-0.69c1.937,-0.756 10.089,-2.812 14.641,-3.69c1.583,-0.304 4.68,-1.375 6.874,-2.377c2.197,-1.002 4.699,-2.034 5.556,-2.294c0.851,-0.26 2.032,-0.879 2.594,-1.375c0.709,-0.619 1.701,-0.775 3.198,-0.498c1.536,0.288 3.147,0.007 5.53,-0.962c4.753,-1.93 9.903,-4.443 10.248,-5.001c0.236,-0.26 1.275,-0.657 2.466,-0.881c1.204,-0.236 2.549,-0.749 3.004,-1.165c0.449,-0.415 1.701,-1.214 2.745,-1.769c1.748,-0.921 2.055,-0.923 3.518,-0.047c1.441,0.879 1.842,0.879 3.994,0.012c4.68,-1.881 9.156,-3.133 12.402,-3.468c2.962,-0.307 3.335,-0.212 3.713,0.99c0.449,1.427 2.268,1.687 9.713,1.394c3.53,-0.142 11.212,-2.152 13.439,-3.521c0.685,-0.423 2.102,-0.964 3.118,-1.205c1.016,-0.241 2.079,-0.765 2.362,-1.169c0.331,-0.496 1.04,-0.047 2.244,1.391c1.536,1.838 2.008,2.063 3.586,1.661c0.992,-0.255 4.207,-0.697 7.129,-0.985c2.922,-0.288 7.141,-1.117 9.376,-1.845l4.061,-1.323l1.275,1.59c0.733,0.905 1.914,1.59 2.769,1.59c0.827,-0 2.402,0.328 3.51,0.727c1.63,0.589 3.012,0.515 7.231,-0.389c2.87,-0.615 5.922,-1.472 6.779,-1.904c0.851,-0.433 4.094,-1.262 7.188,-1.843c3.095,-0.579 7.595,-1.479 10.002,-1.996c6.47,-1.396 7.406,-1.37 8.1,0.213c0.331,0.753 1.228,1.708 1.984,2.116c2.008,1.077 12.43,0.94 15.844,-0.212c1.535,-0.522 4.006,-1.146 5.463,-1.387c2.436,-0.402 2.7,-0.312 3.244,1.117c0.33,0.855 0.874,1.739 1.252,1.961c1.11,0.685 11.352,0.449 12.233,-0.281c0.591,-0.501 0.945,-0.494 1.276,0.023c0.236,0.39 1.039,0.539 1.772,0.331c0.732,-0.212 4.429,-0.647 8.211,-0.978c3.779,-0.331 7.932,-0.933 9.224,-1.342c2.641,-0.833 4.644,-0.165 7.151,2.423c0.803,0.817 2.126,1.415 3.155,1.415c0.969,0 2.079,0.305 2.457,0.676c1.016,1.02 11.521,0.871 14.688,-0.213c1.489,-0.505 3.683,-1.266 4.885,-1.689c2.544,-0.893 9.149,-2.389 12.959,-2.934c3.088,-0.442 6.206,0.63 6.742,2.319c0.709,2.228 3.969,3.209 12.333,3.71c8.372,0.501 9.844,1.016 9.844,3.44c-0,0.971 0.543,1.604 1.724,2.034c2.757,0.999 9.503,2.119 10.193,1.694c0.354,-0.213 3.786,-0.777 7.642,-1.247c3.855,-0.47 9.562,-1.196 12.682,-1.609c5.483,-0.728 5.773,-0.702 8.641,0.73c2.055,1.028 3.229,2.105 3.815,3.513c0.52,1.252 1.394,2.144 2.292,2.326c1.937,0.395 10.533,1.12 15.198,1.281c2.055,0.071 5.19,0.34 6.947,0.595c1.795,0.262 4.743,0.189 6.721,-0.189c3.122,-0.576 3.763,-0.508 5.671,0.619c1.63,0.968 2.438,1.117 3.352,0.628c0.945,-0.51 1.819,-0.245 4.219,1.271l3.019,1.913l-1.394,1.056c-0.85,0.65 -1.252,1.437 -1.015,2.041c0.283,0.721 -0.426,1.356 -2.627,2.38c-3.94,1.83 -5.925,3.691 -5.471,5.124c0.26,0.805 -0.236,1.479 -1.701,2.383c-1.134,0.695 -2.558,1.261 -3.158,1.264c-2.055,0.006 -15.702,7.754 -16.857,9.571c-0.779,1.226 -0.567,3.075 0.52,4.256c0.945,1.03 0.874,1.23 -0.78,2.783c-2.756,2.582 -6.323,4.666 -9.713,5.672c-1.701,0.503 -4.122,1.847 -5.391,2.985c-1.275,1.139 -2.87,2.244 -3.557,2.46c-1.866,0.584 -7.254,6.069 -7.087,7.216c0.237,1.611 -1.842,4.936 -3.373,5.391c-0.779,0.236 -2.398,1.169 -3.602,2.086c-1.205,0.916 -3.874,2.307 -5.936,3.093c-2.056,0.785 -4.453,1.826 -5.313,2.313c-0.85,0.487 -2.709,1.488 -4.108,2.225c-1.559,0.815 -2.811,2.044 -3.222,3.132c-0.378,1.012 -1.441,2.108 -2.454,2.517c-0.969,0.399 -2.665,1.108 -3.749,1.576c-1.087,0.467 -2.384,0.85 -2.891,0.85c-0.52,0 -1.276,0.423 -1.701,0.938c-0.425,0.515 -1.276,0.938 -1.89,0.938c-0.614,-0 -2.757,1.103 -4.776,2.453c-2.844,1.899 -3.938,3.094 -4.843,5.288c-0.638,1.559 -1.866,3.338 -2.738,3.953c-2.87,2.046 -7.92,6.552 -10.45,9.324c-1.37,1.507 -3.019,2.737 -3.652,2.735c-0.638,0 -1.299,0.525 -1.465,1.17c-0.307,1.162 -2.617,2.576 -4.211,2.576c-0.449,-0 -2.197,1.084 -3.877,2.407c-1.677,1.323 -3.895,2.803 -4.925,3.286c-1.299,0.609 -1.937,1.403 -2.079,2.586c-0.236,1.984 -2.22,3.587 -4.474,3.616c-1.913,0.024 -7.967,2.055 -8.891,2.979c-0.473,0.465 -0.992,0.458 -1.748,-0.024c-0.827,-0.52 -1.63,-0.435 -3.295,0.357c-1.205,0.574 -3.501,1.044 -5.093,1.044c-1.583,-0 -3.577,0.444 -4.408,0.99c-0.827,0.543 -2.055,0.819 -2.705,0.609c-0.661,-0.212 -2.52,0.189 -4.143,0.886c-1.63,0.694 -3.988,1.264 -5.251,1.264c-1.276,-0 -3.352,0.562 -4.635,1.249c-1.276,0.688 -2.896,1.25 -3.584,1.25c-0.685,-0 -1.251,0.272 -1.251,0.602c-0,0.851 -4.449,3.773 -5.743,3.773c-1.488,-0 -7.186,5.375 -7.649,7.227c-0.236,0.837 -0.685,1.524 -1.039,1.524c-0.355,-0 -1.701,0.827 -2.958,1.835c-1.275,1.009 -3.097,2.03 -4.063,2.263c-0.968,0.237 -2.197,1.106 -2.737,1.93c-0.638,0.974 -1.371,1.382 -2.056,1.16c-0.59,-0.189 -2.315,0.364 -3.824,1.226c-1.512,0.862 -3.109,1.573 -3.555,1.576c-0.449,0.006 -2.462,1.103 -4.474,2.44c-2.008,1.337 -5.48,3.327 -7.701,4.42c-2.22,1.094 -5.095,3.071 -6.387,4.396c-2.389,2.446 -2.455,2.791 -1.252,6.646c0.685,2.199 -1.536,3.793 -11.254,8.052c-1.37,0.603 -3.002,1.621 -3.619,2.263c-0.614,0.643 -1.748,1.167 -2.53,1.167c-0.779,0 -1.724,0.321 -2.126,0.714c-0.732,0.734 -3.274,1.266 -12.975,2.718c-6.206,0.928 -8.521,1.677 -13.03,4.217c-2.126,1.198 -3.338,1.543 -4.063,1.153c-3.106,-1.663 -13.838,-0.416 -18.903,2.194c-1.488,0.763 -6.661,1.621 -9.569,1.586c-0.661,-0.009 -1.771,0.392 -2.482,0.89c-0.709,0.498 -2.126,0.907 -3.137,0.907c-1.016,0 -2.379,0.484 -3.031,1.075c-1.252,1.146 -5.551,2.569 -9.321,3.098c-1.56,0.213 -2.386,0.702 -2.599,1.508c-0.236,0.93 -0.685,1.11 -2.079,0.833c-1.417,-0.278 -2.291,0.095 -4.278,1.76c-3.028,2.559 -7.348,4.841 -9.236,4.878c-0.756,0.012 -2.39,0.385 -3.616,0.824c-1.489,0.529 -2.547,0.596 -3.185,0.189c-1.157,-0.732 -3.845,-0.141 -5.121,1.141c-0.52,0.513 -1.583,0.914 -2.388,0.893c-0.803,-0.023 -3.078,0.548 -5.062,1.266c-2.726,0.988 -3.91,1.148 -4.831,0.655c-0.898,-0.482 -1.819,-0.397 -3.55,0.321c-1.276,0.536 -4.118,1.056 -6.305,1.155c-3.338,0.142 -4.108,-0.011 -4.814,-1.02c-0.756,-1.078 -1.063,-1.12 -3.01,-0.419c-1.937,0.697 -2.404,0.636 -4.311,-0.543c-1.866,-1.155 -2.442,-1.235 -4.443,-0.621c-1.772,0.543 -2.863,0.52 -4.76,-0.118c-1.346,-0.447 -2.941,-0.629 -3.524,-0.404c-0.591,0.212 -1.394,0.142 -1.796,-0.189c-0.448,-0.383 -4.148,-0.397 -10.089,-0.047c-24.437,1.462 -25.516,1.478 -27.578,0.411c-1.701,-0.886 -2.032,-0.896 -2.712,-0.095c-0.992,1.195 -2.126,1.169 -3.156,-0.071c-0.567,-0.685 -1.394,-0.876 -2.667,-0.623c-1.016,0.212 -2.197,0.071 -2.65,-0.303c-0.567,-0.467 -1.181,-0.474 -2.008,-0.023c-0.969,0.512 -1.465,0.38 -2.367,-0.629c-0.709,-0.793 -1.63,-1.157 -2.424,-0.961c-0.708,0.165 -2.423,0.609 -3.836,0.966c-2.126,0.541 -3.187,0.435 -6.203,-0.626c-2.008,-0.701 -4.207,-1.127 -4.909,-0.945c-0.708,0.189 -1.748,-0.094 -2.338,-0.631c-0.851,-0.76 -1.347,-0.814 -2.384,-0.257c-1.063,0.569 -1.653,0.475 -3.019,-0.472c-2.53,-1.753 -3.723,-2.041 -5.553,-1.345c-1.347,0.513 -1.89,0.397 -2.979,-0.621c-0.874,-0.819 -1.819,-1.124 -2.719,-0.886c-0.756,0.189 -1.394,0.071 -1.394,-0.267c0,-0.977 -1.937,-1.488 -2.834,-0.746c-0.851,0.713 -3.631,-0.307 -10.403,-3.832c-3.166,-1.649 -3.969,-1.809 -7.437,-1.495c-3.264,0.295 -4.096,0.165 -5.199,-0.844c-1.653,-1.492 -5.017,-3.007 -7.878,-3.533c-5.452,-1.004 -8.676,-2.23 -9.064,-3.447c-0.448,-1.391 -2.742,-1.686 -3.926,-0.505c-0.944,0.949 -1.44,0.437 -1.937,-2.067c-0.425,-2.037 -1.937,-3.304 -1.937,-1.614c0,0.503 -0.425,1.264 -0.944,1.692c-0.804,0.659 -0.945,0.522 -0.945,-0.881c-0,-2.145 -1.394,-2.653 -4.625,-1.675c-1.418,0.427 -4.557,1.049 -6.995,1.379c-2.44,0.333 -5.813,1.096 -7.5,1.701c-2.657,0.95 -3.314,1.552 -4.925,4.505c-1.725,3.152 -1.89,4.042 -2.244,11.846c-0.236,4.64 -0.709,12.797 -1.111,18.125c-0.401,5.328 -1.157,19.25 -1.724,30.937c-1.016,21.725 -1.417,27.344 -3.035,43.75c-2.079,21.094 -3.889,35.772 -8.778,71.563c-3.161,23.131 -7.219,48.414 -10.883,67.812c-2.4,12.696 -3.135,16.185 -6.652,31.563c-1.937,8.422 -4.028,18.265 -4.672,21.875c-0.638,3.609 -1.465,7.687 -1.796,9.062c-0.354,1.375 -1.086,4.309 -1.63,6.52c-0.567,2.211 -1.299,4.581 -1.677,5.267c-0.354,0.685 -0.921,2.955 -1.204,5.042c-0.308,2.089 -0.804,5.624 -1.111,7.859c-0.33,2.234 -1.134,5.453 -1.795,7.154c-0.968,2.464 -1.087,3.471 -0.567,4.96c0.567,1.611 0.473,1.987 -0.661,2.734c-1.111,0.739 -1.205,1.131 -0.662,2.677c0.52,1.498 0.331,2.44 -1.039,5.424c-0.992,2.122 -2.032,6.066 -2.549,9.551c-1.535,10.453 -2.008,12.761 -3.064,15.235c-0.567,1.332 -1.134,3.813 -1.252,5.512c-0.236,1.698 -0.637,3.562 -1.134,4.14c-0.496,0.576 -1.11,2.166 -1.37,3.529c-0.236,1.363 -0.968,3.215 -1.606,4.115c-0.709,0.978 -1.016,2.178 -0.803,2.988c0.236,0.744 -0,2.742 -0.661,4.44c-0.567,1.699 -1.016,3.667 -1.016,4.374c-0,1.517 -2.362,8.558 -3.463,10.354c-0.425,0.688 -0.969,2.363 -1.205,3.724c-0.236,1.361 -1.205,4.173 -2.15,6.25c-0.992,2.183 -2.031,6.149 -2.504,9.401c-0.448,3.094 -1.322,6.75 -1.96,8.125c-0.638,1.375 -1.441,3.625 -1.772,5c-0.33,1.375 -1.228,4.047 -1.96,5.938c-0.756,1.889 -1.748,4.929 -2.197,6.752c-0.449,1.824 -1.087,3.652 -1.418,4.063c-0.33,0.411 -0.803,1.731 -1.039,2.935c-0.236,1.202 -1.252,3.359 -2.268,4.792c-1.015,1.431 -1.771,3.12 -1.724,3.75c0.236,2.671 -0.236,4.562 -1.181,5.578c-1.11,1.103 -2.639,4.839 -2.658,6.464c-0.004,0.493 -0.59,2.102 -1.299,3.577c-0.709,1.474 -1.394,4.164 -1.512,5.978c-0.236,3.207 -2.267,7.742 -11.882,26.112c-2.83,5.403 -3.108,5.625 -6.949,5.537c-2.268,-0.047 -3.364,-0.338 -3.364,-0.872l-0.125,0.088Z" style="fill:#3d1c2a;fill-rule:nonzero;"/></g></svg>