<?xml version="1.0" encoding="UTF-8" standalone="no"?>
<!-- Created with Inkscape (http://www.inkscape.org/) -->

<svg
   width="99.545822mm"
   height="171.22679mm"
   viewBox="0 0 99.545823 171.22679"
   version="1.1"
   id="svg1299"
   inkscape:version="1.1.1 (3bf5ae0d25, 2021-09-20)"
   sodipodi:docname="fraxinus.svg"
   xmlns:inkscape="http://www.inkscape.org/namespaces/inkscape"
   xmlns:sodipodi="http://sodipodi.sourceforge.net/DTD/sodipodi-0.dtd"
   xmlns="http://www.w3.org/2000/svg"
   xmlns:svg="http://www.w3.org/2000/svg">
  <sodipodi:namedview
     id="namedview1301"
     pagecolor="#ffffff"
     bordercolor="#666666"
     borderopacity="1.0"
     inkscape:pageshadow="2"
     inkscape:pageopacity="0.0"
     inkscape:pagecheckerboard="0"
     inkscape:document-units="mm"
     showgrid="false"
     fit-margin-top="0"
     fit-margin-left="0"
     fit-margin-right="0"
     fit-margin-bottom="0"
     inkscape:zoom="0.50898197"
     inkscape:cx="182.71767"
     inkscape:cy="493.14124"
     inkscape:window-width="1920"
     inkscape:window-height="986"
     inkscape:window-x="-11"
     inkscape:window-y="-11"
     inkscape:window-maximized="1"
     inkscape:current-layer="layer1" />
  <defs
     id="defs1296" />
  <g
     inkscape:label="Layer 1"
     inkscape:groupmode="layer"
     id="layer1"
     transform="translate(-66.121566,-25.996168)">
    <path
       style="fill:#000000;stroke-width:1"
       d="m 106.21359,197.15549 c 0,-0.037 -0.086,-0.1178 -0.19,-0.1798 -0.158,-0.0934 -0.184,-0.1326 -0.152,-0.23012 0.046,-0.1368 0.044,-0.71136 0,-1.01704 -0.024,-0.1594 0,-0.33576 0.136,-0.71436 0.152,-0.45324 0.2508,-0.7196 0.6602,-1.77272 0.8324,-2.14116 2.658,-7.4771 3.0868,-9.0223 0.028,-0.1018 0.158,-0.5543 0.2894,-1.0054 0.8526,-2.93928 1.7132,-6.42554 2.2272,-9.0223 0.126,-0.6403 0.2454,-1.2356 0.2638,-1.32292 0.124,-0.5891 0.3512,-1.89668 0.48,-2.75166 0.04,-0.26194 0.086,-0.53578 0.104,-0.60854 0.02,-0.0728 0.068,-0.39424 0.112,-0.71438 0.044,-0.32014 0.114,-0.83212 0.156,-1.1377 0.042,-0.3056 0.1,-0.6985 0.13,-0.87314 0.03,-0.1746 0.054,-0.4375 0.054,-0.58418 0,-0.1466 0.036,-0.4069 0.082,-0.57826 0.044,-0.1714 0.096,-0.57524 0.112,-0.89748 0.02,-0.32224 0.052,-0.61214 0.078,-0.64422 0.052,-0.0672 0.148,-2.28648 0.15,-3.4871 4e-4,-0.33662 0.02,-0.55758 0.09,-1.45522 0.02,-0.16 0.032,-0.93398 0.042,-1.71978 0.02,-0.78582 0.02,-1.46448 0.024,-1.50812 0.022,-0.28248 -0.07,-1.78444 -0.112,-1.83672 -0.046,-0.0572 -0.068,-0.47854 -0.04,-0.79534 0,-0.0652 -0.04,-0.21474 -0.102,-0.33236 -0.062,-0.1176 -0.112,-0.24892 -0.112,-0.29178 0,-0.0428 -0.048,-0.1668 -0.106,-0.2754 -0.058,-0.1086 -0.106,-0.22434 -0.106,-0.2572 0,-0.0662 -0.3696,-0.3387 -0.4594,-0.3387 -0.032,0 -0.196,-0.0618 -0.3676,-0.1376 -0.2966,-0.1312 -0.7186,-0.23912 -0.9458,-0.24178 -0.2326,-0.002 -0.5874,0.0804 -0.677,0.1584 -0.052,0.0454 -0.182,0.1124 -0.2866,0.1486 -0.182,0.0622 -0.2054,0.0564 -0.4276,-0.1028 l -0.2358,-0.1688 -0.08,0.119 c -0.094,0.141 -0.182,0.1494 -0.3582,0.0342 -0.098,-0.0636 -0.192,-0.0758 -0.3818,-0.0486 -0.627,0.0898 -1.4512,0.016 -1.8828,-0.1694 -0.19,-0.081 -0.2118,-0.0806 -0.362,0.008 l -0.16,0.0946 -0.182,-0.1758 c -0.164,-0.159 -0.196,-0.1702 -0.3336,-0.1182 -0.084,0.0316 -0.184,0.0384 -0.2212,0.014 -0.038,-0.0234 -0.2368,-0.0424 -0.442,-0.0422 -0.2208,0 -0.4528,-0.0334 -0.568,-0.0822 -0.108,-0.0454 -0.4048,-0.1166 -0.6616,-0.1584 -0.2566,-0.0416 -0.5738,-0.115 -0.7048,-0.163 -0.13,-0.048 -0.2798,-0.1006 -0.3306,-0.1166 -0.05,-0.016 -0.092,-0.0522 -0.092,-0.0806 0,-0.0304 -0.084,-0.0372 -0.207,-0.016 -0.168,0.0284 -0.2172,0.016 -0.2616,-0.0616 -0.048,-0.0836 -0.07,-0.0872 -0.168,-0.0266 -0.098,0.0598 -0.128,0.0564 -0.2158,-0.0226 -0.078,-0.0706 -0.116,-0.0778 -0.164,-0.0302 -0.048,0.0476 -0.094,0.0324 -0.198,-0.0642 -0.074,-0.0696 -0.2184,-0.138 -0.3204,-0.152 -0.102,-0.014 -0.2636,-0.058 -0.3594,-0.0976 -0.15,-0.0622 -0.182,-0.0612 -0.2242,0.006 -0.044,0.0682 -0.05,0.0676 -0.05,-0.006 -8e-4,-0.078 -0.202,-0.20692 -0.323,-0.20692 -0.028,0 -0.116,-0.0474 -0.196,-0.1054 -0.08,-0.058 -0.2624,-0.1204 -0.408,-0.1388 -0.146,-0.018 -0.2932,-0.069 -0.3282,-0.1128 -0.036,-0.0438 -0.1,-0.0654 -0.146,-0.0478 -0.128,0.0488 -1.036,-0.1946 -1.3472,-0.36094 -0.074,-0.04 -0.286,-0.1018 -0.469,-0.1374 -0.2388,-0.0464 -0.3612,-0.1006 -0.4326,-0.1914 -0.076,-0.0968 -0.132,-0.1188 -0.233,-0.0932 -0.084,0.0212 -0.178,0.002 -0.254,-0.051 -0.066,-0.0464 -0.172,-0.0844 -0.2366,-0.0844 -0.064,0 -0.2432,-0.064 -0.3984,-0.1422 -0.156,-0.0782 -0.333,-0.1382 -0.3952,-0.1334 -0.07,0.006 -0.124,-0.028 -0.14,-0.0902 -0.02,-0.066 -0.122,-0.127 -0.3102,-0.1826 -0.156,-0.0458 -0.3722,-0.1436 -0.4798,-0.21728 -0.108,-0.0736 -0.2304,-0.134 -0.2728,-0.134 -0.092,0 -0.6494,-0.30958 -0.8974,-0.49872 -0.098,-0.0742 -0.3058,-0.3318 -0.463,-0.57224 -0.158,-0.24046 -0.3074,-0.44614 -0.3334,-0.45708 -0.026,-0.01 -0.172,-0.13 -0.3232,-0.2646 -0.2882,-0.25572 -0.4432,-0.35404 -0.93,-0.59022 -0.162,-0.0782 -0.3344,-0.20518 -0.3848,-0.28202 -0.058,-0.0874 -0.14,-0.1398 -0.22,-0.1398 -0.07,0 -0.148,-0.0328 -0.17,-0.073 -0.024,-0.0402 -0.116,-0.1176 -0.2066,-0.172 -0.09,-0.0544 -0.281,-0.25238 -0.4234,-0.43974 -0.142,-0.1874 -0.3236,-0.37782 -0.4026,-0.42326 -0.078,-0.0454 -0.194,-0.148 -0.2552,-0.22812 -0.062,-0.08 -0.158,-0.1456 -0.2148,-0.1456 -0.106,0 -0.7972,-0.45038 -1.0562,-0.68792 -0.08,-0.0728 -0.2454,-0.20372 -0.3692,-0.29104 -0.124,-0.0874 -0.321,-0.25996 -0.4386,-0.38364 -0.118,-0.1238 -0.235,-0.2249 -0.2608,-0.2249 -0.026,0 -0.251,-0.2024 -0.5002,-0.4498 -0.249,-0.24738 -0.4822,-0.44978 -0.518,-0.44978 -0.036,0 -0.152,-0.0654 -0.2566,-0.1456 -0.106,-0.08 -0.3506,-0.24078 -0.545,-0.3572 -0.194,-0.1164 -0.4248,-0.27904 -0.512,-0.36138 -0.088,-0.0824 -0.2104,-0.1836 -0.2738,-0.22524 -0.064,-0.0416 -0.148,-0.1408 -0.188,-0.2207 -0.198,-0.38972 -0.443,-0.5928 -1.1082,-0.9167 -0.252,-0.1226 -0.4572,-0.2854 -0.7674,-0.60844 -0.2328,-0.24254 -0.578,-0.56014 -0.7672,-0.70578 -0.7282,-0.56054 -0.8582,-0.67388 -1.061,-0.92418 -0.148,-0.1834 -0.209,-0.30856 -0.209,-0.4318 0,-0.1494 -0.062,-0.2319 -0.4506,-0.59518 -0.3962,-0.37066 -0.8452,-0.714 -1.353,-1.03474 -0.084,-0.0536 -0.154,-0.1274 -0.154,-0.164 0,-0.0366 -0.126,-0.1832 -0.2786,-0.32586 -0.154,-0.1426 -0.3382,-0.3307 -0.411,-0.41802 -0.072,-0.0874 -0.2806,-0.28602 -0.462,-0.44156 -0.2042,-0.1754 -0.3678,-0.3693 -0.43,-0.51028 -0.056,-0.1252 -0.2152,-0.33122 -0.3552,-0.45802 -0.4148,-0.37556 -0.6066,-0.58164 -0.7534,-0.80936 -0.076,-0.1182 -0.2522,-0.3447 -0.391,-0.50332 -0.138,-0.1586 -0.2524,-0.31114 -0.2524,-0.33896 0,-0.0278 -0.066,-0.1346 -0.146,-0.23748 -0.2288,-0.29382 -0.2666,-0.38446 -0.2448,-0.58662 0.026,-0.25286 -0.2752,-0.69416 -0.656,-0.95778 -0.154,-0.1062 -0.4632,-0.37706 -0.688,-0.6018 l -0.4088,-0.40864 0.2,-0.1694 c 0.188,-0.1594 0.196,-0.178 0.132,-0.31276 -0.036,-0.0788 -0.15,-0.1856 -0.2522,-0.23714 -0.102,-0.0516 -0.2448,-0.1328 -0.3176,-0.1804 -0.164,-0.1076 -0.6574,-0.37686 -1.1112,-0.60672 -0.19,-0.0958 -0.4674,-0.28868 -0.6182,-0.42858 -0.15,-0.14 -0.3702,-0.32372 -0.4874,-0.40852 -0.3194,-0.23092 -0.5528,-0.48994 -0.5194,-0.5767 0.024,-0.0634 0.078,-0.0668 0.3112,-0.02 0.2504,0.0506 0.3554,0.0558 0.7186,0.0354 0.106,-0.006 0.692,0.1148 0.9656,0.199 0.102,0.0314 0.3162,0.0718 0.4762,0.09 0.16,0.018 0.371,0.0586 0.4686,0.0898 0.2334,0.0748 0.3396,-0.0256 0.3396,-0.32126 0,-0.1186 0,-0.2158 0,-0.2158 0,0 0.2776,0.1338 0.605,0.29742 0.3272,0.1636 0.6708,0.31572 0.7634,0.3381 0.092,0.0224 0.2518,0.0758 0.3538,0.1184 0.2246,0.0944 0.4352,0.0476 0.6584,-0.146 0.096,-0.0834 0.188,-0.1216 0.2382,-0.0998 0.3492,0.1496 1.065,0.123 1.234,-0.0458 0.1,-0.0996 0.112,-0.1 0.3224,-0.012 0.5348,0.22114 0.9362,0.34312 1.2788,0.38866 0.203,0.027 0.5478,0.1004 0.766,0.1632 0.2184,0.0628 0.525,0.1378 0.6816,0.1668 0.156,0.0288 0.325,0.0742 0.3744,0.1006 0.058,0.0308 0.164,0.0228 0.2974,-0.022 0.16,-0.0538 0.2196,-0.1086 0.2584,-0.23506 0.056,-0.1808 0.13,-0.20306 0.3084,-0.0916 0.064,0.0404 0.2476,0.0894 0.4068,0.1092 0.16,0.02 0.3142,0.055 0.344,0.0784 0.096,0.075 1.0002,0.38676 1.195,0.41186 0.13,0.016 0.2094,-0.002 0.2578,-0.0596 0.086,-0.1032 0.235,-0.1086 0.3158,-0.012 0.034,0.04 0.156,0.088 0.2734,0.1068 0.118,0.018 0.2536,0.057 0.3032,0.0848 0.212,0.1192 1.117,0.4764 1.208,0.4767 0.054,0 0.168,0.0358 0.251,0.0794 0.2302,0.1202 0.6516,0.1048 0.7338,-0.0268 0.094,-0.15 0.16,-0.1338 0.4374,0.1058 0.134,0.1164 0.2848,0.2117 0.334,0.21172 0.05,2e-5 0.2442,0.0738 0.4334,0.164 0.3372,0.1608 0.6646,0.26262 1.083,0.33692 0.116,0.0204 0.2738,0.0828 0.3522,0.1386 0.078,0.0558 0.158,0.1012 0.178,0.1012 0.02,0 0.11,0.0572 0.2036,0.1272 0.092,0.0698 0.3176,0.1894 0.5,0.26564 0.182,0.0762 0.4444,0.22516 0.5822,0.331 0.2948,0.22658 1.3144,0.72406 1.3892,0.67782 0.028,-0.018 0.052,-0.0662 0.052,-0.1082 0,-0.042 0.026,-0.0762 0.058,-0.0762 0.068,0 0.5352,0.22964 0.6982,0.34386 0.062,0.0438 0.162,0.0796 0.2208,0.0798 0.058,0 0.17,0.0334 0.2486,0.074 0.078,0.0406 0.2442,0.0908 0.3704,0.1118 0.126,0.021 0.2934,0.071 0.372,0.1112 0.078,0.0402 0.206,0.0732 0.2832,0.0732 0.076,0 0.215,0.0332 0.3068,0.074 0.2228,0.099 0.5676,0.1738 0.6856,0.1488 0.052,-0.012 0.118,-0.0796 0.146,-0.1522 0.044,-0.116 0.072,-0.1274 0.222,-0.0946 0.094,0.0206 0.223,0.0878 0.2858,0.1496 0.062,0.0618 0.2706,0.1914 0.462,0.28784 0.192,0.0966 0.3628,0.1994 0.3808,0.22854 0.02,0.0292 0.122,0.0466 0.2304,0.0388 0.2086,-0.016 0.3182,0.0614 1.1108,0.77518 0.4586,0.41294 0.6422,0.53386 0.9562,0.62938 0.4428,0.1346 0.5976,0.1326 0.6602,-0.008 0.068,-0.1544 0.094,-0.1514 0.436,0.053 0.4742,0.28242 0.5142,0.30268 0.6006,0.30348 0.046,5.4e-4 0.152,0.0722 0.2348,0.1596 0.084,0.0872 0.174,0.1588 0.2,0.1588 0.026,0 0.2062,0.1382 0.4002,0.3069 0.194,0.1688 0.436,0.36946 0.5378,0.4459 0.102,0.0764 0.4076,0.35506 0.6796,0.61914 0.2718,0.26408 0.5344,0.48014 0.5834,0.48014 0.048,0 0.267,0.1796 0.4846,0.39896 0.2176,0.21944 0.555,0.50718 0.75,0.63944 0.194,0.1322 0.3824,0.2742 0.4166,0.31542 0.084,0.1018 0.2446,0.0946 0.3052,-0.014 0.044,-0.077 0.074,-0.0614 0.2406,0.119 0.106,0.1142 0.19,0.22818 0.19,0.2531 0,0.025 0.074,0.1384 0.164,0.25214 0.09,0.1138 0.2598,0.39102 0.377,0.61616 0.118,0.22512 0.2524,0.45694 0.3002,0.51516 0.182,0.22158 0.3316,0.46144 0.5686,0.91072 0.3102,0.5882 0.6924,1.15564 0.9832,1.45992 0.3828,0.40032 0.5694,0.6415 0.57,0.73642 4e-4,0.0868 0.042,0.1954 0.2822,0.7294 0.178,0.39684 0.3294,0.80522 0.4014,1.08478 0.022,0.0874 0.08,0.23496 0.128,0.3281 0.048,0.0932 0.088,0.20352 0.088,0.24528 0,0.0852 0.104,0.44918 0.2956,1.04058 0.07,0.21828 0.128,0.44964 0.128,0.51414 -6e-4,0.0646 0.034,0.1954 0.074,0.29104 0.042,0.0956 0.128,0.35238 0.192,0.57066 0.064,0.21828 0.176,0.56356 0.246,0.76728 0.072,0.20374 0.16,0.47758 0.198,0.60854 0.038,0.131 0.132,0.39292 0.2124,0.5821 0.08,0.1892 0.198,0.48682 0.2646,0.66144 0.066,0.1746 0.17,0.43062 0.2336,0.56886 0.062,0.1382 0.158,0.35406 0.2134,0.47958 0.054,0.1256 0.134,0.26244 0.174,0.30426 0.04,0.0418 0.2152,0.23084 0.387,0.42002 0.172,0.1892 0.4492,0.45112 0.6158,0.58208 0.166,0.131 0.3542,0.30362 0.4166,0.38364 0.142,0.182 0.2118,0.1852 0.2118,0.01 0,-0.0746 0.024,-0.1804 0.052,-0.23488 0.03,-0.0544 0.064,-0.68992 0.078,-1.41204 0.02,-0.72212 0.044,-1.68204 0.066,-2.13314 0.058,-1.1805 -0.02,-4.51848 -0.146,-7.03792 -0.03,-0.56754 -0.078,-1.4724 -0.106,-2.01084 -0.06,-1.16208 -0.2716,-4.16712 -0.529,-7.51416 -0.06,-0.77126 -0.132,-1.73568 -0.162,-2.14312 -0.03,-0.41626 -0.088,-0.8139 -0.13,-0.90758 -0.042,-0.0918 -0.076,-0.27784 -0.076,-0.4136 0,-0.1358 -0.026,-0.29446 -0.056,-0.3527 -0.076,-0.1422 -0.164,-0.6098 -0.158,-0.84412 0,-0.1236 -0.03,-0.22142 -0.096,-0.28082 -0.058,-0.0526 -0.09,-0.1332 -0.074,-0.1904 0.02,-0.0592 -0.05,-0.21516 -0.164,-0.3861 -0.104,-0.1578 -0.19,-0.31164 -0.19,-0.34184 0,-0.0302 -0.054,-0.0694 -0.118,-0.087 -0.066,-0.018 -0.178,-0.114 -0.2514,-0.21394 -0.072,-0.1 -0.174,-0.1932 -0.2248,-0.20684 -0.064,-0.016 -0.092,-0.0776 -0.092,-0.1898 0,-0.146 -0.02,-0.1612 -0.124,-0.1338 -0.078,0.02 -0.148,6.4e-4 -0.192,-0.0518 -0.038,-0.0456 -0.11,-0.0828 -0.162,-0.0828 -0.05,0 -0.156,-0.0502 -0.234,-0.1116 -0.094,-0.0742 -0.188,-0.1026 -0.2812,-0.085 -0.136,0.026 -0.6914,-0.173 -0.8614,-0.30838 -0.044,-0.0348 -0.2188,-0.0768 -0.389,-0.0934 -0.17,-0.016 -0.349,-0.0642 -0.397,-0.106 -0.116,-0.1002 -0.3588,-0.1406 -0.5376,-0.0894 -0.11,0.0314 -0.164,0.018 -0.2268,-0.055 -0.048,-0.0564 -0.188,-0.1096 -0.3376,-0.128 -0.3146,-0.0392 -0.8198,-0.1232 -1.1018,-0.1834 -1.012,-0.21604 -1.2414,-0.26912 -1.3532,-0.31346 -0.07,-0.028 -0.3784,-0.1266 -0.684,-0.21928 -0.3056,-0.0926 -0.6576,-0.21402 -0.782,-0.26976 -0.124,-0.0558 -0.2756,-0.1014 -0.336,-0.1014 -0.06,0 -0.184,-0.0318 -0.2764,-0.0706 -0.2804,-0.1188 -0.5238,-0.2026 -0.8282,-0.28504 -0.16,-0.0434 -0.3148,-0.097 -0.344,-0.1192 -0.028,-0.0222 -0.146,-0.057 -0.2578,-0.0774 -0.112,-0.0204 -0.2436,-0.0574 -0.291,-0.0822 -0.19,-0.0996 -1.6454,-0.63528 -2.0176,-0.74224 -0.3602,-0.1036 -0.8986,-0.3012 -1.614,-0.59264 -0.226,-0.092 -1.0372,-0.51502 -1.868,-0.97392 -0.126,-0.0692 -0.254,-0.1258 -0.286,-0.1258 -0.032,0 -0.132,-0.056 -0.2222,-0.1244 -0.09,-0.0684 -0.3182,-0.1792 -0.507,-0.24602 -0.188,-0.0668 -0.4864,-0.20018 -0.6614,-0.29626 -0.176,-0.096 -0.4612,-0.21182 -0.6358,-0.25718 -0.174,-0.0454 -0.4604,-0.1512 -0.635,-0.23508 -0.174,-0.084 -0.4604,-0.20674 -0.635,-0.27288 -0.2792,-0.1058 -0.3884,-0.1896 -0.704,-0.54048 -0.058,-0.0636 -0.3874,-0.28778 -0.5924,-0.40212 -0.102,-0.0568 -0.2672,-0.1888 -0.3676,-0.29316 -0.1,-0.1044 -0.2104,-0.1898 -0.2446,-0.1898 -0.034,0 -0.178,-0.0838 -0.3204,-0.186 -0.142,-0.1024 -0.3414,-0.24484 -0.4432,-0.31664 -0.176,-0.1248 -1.2336,-0.66912 -1.5644,-0.80602 -0.086,-0.0358 -0.2882,-0.0896 -0.4476,-0.1196 -0.16,-0.0298 -0.3494,-0.1014 -0.4222,-0.159 -0.072,-0.0576 -0.299,-0.21726 -0.5028,-0.35498 -0.2036,-0.1378 -0.4486,-0.3167 -0.5442,-0.39776 -0.096,-0.081 -0.2506,-0.1826 -0.344,-0.22554 -0.094,-0.043 -0.2058,-0.0986 -0.2494,-0.1236 -0.044,-0.025 -0.334,-0.1716 -0.6452,-0.32554 -0.3112,-0.154 -0.5772,-0.30926 -0.5908,-0.34496 -0.02,-0.0358 -0.124,-0.0808 -0.2448,-0.1 -0.128,-0.0204 -0.2748,-0.0902 -0.3508,-0.1662 -0.072,-0.0722 -0.174,-0.1312 -0.2264,-0.1312 -0.2554,0 -0.7346,-0.32882 -0.8372,-0.57442 -0.08,-0.1926 -0.4126,-0.53682 -0.518,-0.53682 -0.032,0 -0.14,-0.0832 -0.2378,-0.185 -0.278,-0.28684 -0.9244,-0.72192 -1.3324,-0.89696 -0.106,-0.0458 -0.2666,-0.1746 -0.3548,-0.28582 -0.14,-0.1768 -0.8346,-0.69598 -0.9312,-0.69598 -0.02,0 -0.142,-0.0728 -0.2704,-0.1618 -0.13,-0.089 -0.3532,-0.197 -0.4974,-0.23976 -0.186,-0.0552 -0.3038,-0.132 -0.4038,-0.26326 -0.078,-0.102 -0.2928,-0.28486 -0.4776,-0.40648 -0.184,-0.1216 -0.3364,-0.25146 -0.3364,-0.28856 0,-0.0372 0.084,-0.1022 0.186,-0.1448 0.102,-0.0426 0.184,-0.1084 0.184,-0.1462 0,-0.2439 -0.702,-1.13376 -1.0556,-1.34904 -0.074,-0.0446 -0.2442,-0.21618 -0.3794,-0.38118 -0.2182,-0.26596 -0.889,-0.74634 -1.0424,-0.74634 -0.026,0 -0.076,-0.0326 -0.108,-0.0724 -0.032,-0.0398 -0.192,-0.1136 -0.352,-0.1642 -0.16,-0.0504 -0.3886,-0.1728 -0.507,-0.27164 -0.118,-0.099 -0.2332,-0.1798 -0.2552,-0.1798 -0.022,0 -0.14,-0.072 -0.2608,-0.16 -0.194,-0.1404 -0.2138,-0.1734 -0.162,-0.2689 0.08,-0.1482 -0.1,-0.41516 -0.553,-0.81966 -0.301,-0.2693 -0.3358,-0.31928 -0.2722,-0.39008 0.166,-0.1846 0.146,-0.33214 -0.094,-0.70422 -0.128,-0.1972 -0.3018,-0.41148 -0.3878,-0.47626 -0.086,-0.0648 -0.211,-0.1734 -0.2778,-0.24148 -0.066,-0.068 -0.2086,-0.1598 -0.3152,-0.20386 -0.21,-0.0868 -0.7768,-0.45478 -0.913,-0.59258 -0.046,-0.0468 -0.2096,-0.1924 -0.3628,-0.3234 -0.4058,-0.3467 -0.4746,-0.42616 -0.5254,-0.6057 -0.026,-0.0888 -0.14,-0.30204 -0.257,-0.47368 -0.192,-0.28412 -0.2052,-0.32382 -0.144,-0.44314 0.08,-0.1558 0.052,-0.24924 -0.14,-0.46186 -0.5088,-0.56298 -0.8932,-1.01048 -0.8942,-1.04104 -6e-4,-0.02 0.068,-0.1056 0.154,-0.1912 0.11,-0.1106 0.146,-0.1886 0.126,-0.26988 -0.036,-0.139 -0.4748,-0.5349 -0.5932,-0.53562 -0.134,-7.8e-4 -0.6254,-0.24542 -0.6538,-0.3249 -0.02,-0.0394 0,-0.115 0.024,-0.1684 0.066,-0.127 -0.07,-0.2812 -0.2904,-0.32948 -0.2672,-0.0588 -1.3094,-0.61072 -1.3926,-0.73768 -0.056,-0.0858 -0.064,-0.154 -0.028,-0.2497 0.048,-0.1262 0.084,-0.1358 0.8656,-0.22752 0.681,-0.08 0.854,-0.085 1.0494,-0.0296 0.5494,0.1554 0.654,0.1148 0.6404,-0.24906 v -0.1954 l 0.118,0.1364 c 0.182,0.20916 0.7168,0.40306 1.1764,0.4256 0.5852,0.0288 0.707,0.004 0.8974,-0.187 0.176,-0.1752 0.186,-0.1784 0.4348,-0.1268 0.14,0.0292 0.2778,0.0742 0.3056,0.1002 0.028,0.026 0.098,0.0476 0.158,0.048 0.126,7.4e-4 0.823,0.1722 1.078,0.26554 0.238,0.087 0.623,0.037 0.7688,-0.0998 0.104,-0.0974 0.142,-0.1038 0.3274,-0.0544 0.4776,0.1278 1.1128,0.3265 1.1622,0.3634 0.03,0.0218 0.112,0.053 0.186,0.0694 0.072,0.016 0.2276,0.055 0.344,0.0856 0.268,0.0706 0.7674,-0.016 0.7674,-0.1336 0,-0.0636 0.068,-0.0724 0.3836,-0.0492 0.211,0.016 0.5384,0.053 0.7276,0.0828 0.19,0.0298 0.5362,0.0744 0.771,0.099 0.4482,0.0468 0.8066,0.148 0.8958,0.25282 0.048,0.0558 0.5884,0.33752 1.0054,0.52372 0.2922,0.1304 0.9288,0.2975 1.012,0.2656 0.046,-0.018 0.108,-0.103 0.142,-0.1902 0.062,-0.1624 0.182,-0.2044 0.2858,-0.1 0.032,0.0322 0.2216,0.09 0.4206,0.1284 0.2,0.0384 0.4812,0.097 0.6268,0.1304 0.146,0.0334 0.442,0.0598 0.6588,0.0588 0.2806,-10e-4 0.418,0.021 0.4762,0.0774 0.128,0.1238 0.9198,0.58564 1.6032,0.9351 0.5136,0.2626 0.6354,0.30638 0.7012,0.25186 0.044,-0.0362 0.08,-0.096 0.08,-0.1326 0,-0.1236 0.209,-0.1272 0.3584,-0.006 0.08,0.0642 0.2156,0.1618 0.3028,0.21692 0.088,0.055 0.327,0.2565 0.5326,0.44754 0.2058,0.191 0.4916,0.41306 0.6352,0.4934 0.144,0.0804 0.3564,0.20428 0.4728,0.27542 0.116,0.0712 0.3492,0.1574 0.5172,0.1918 0.168,0.0344 0.3182,0.083 0.3338,0.1082 0.02,0.0252 0.134,0.0458 0.2614,0.0458 0.166,0 0.2484,-0.0264 0.2862,-0.0926 0.148,-0.25778 0.144,-0.25714 0.3722,-0.074 0.118,0.0954 0.3418,0.22916 0.4956,0.2972 0.154,0.068 0.3496,0.1822 0.4354,0.25386 0.2232,0.1866 0.934,0.62102 1.016,0.62102 0.038,0 0.126,0.0372 0.196,0.0826 0.104,0.0684 0.144,0.071 0.2338,0.016 0.098,-0.061 0.144,-0.033 0.4866,0.30106 0.7988,0.77618 0.9838,0.93358 1.2452,1.05906 0.303,0.1456 0.3952,0.158 0.4872,0.0658 0.05,-0.0496 0.116,-0.012 0.3044,0.172 0.132,0.1296 0.5872,0.57734 1.0108,0.99492 l 0.7704,0.75922 0.223,-0.0334 c 0.2172,-0.0326 0.2298,-0.0262 0.4838,0.25132 0.144,0.1566 0.3322,0.3847 0.4194,0.50682 0.088,0.1222 0.2126,0.29636 0.2784,0.3872 0.108,0.1482 0.7112,0.56456 0.8256,0.56926 0.026,0.001 0.156,0.094 0.291,0.20654 0.134,0.1126 0.3764,0.27058 0.5366,0.35112 0.16,0.0806 0.3478,0.1908 0.4172,0.2451 0.162,0.1268 0.4294,0.1332 0.4294,0.01 0,-0.1204 0.6748,0.55924 0.9352,0.94186 0.28,0.41166 0.761,0.94646 0.9004,1.00114 0.07,0.0278 0.19,0.1952 0.3064,0.43162 0.3002,0.60862 0.3782,0.73274 0.7082,1.12702 0.17,0.20372 0.3264,0.42212 0.3462,0.48532 0.02,0.0632 0.162,0.25648 0.3168,0.42954 0.154,0.173 0.3498,0.40578 0.4342,0.51714 0.084,0.1114 0.2192,0.27462 0.2992,0.36276 0.08,0.0882 0.146,0.1798 0.146,0.20366 0,0.0238 0.102,0.1554 0.228,0.29248 0.126,0.137 0.308,0.38006 0.406,0.54014 0.098,0.16 0.242,0.36248 0.3204,0.44978 0.136,0.1522 0.2236,0.3086 0.5576,1.00172 0.084,0.1726 0.2058,0.3939 0.2722,0.49182 0.066,0.098 0.12,0.20488 0.12,0.23766 0,0.0328 0.032,0.0972 0.074,0.1432 0.124,0.1426 0.439,0.8075 0.5516,1.16834 0.06,0.1892 0.18,0.52966 0.2668,0.75662 0.088,0.22698 0.176,0.4889 0.194,0.58208 0.02,0.0932 0.164,0.43974 0.321,0.77012 0.158,0.33038 0.2858,0.63258 0.2858,0.67156 0,0.039 0.022,0.084 0.048,0.0998 0.026,0.016 0.062,0.1186 0.082,0.22802 0.034,0.1862 0.164,0.56236 0.3286,0.94786 0.04,0.0918 0.072,0.1988 0.074,0.23812 8e-4,0.0392 0.036,0.1176 0.08,0.174 0.042,0.0566 0.078,0.1666 0.078,0.24488 0,0.0782 0.038,0.1732 0.084,0.21124 0.046,0.038 0.126,0.154 0.18,0.25782 0.102,0.1988 1.0086,1.122 1.324,1.34826 0.102,0.073 0.2924,0.1914 0.4234,0.26298 0.13,0.0716 0.3452,0.22906 0.4762,0.35002 0.4036,0.37276 0.635,0.44786 0.635,0.20612 0,-0.058 0.032,-0.1696 0.074,-0.24824 0.1,-0.194 0.2058,-1.03852 0.164,-1.2925 -0.02,-0.1224 0,-0.26892 0.03,-0.36154 0.05,-0.122 0.05,-0.39934 0,-1.2802 -0.034,-0.61846 -0.084,-3.4462 -0.112,-6.28386 -0.034,-3.60942 -0.072,-5.46936 -0.126,-6.19124 -0.054,-0.71164 -0.08,-1.92314 -0.084,-3.90372 0,-2.80118 0,-2.87344 -0.11,-2.93688 -0.06,-0.037 -0.118,-0.148 -0.136,-0.2568 -0.072,-0.44308 -0.3736,-0.73524 -1.0392,-1.00374 -0.08,-0.0326 -0.17,-0.1042 -0.2002,-0.1594 -0.03,-0.0552 -0.1,-0.1002 -0.156,-0.1002 -0.056,0 -0.128,-0.0476 -0.158,-0.1058 -0.032,-0.0582 -0.094,-0.1058 -0.14,-0.1058 -0.046,0 -0.144,-0.0476 -0.217,-0.1058 -0.074,-0.0582 -0.164,-0.1058 -0.2002,-0.1058 -0.036,0 -0.098,-0.0384 -0.136,-0.0852 -0.058,-0.0692 -0.536,-0.3724 -0.9476,-0.60042 -0.484,-0.26802 -2.4068,-1.16632 -2.4972,-1.16658 -0.038,0 -0.146,-0.0468 -0.2396,-0.104 -0.094,-0.0572 -0.308,-0.151 -0.4762,-0.20866 -0.5672,-0.1944 -0.7816,-0.27362 -0.949,-0.35098 -0.092,-0.0424 -0.186,-0.0772 -0.2118,-0.0776 -0.06,-8e-4 -1.1482,-0.4028 -1.2718,-0.46946 -0.052,-0.0284 -0.3102,-0.1514 -0.5722,-0.2732 -0.7642,-0.35538 -1.1496,-0.54972 -1.3758,-0.69392 -0.116,-0.0742 -0.2712,-0.153 -0.344,-0.175 -0.072,-0.022 -0.3704,-0.1594 -0.6614,-0.30534 -0.291,-0.1458 -0.6126,-0.30248 -0.7144,-0.34802 -0.102,-0.0456 -0.3194,-0.1616 -0.4832,-0.258 -0.164,-0.0964 -0.335,-0.1752 -0.3804,-0.1752 -0.046,0 -0.2362,-0.1176 -0.4238,-0.26156 -0.188,-0.1438 -0.457,-0.31572 -0.5986,-0.38192 -0.142,-0.0662 -0.4238,-0.2457 -0.6276,-0.39884 -0.2036,-0.1532 -0.4744,-0.35632 -0.6016,-0.4515 -0.128,-0.0952 -0.3772,-0.29956 -0.5556,-0.4542 -0.178,-0.1546 -0.3958,-0.31896 -0.4832,-0.3652 -0.088,-0.0462 -0.3134,-0.21808 -0.5026,-0.3819 -0.19,-0.1638 -0.487,-0.38976 -0.6616,-0.5021 -0.174,-0.1124 -0.4194,-0.27236 -0.5438,-0.3556 -0.124,-0.0832 -0.248,-0.1514 -0.2742,-0.1514 -0.092,0 -0.418,-0.23914 -0.4808,-0.35242 -0.034,-0.0628 -0.186,-0.1914 -0.3348,-0.28588 -0.15,-0.0944 -0.3546,-0.2477 -0.4566,-0.34072 -0.102,-0.093 -0.34,-0.25758 -0.5292,-0.3657 -0.7654,-0.4375 -0.9524,-0.57392 -0.9524,-0.69464 0,-0.0358 -0.096,-0.1452 -0.212,-0.24316 -0.116,-0.098 -0.3934,-0.34014 -0.6148,-0.53816 -0.2216,-0.198 -0.4654,-0.39972 -0.542,-0.44822 -0.076,-0.0486 -0.2584,-0.1748 -0.404,-0.2808 -0.146,-0.106 -0.3912,-0.26014 -0.546,-0.34268 -0.154,-0.0826 -0.3508,-0.2347 -0.4356,-0.33812 -0.2492,-0.3039 -0.283,-0.33418 -0.681,-0.61138 -0.2088,-0.1456 -0.468,-0.33874 -0.5756,-0.42936 -0.108,-0.0906 -0.2674,-0.2026 -0.3546,-0.24886 -0.088,-0.0462 -0.26,-0.1796 -0.3836,-0.29612 -0.2,-0.1884 -0.225,-0.2386 -0.225,-0.44994 0,-0.24962 -0.134,-0.51214 -0.3958,-0.77234 -0.074,-0.073 -0.134,-0.1564 -0.134,-0.1852 0,-0.055 -0.4966,-0.50214 -0.5578,-0.50214 -0.02,0 -0.124,-0.0694 -0.2302,-0.1542 -0.106,-0.0848 -0.3064,-0.21364 -0.4432,-0.2863 -0.136,-0.0726 -0.3738,-0.26566 -0.5272,-0.42886 -0.154,-0.1632 -0.3412,-0.33796 -0.4172,-0.38836 -0.076,-0.0504 -0.235,-0.1562 -0.353,-0.2352 -0.118,-0.079 -0.2292,-0.1894 -0.247,-0.24564 -0.02,-0.0562 -0.078,-0.1142 -0.136,-0.129 -0.148,-0.0386 -0.251,-0.2837 -0.168,-0.39876 0.132,-0.1828 0.128,-0.23068 -0.036,-0.39876 -0.092,-0.094 -0.166,-0.21362 -0.166,-0.26568 0,-0.052 -0.138,-0.24144 -0.3072,-0.42082 -0.17,-0.1794 -0.3444,-0.38568 -0.3898,-0.45844 -0.046,-0.0728 -0.194,-0.25608 -0.3302,-0.40738 -0.136,-0.1512 -0.3126,-0.3966 -0.392,-0.54508 -0.16,-0.29888 -0.9428,-1.12058 -1.367,-1.4345 -0.3774,-0.27924 -0.5106,-0.4747 -0.4434,-0.65126 0.06,-0.156 0.036,-0.2266 -0.2328,-0.6924 -0.2462,-0.42748 -0.4534,-0.81148 -0.4534,-0.84026 0,-0.012 0.094,-0.0394 0.2094,-0.059 0.2758,-0.0466 0.3038,-0.1526 0.158,-0.59684 -0.106,-0.32164 -0.172,-0.41226 -0.6822,-0.93812 -0.3688,-0.3801 -0.5992,-0.6647 -0.6638,-0.8202 -0.054,-0.131 -0.142,-0.28728 -0.194,-0.34736 -0.052,-0.0602 -0.096,-0.1372 -0.096,-0.1716 0,-0.0342 -0.05,-0.0922 -0.11,-0.1288 -0.158,-0.0954 -0.3132,-0.42512 -0.3132,-0.66564 0,-0.133 -0.048,-0.27582 -0.132,-0.40134 -0.072,-0.1072 -0.132,-0.21174 -0.132,-0.23228 0,-0.0206 -0.096,-0.1802 -0.2116,-0.35484 -0.116,-0.1746 -0.2114,-0.34222 -0.2114,-0.37246 0,-0.0302 -0.048,-0.148 -0.106,-0.26164 l -0.106,-0.2067 0.112,-0.119 c 0.08,-0.0846 0.104,-0.162 0.084,-0.2675 -0.042,-0.22716 -0.196,-0.6149 -0.2802,-0.70828 -0.042,-0.046 -0.076,-0.1132 -0.076,-0.1494 0,-0.076 -0.4302,-0.5619 -1.204,-1.35968 -0.2982,-0.3076 -0.5424,-0.59142 -0.5424,-0.6307 0,-0.0392 0.046,-0.0858 0.102,-0.1034 0.15,-0.0476 0.18,-0.1878 0.08,-0.36958 -0.09,-0.1632 -0.3022,-0.3538 -1.0358,-0.92954 -0.2416,-0.1896 -0.4264,-0.37892 -0.4578,-0.46878 -0.028,-0.0828 -0.128,-0.22818 -0.2208,-0.3229 -0.18,-0.1842 -0.172,-0.21236 0.086,-0.31412 0.168,-0.0664 0.32,-0.02 0.9184,0.28106 0.3108,0.1564 0.579,0.2095 0.7672,0.1518 0.154,-0.0472 0.204,-0.0408 0.3048,0.0386 0.2476,0.1946 0.8158,0.42022 1.2034,0.47756 0.2628,0.039 0.5418,0.1292 0.8262,0.26708 0.2362,0.1146 0.4788,0.20832 0.5392,0.20832 0.06,0 0.124,0.022 0.14,0.0488 0.02,0.0268 0.154,0.0896 0.3074,0.1394 0.152,0.0498 0.301,0.1088 0.33,0.1312 0.154,0.1194 0.54,0.0496 0.5984,-0.1084 0.036,-0.0958 0.054,-0.0896 0.2492,0.0852 0.2686,0.2402 0.9512,0.56768 1.4874,0.71362 0.2292,0.0624 0.4434,0.135 0.4762,0.1614 0.076,0.061 0.2316,0.004 0.2316,-0.086 0,-0.0374 0.042,-0.1194 0.092,-0.1824 l 0.092,-0.1146 0.182,0.188 c 0.1,0.1034 0.2204,0.188 0.2672,0.188 0.046,0 0.108,0.0206 0.134,0.046 0.028,0.0252 0.17,0.0894 0.315,0.1424 0.24,0.0874 0.487,0.21496 0.5556,0.28666 0.02,0.016 0.205,0.1208 0.4232,0.23466 0.3008,0.1568 0.4622,0.2081 0.6658,0.21166 0.203,0.004 0.3128,0.0384 0.4498,0.1424 0.2966,0.22588 0.9994,0.5766 1.1552,0.5766 0.094,0 0.279,0.1014 0.5232,0.28652 0.208,0.1576 0.5396,0.36192 0.7368,0.45408 0.198,0.0922 0.446,0.22702 0.5528,0.29974 0.2258,0.1538 0.3792,0.1128 0.4368,-0.1166 l 0.034,-0.1374 0.186,0.1626 c 0.102,0.0894 0.2162,0.1626 0.2544,0.1626 0.038,0 0.112,0.0476 0.164,0.1058 0.052,0.0582 0.116,0.1058 0.142,0.1058 0.026,0 0.146,0.0642 0.2696,0.1424 0.3372,0.21456 0.6708,0.38672 0.7494,0.38672 0.038,0 0.098,0.0324 0.13,0.072 0.032,0.0396 0.196,0.086 0.3624,0.1032 0.2796,0.0288 0.319,0.0502 0.5156,0.27928 0.3258,0.37954 0.9186,0.96536 0.9474,0.9364 0.02,-0.014 0.104,0.0328 0.2014,0.1046 0.2282,0.1694 0.8598,0.46248 0.997,0.46248 0.068,0 0.126,-0.0522 0.16,-0.1392 0.05,-0.134 0.056,-0.1358 0.156,-0.0466 0.056,0.051 0.152,0.189 0.214,0.30666 0.062,0.1176 0.176,0.27614 0.2534,0.35214 0.078,0.076 0.2246,0.24022 0.3258,0.3649 0.102,0.1246 0.2584,0.27258 0.349,0.32866 0.09,0.056 0.2484,0.1806 0.3504,0.2768 0.102,0.0962 0.2846,0.20758 0.4058,0.24758 0.122,0.04 0.2468,0.1046 0.2792,0.1434 0.032,0.0388 0.092,0.0706 0.132,0.0706 0.04,0 0.118,0.0272 0.17,0.0606 0.162,0.1018 0.375,0.012 0.462,-0.197 0.042,-0.102 0.098,-0.1724 0.124,-0.1564 0.04,0.0246 0.2122,0.30514 0.5166,0.8402 0.116,0.2049 0.6596,0.78018 0.8648,0.9159 0.2112,0.1398 0.4204,0.1338 0.4204,-0.012 0,-0.0416 0.02,-0.0758 0.046,-0.0758 0.054,0 0.4586,0.613 0.636,0.96574 0.07,0.1382 0.144,0.25134 0.168,0.25134 0.022,0 0.09,0.1022 0.15,0.227 0.06,0.1248 0.2238,0.34512 0.363,0.48948 0.14,0.1444 0.2802,0.32202 0.3132,0.39478 0.162,0.35654 0.9006,1.05588 1.193,1.12924 0.076,0.02 0.188,0.1146 0.2484,0.21288 0.158,0.25616 0.585,0.57546 0.7314,0.54748 0.094,-0.018 0.146,0.0238 0.2514,0.20426 0.074,0.1248 0.134,0.26256 0.134,0.3062 0,0.1146 0.3546,0.778 0.499,0.9337 0.068,0.0728 0.156,0.194 0.196,0.26948 0.04,0.0754 0.188,0.3105 0.3278,0.5223 0.14,0.2118 0.2764,0.4358 0.3024,0.49778 0.06,0.1414 0.166,0.2741 0.2418,0.30258 0.032,0.012 0.2194,0.20636 0.4162,0.43192 0.196,0.22554 0.3848,0.41362 0.4178,0.41794 0.032,0.004 0.108,0.01 0.166,0.014 0.132,0.006 0.2828,0.3135 0.3468,0.70582 0.042,0.26348 0.19,0.7191 0.3074,0.95204 0.026,0.0516 0.174,0.35016 0.3294,0.6635 0.156,0.31334 0.3368,0.6211 0.4036,0.68392 0.066,0.0628 0.122,0.1472 0.122,0.1876 0,0.0404 0.084,0.1824 0.186,0.31588 0.102,0.1334 0.186,0.2666 0.186,0.29598 0,0.0294 0.12,0.1794 0.2646,0.33318 0.182,0.192 0.2646,0.32408 0.2646,0.4211 0,0.0778 0.114,0.33514 0.2548,0.57202 0.14,0.23688 0.3452,0.60928 0.456,0.82756 0.11,0.21828 0.2804,0.53976 0.377,0.71438 0.176,0.31758 0.2504,0.51596 0.4198,1.11124 0.05,0.1746 0.148,0.43692 0.2174,0.58286 0.07,0.146 0.128,0.29508 0.128,0.33144 0,0.0364 0.024,0.1074 0.052,0.158 0.098,0.1714 0.318,0.81824 0.318,0.93428 0,0.0634 0.022,0.138 0.048,0.1656 0.044,0.0466 0.116,0.28094 0.288,0.94984 0.038,0.1456 0.096,0.3166 0.13,0.38018 0.034,0.0636 0.062,0.1782 0.062,0.25482 0,0.0766 0.028,0.1912 0.062,0.25484 0.034,0.0636 0.08,0.199 0.102,0.3008 0.046,0.20814 0.382,1.15542 0.4636,1.30506 0.03,0.0534 0.11,0.2282 0.18,0.38826 0.07,0.16 0.2348,0.45774 0.3664,0.66146 0.2962,0.45834 1.812,2.034 1.8836,1.95792 0.086,-0.0922 0.224,-0.52016 0.246,-0.76728 0.052,-0.57336 0.138,-1.90778 0.188,-2.88396 0.126,-2.49008 0.3018,-4.48746 0.6882,-7.85814 0.148,-1.29054 0.2394,-2.12998 0.372,-3.41312 0.06,-0.58208 0.144,-1.3917 0.186,-1.79916 0.042,-0.40746 0.1,-0.90752 0.128,-1.11126 0.08,-0.57848 0.07,-1.11274 -0.024,-1.19062 -0.044,-0.0362 -0.08,-0.1422 -0.08,-0.23528 0,-0.1516 -0.02,-0.1746 -0.198,-0.2184 -0.156,-0.0384 -0.204,-0.0794 -0.225,-0.1904 -0.028,-0.1472 -0.2118,-0.32186 -0.4018,-0.38132 -0.06,-0.02 -0.2164,-0.1354 -0.346,-0.25864 -0.13,-0.1232 -0.3324,-0.29036 -0.4506,-0.3714 -0.118,-0.081 -0.3302,-0.2764 -0.4706,-0.4341 -0.14,-0.1578 -0.3286,-0.31614 -0.4178,-0.35206 -0.09,-0.036 -0.3636,-0.25418 -0.6092,-0.48502 -0.2458,-0.23082 -0.5076,-0.4434 -0.582,-0.47236 -0.074,-0.029 -0.2902,-0.22232 -0.4794,-0.42968 -0.3188,-0.34932 -0.7538,-0.7407 -1.0498,-0.94448 -0.068,-0.0468 -0.2754,-0.22256 -0.4608,-0.39052 -0.186,-0.168 -0.4312,-0.36666 -0.5458,-0.44156 -0.114,-0.075 -0.4016,-0.30884 -0.6374,-0.51984 -0.236,-0.211 -0.457,-0.38366 -0.4912,-0.38366 -0.034,0 -0.2544,-0.188 -0.4892,-0.41788 -0.62,-0.6069 -0.8912,-0.84762 -0.993,-0.88098 -0.05,-0.016 -0.104,-0.0722 -0.12,-0.1246 -0.02,-0.0524 -0.09,-0.1222 -0.162,-0.1552 -0.072,-0.033 -0.158,-0.1168 -0.19,-0.186 -0.032,-0.0692 -0.132,-0.1588 -0.2242,-0.1992 -0.104,-0.0456 -0.174,-0.1186 -0.184,-0.1926 -0.02,-0.0654 -0.038,-0.119 -0.064,-0.119 -0.026,0 -0.2284,-0.1548 -0.451,-0.34396 -0.2226,-0.1892 -0.4234,-0.34396 -0.4464,-0.34396 -0.022,0 -0.2412,-0.1928 -0.4846,-0.4282 -0.2436,-0.23552 -0.5262,-0.4722 -0.628,-0.52594 -0.102,-0.0538 -0.3574,-0.26588 -0.5678,-0.47138 -0.2104,-0.2055 -0.4068,-0.37366 -0.4364,-0.37366 -0.03,0 -0.144,-0.082 -0.2558,-0.1824 -0.112,-0.1004 -0.3194,-0.24332 -0.4632,-0.31774 -0.144,-0.0744 -0.3802,-0.2545 -0.5258,-0.40016 -0.146,-0.1456 -0.3716,-0.31634 -0.5026,-0.37926 -0.3258,-0.1566 -0.5712,-0.37622 -0.8106,-0.72554 -0.11,-0.1622 -0.2208,-0.30716 -0.2438,-0.32224 -0.024,-0.016 -0.082,-0.1062 -0.132,-0.20244 -0.05,-0.0962 -0.198,-0.24398 -0.3314,-0.32832 -0.134,-0.0844 -0.2762,-0.20252 -0.3184,-0.26264 -0.042,-0.0602 -0.19,-0.1744 -0.3282,-0.25376 -0.2974,-0.1708 -0.7462,-0.55602 -0.7462,-0.6406 0,-0.0328 -0.03,-0.0596 -0.066,-0.0598 -0.036,-2.2e-4 -0.2268,-0.1636 -0.423,-0.36322 -0.196,-0.1996 -0.4464,-0.42204 -0.5558,-0.4944 -0.114,-0.0756 -0.25,-0.23464 -0.3194,-0.37366 -0.12,-0.2408 -0.3004,-0.42074 -0.674,-0.67336 -0.172,-0.1154 -0.5866,-0.45604 -0.9648,-0.79056 -0.066,-0.058 -0.168,-0.1312 -0.2266,-0.163 -0.06,-0.0316 -0.2476,-0.20232 -0.4186,-0.37922 -0.3052,-0.31588 -0.4124,-0.54018 -0.3146,-0.65852 0.064,-0.0772 -0.088,-0.36646 -0.2836,-0.53672 -0.08,-0.07 -0.146,-0.1574 -0.146,-0.1944 0,-0.0368 -0.084,-0.1762 -0.186,-0.30972 -0.132,-0.174 -0.2078,-0.34938 -0.2646,-0.61962 -0.044,-0.20732 -0.08,-0.38376 -0.08,-0.3921 0,-0.008 -0.074,-0.092 -0.164,-0.186 -0.09,-0.094 -0.2,-0.2582 -0.243,-0.36504 -0.044,-0.1068 -0.168,-0.30142 -0.2772,-0.4324 -0.108,-0.131 -0.2726,-0.38644 -0.3642,-0.56772 -0.2766,-0.54732 -0.402,-0.71448 -0.8228,-1.09702 -0.3632,-0.33022 -0.3952,-0.37496 -0.3248,-0.45284 0.124,-0.1378 0.11,-0.31394 -0.066,-0.76638 -0.09,-0.23282 -0.2288,-0.64954 -0.3084,-0.92604 -0.08,-0.27648 -0.18,-0.60084 -0.2212,-0.72076 -0.108,-0.31102 -0.074,-0.45518 0.132,-0.54582 0.132,-0.0586 0.186,-0.1252 0.2304,-0.29084 0.08,-0.29398 0.078,-0.67396 0,-1.11486 -0.07,-0.38442 -0.084,-0.42228 -0.397,-1.09476 -0.104,-0.22378 -0.19,-0.47892 -0.19,-0.56702 0,-0.27162 -0.293,-1.0419 -0.475,-1.24864 -0.122,-0.1392 -0.172,-0.35952 -0.114,-0.51228 0.026,-0.0692 0.026,-0.176 6e-4,-0.24508 -0.026,-0.0672 -0.07,-0.2816 -0.102,-0.47624 -0.03,-0.1946 -0.07,-0.40688 -0.086,-0.47164 -0.022,-0.0898 0,-0.1322 0.104,-0.1784 0.074,-0.0334 0.148,-0.1114 0.166,-0.1732 0.032,-0.1158 -0.198,-1.14898 -0.3204,-1.43924 -0.038,-0.0894 -0.086,-0.36186 -0.106,-0.60558 -0.048,-0.57088 -0.02,-0.52118 -0.7264,-1.3173 -0.17,-0.1918 -0.3664,-0.43744 -0.4362,-0.54576 -0.07,-0.1084 -0.192,-0.23136 -0.2728,-0.27344 -0.2032,-0.1066 -0.5618,-0.48762 -0.521,-0.55356 0.022,-0.0374 0.084,-0.0368 0.196,0.002 0.108,0.0376 0.2,0.039 0.2766,0.004 0.138,-0.0628 0.7264,0.083 0.8744,0.21684 0.052,0.0476 0.144,0.0866 0.204,0.0866 0.06,0 0.136,0.0346 0.172,0.0768 0.068,0.0814 0.4758,0.2937 0.5646,0.2937 0.03,0 0.122,0.0714 0.205,0.1588 0.178,0.1868 0.2412,0.1956 0.3704,0.053 0.142,-0.1566 0.106,-0.166 0.7906,0.20824 0.174,0.0946 0.4996,0.3438 0.7258,0.55392 0.226,0.21012 0.4656,0.4075 0.5322,0.4386 0.134,0.063 0.4954,0.2036 0.6352,0.24766 0.05,0.016 0.124,0.107 0.166,0.20292 0.068,0.1566 0.2118,0.32506 0.4936,0.57768 0.052,0.0472 0.156,0.1038 0.228,0.1256 0.072,0.0218 0.2316,0.12 0.353,0.21838 0.122,0.0982 0.2414,0.1788 0.267,0.1788 0.026,0 0.138,0.0944 0.2512,0.20974 0.112,0.1154 0.381,0.2999 0.5962,0.4101 0.215,0.1102 0.467,0.2409 0.56,0.29044 0.2486,0.1326 0.384,0.1172 0.509,-0.0586 0.06,-0.0846 0.11,-0.1798 0.11,-0.21168 0,-0.0858 0.09,-0.0704 0.124,0.0214 0.02,0.0436 0.066,0.0794 0.108,0.0794 0.042,0 0.092,0.0482 0.112,0.1072 0.02,0.059 0.098,0.1474 0.176,0.1966 0.078,0.0492 0.2918,0.23302 0.4752,0.4087 0.184,0.1756 0.387,0.3473 0.452,0.3814 0.064,0.0342 0.15,0.1228 0.19,0.197 0.082,0.1548 0.3558,0.2634 0.5436,0.21626 0.106,-0.0268 0.16,0.01 0.3246,0.22256 0.2916,0.3775 0.6712,0.80914 0.881,1.0018 0.2646,0.24306 0.7352,0.54932 0.8442,0.54932 0.092,0 0.4478,0.36144 0.7824,0.79398 0.2224,0.2875 0.5844,0.57132 1.0424,0.81728 0.3716,0.1996 0.4324,0.20734 0.836,0.1062 0.108,-0.0272 0.152,-0.014 0.172,0.0492 0.062,0.1922 0.05,0.1734 0.405,0.69874 0.076,0.1138 0.211,0.28548 0.2982,0.38152 0.086,0.096 0.248,0.3887 0.3578,0.65032 0.182,0.43194 0.2386,0.51196 0.626,0.87046 0.2346,0.21714 0.456,0.3948 0.4922,0.3948 0.074,0 0.3094,-0.22046 0.351,-0.32772 0.036,-0.0948 0.2768,0.1836 0.4078,0.47324 0.056,0.1236 0.124,0.2249 0.152,0.2249 0.028,0 0.074,0.0718 0.106,0.1594 0.03,0.0878 0.098,0.1744 0.15,0.1928 0.052,0.018 0.174,0.1074 0.2702,0.1978 0.106,0.0996 0.2314,0.1644 0.3176,0.1644 0.132,0 0.144,0.0208 0.174,0.2646 0.032,0.26344 0.108,0.51548 0.2322,0.76728 0.036,0.0728 0.08,0.20374 0.1,0.29104 0.046,0.20888 0.2,0.51826 0.2832,0.57148 0.036,0.0232 0.066,0.085 0.066,0.137 0,0.1002 0.2382,0.23998 0.3214,0.1886 0.026,-0.016 0.048,-0.0666 0.048,-0.111 0,-0.195 0.138,-7.2e-4 0.347,0.48642 0.124,0.2896 0.3346,0.68912 0.4682,0.88786 0.134,0.1988 0.2432,0.3807 0.2432,0.4044 0,0.1228 0.501,0.9058 0.7104,1.1102 0.166,0.1614 0.2512,0.29466 0.2728,0.42334 0.02,0.1032 0.066,0.26286 0.106,0.35456 0.042,0.0918 0.074,0.22506 0.074,0.29634 0,0.0712 0.076,0.23436 0.168,0.36242 0.198,0.27292 0.3602,0.67362 0.3602,0.8884 0,0.0834 0.036,0.2372 0.08,0.34168 0.044,0.1044 0.08,0.26138 0.08,0.34866 0,0.0872 0.094,0.33212 0.2088,0.5441 0.158,0.29268 0.2334,0.38262 0.3118,0.37382 0.07,-0.008 0.12,0.0352 0.156,0.1322 0.058,0.1562 0.2634,0.9672 0.3322,1.30806 0.048,0.23852 0.132,0.5651 0.2404,0.94534 0.04,0.1416 0.074,0.32018 0.076,0.39688 0,0.137 0.136,0.54344 0.3674,1.1184 0.064,0.16 0.138,0.3982 0.164,0.52916 0.024,0.131 0.082,0.33338 0.124,0.4498 0.044,0.1164 0.08,0.33378 0.082,0.48302 0,0.1492 0.038,0.35684 0.082,0.46132 0.044,0.1044 0.08,0.28298 0.08,0.39668 0,0.1136 0.036,0.30796 0.08,0.43168 0.044,0.1238 0.08,0.28888 0.08,0.367 0,0.0782 0.044,0.3311 0.1,0.5622 0.2552,1.08208 0.3318,1.5479 0.5012,3.04982 0.038,0.34034 0.096,0.64992 0.126,0.68792 0.03,0.038 0.11,0.27152 0.174,0.5189 0.066,0.24738 0.15,0.50932 0.188,0.58208 0.038,0.0728 0.082,0.1932 0.096,0.2675 0.02,0.0744 0.1,0.24104 0.188,0.37042 0.088,0.1294 0.16,0.26692 0.16,0.30568 0,0.1014 0.3708,0.53806 0.4552,0.53806 0.16,0 0.2118,-0.22174 0.417,-1.7727 0.136,-1.02544 0.2348,-1.68266 0.3178,-2.1081 0.044,-0.2281 0.082,-0.59006 0.082,-0.80434 0,-0.30254 0.02,-0.4002 0.084,-0.4371 0.078,-0.0436 0.078,-0.061 0,-0.21166 -0.098,-0.1896 -0.11,-0.38786 -0.028,-0.46976 0.072,-0.073 0.076,-1.59324 0,-1.82984 -0.028,-0.0944 -0.068,-0.41506 -0.086,-0.7125 -0.02,-0.30504 -0.066,-0.60494 -0.11,-0.68792 -0.042,-0.081 -0.076,-0.2495 -0.078,-0.37464 0,-0.1252 -0.034,-0.29182 -0.074,-0.37042 -0.04,-0.0786 -0.09,-0.32148 -0.112,-0.53976 -0.022,-0.21828 -0.058,-0.42068 -0.08,-0.4498 -0.022,-0.029 -0.08,-0.2434 -0.128,-0.47624 -0.17,-0.83238 -0.198,-0.9532 -0.239,-1.00542 -0.022,-0.029 -0.058,-0.182 -0.078,-0.3396 -0.02,-0.1578 -0.07,-0.36896 -0.112,-0.4695 -0.042,-0.1006 -0.076,-0.26406 -0.076,-0.3634 0,-0.0994 -0.032,-0.23334 -0.072,-0.2978 -0.04,-0.0644 -0.088,-0.23072 -0.106,-0.36946 -0.02,-0.1388 -0.068,-0.32212 -0.112,-0.40748 -0.044,-0.0854 -0.08,-0.24048 -0.08,-0.3447 0,-0.1196 -0.03,-0.20074 -0.08,-0.21996 -0.044,-0.016 -0.08,-0.0772 -0.08,-0.1346 0,-0.0572 -0.06,-0.2814 -0.132,-0.49816 -0.072,-0.21674 -0.132,-0.50106 -0.132,-0.63182 0,-0.1308 -0.022,-0.27908 -0.048,-0.3296 -0.07,-0.1342 -0.3232,-1.0484 -0.3232,-1.1633 0,-0.054 -0.022,-0.1206 -0.05,-0.1484 -0.064,-0.065 -0.148,-0.78722 -0.211,-1.83288 -0.034,-0.55568 -0.076,-0.88186 -0.132,-0.9867 -0.044,-0.0862 -0.092,-0.29164 -0.106,-0.45666 -0.02,-0.165 -0.05,-0.3301 -0.08,-0.3668 -0.052,-0.0634 -0.16,-0.66888 -0.162,-0.91482 -6e-4,-0.065 0.04,-0.1286 0.094,-0.1454 0.134,-0.0426 0.2986,-0.33568 0.2334,-0.4162 -0.028,-0.035 -0.068,-0.21194 -0.088,-0.39314 -0.02,-0.1812 -0.082,-0.41838 -0.138,-0.52712 -0.056,-0.1088 -0.1,-0.23524 -0.1,-0.28114 0,-0.086 -0.162,-0.432 -0.2554,-0.54482 -0.028,-0.035 -0.07,-0.159 -0.09,-0.27538 -0.022,-0.1164 -0.058,-0.23802 -0.084,-0.27022 -0.026,-0.0322 -0.068,-0.1632 -0.096,-0.29106 -0.06,-0.28234 -0.2302,-0.87134 -0.304,-1.05268 -0.142,-0.34962 -0.116,-0.52224 0.088,-0.59062 0.03,-0.01 0.06,-0.1012 0.068,-0.20316 0.02,-0.27882 -0.072,-1.44756 -0.12,-1.5081 -0.022,-0.029 -0.058,-0.178 -0.078,-0.33068 -0.02,-0.1528 -0.058,-0.29006 -0.082,-0.3051 -0.024,-0.016 -0.06,-0.164 -0.078,-0.33078 -0.064,-0.57508 -0.066,-0.56802 0.078,-0.56802 0.184,0 0.2448,-0.161 0.317,-0.84394 0.034,-0.31864 0.068,-0.59248 0.076,-0.60854 0,-0.016 -0.02,-0.2644 -0.052,-0.55188 l -0.068,-0.5227 0.134,-0.20284 c 0.074,-0.1116 0.162,-0.34004 0.194,-0.50772 0.058,-0.29684 0.066,-0.30702 0.2964,-0.3867 0.2104,-0.0728 0.2434,-0.1072 0.303,-0.31288 0.036,-0.127 0.054,-0.25098 0.04,-0.27532 -0.02,-0.0244 0.02,-0.1032 0.058,-0.175 0.072,-0.1086 0.088,-0.32246 0.098,-1.25788 l 0.02,-1.12704 0.182,-0.0328 c 0.2768,-0.0498 0.4732,-0.1424 0.4732,-0.22306 0,-0.0398 0.05,-0.1178 0.112,-0.1732 0.2594,-0.23476 0.5172,-0.78074 0.6596,-1.39738 0.184,-0.79256 0.2092,-0.85736 0.3848,-0.95774 0.11,-0.063 0.17,-0.1604 0.2326,-0.3818 0.046,-0.1634 0.072,-0.3458 0.056,-0.40516 -0.02,-0.0594 0,-0.14 0.03,-0.179 0.056,-0.0676 0.098,-0.2323 0.2422,-0.9602 0.08,-0.40136 0.12,-0.49116 0.2416,-0.52956 0.054,-0.018 0.114,-0.1042 0.134,-0.196 0.02,-0.0908 0.058,-0.191 0.084,-0.2225 0.026,-0.0316 0.08,-0.1026 0.118,-0.158 0.058,-0.0842 0.094,-0.0918 0.2234,-0.047 0.084,0.0296 0.2034,0.0354 0.264,0.012 0.198,-0.0728 0.5766,-0.74696 0.6394,-1.13536 0.04,-0.2464 0.236,-0.83208 0.328,-0.97896 0.2454,-0.39148 0.394,-0.52916 0.5712,-0.52916 0.102,0 0.2182,-0.0418 0.2748,-0.0986 0.128,-0.1272 0.3886,-0.67924 0.4034,-0.8524 0,-0.0736 0.044,-0.27308 0.082,-0.44322 0.058,-0.25432 0.118,-0.35828 0.3386,-0.5842 0.2722,-0.27874 0.444,-0.6744 0.4804,-1.10594 0,-0.0936 0.02,-0.187 0.02,-0.20792 0,-0.0208 0.08,-0.122 0.17,-0.22462 0.098,-0.1118 0.17,-0.25858 0.18,-0.36562 0,-0.0984 0.048,-0.22946 0.086,-0.29132 0.072,-0.1162 0.3094,-0.1576 0.3094,-0.054 0,0.0322 0.06,0.1292 0.132,0.21572 0.072,0.0864 0.132,0.1894 0.132,0.22876 0,0.0394 0.04,0.1118 0.09,0.1612 0.064,0.064 0.108,0.26288 0.156,0.69526 0.072,0.66156 0.148,0.84042 0.396,0.93432 0.164,0.0616 0.18,0.1246 0.106,0.3839 -0.05,0.1778 0,0.46184 0.2442,1.2382 0.218,0.70728 0.5358,1.12276 0.7654,0.99996 0.058,-0.0308 0.118,-0.0434 0.132,-0.028 0.02,0.016 0.082,0.23248 0.15,0.48234 0.132,0.49448 0.316,0.78964 0.525,0.8421 0.088,0.0222 0.146,0.0826 0.168,0.1782 0.02,0.0796 0.056,0.171 0.08,0.20304 0.026,0.032 0.06,0.21068 0.078,0.39688 0.024,0.24434 0.066,0.37536 0.152,0.47084 0.11,0.1218 0.116,0.1598 0.074,0.47624 -0.12,0.9153 0.258,2.20502 0.6692,2.2833 0.094,0.018 0.108,0.0916 0.156,0.80064 0.05,0.7499 0.058,0.78576 0.192,0.89908 0.122,0.1024 0.148,0.1808 0.198,0.59428 0.07,0.59374 0.158,1.07876 0.2184,1.21708 0.026,0.0582 0.062,0.1598 0.08,0.2258 0.02,0.0668 0.108,0.1512 0.2018,0.1902 0.2982,0.1246 0.328,0.20126 0.2256,0.57958 -0.07,0.25568 -0.076,0.3659 -0.034,0.48102 0.044,0.1172 0.034,0.23614 -0.05,0.55344 -0.198,0.75004 -0.2618,1.15594 -0.2138,1.34044 0.026,0.0962 0.062,0.32604 0.082,0.51074 0.034,0.31474 0.048,0.34034 0.2066,0.40706 0.306,0.1278 0.3174,0.1796 0.14,0.64138 -0.2518,0.65522 -0.3302,1.06444 -0.268,1.40006 0.046,0.24388 0.036,0.32692 -0.058,0.57594 -0.06,0.16 -0.148,0.4636 -0.192,0.67458 -0.076,0.36118 -0.076,0.39212 0.02,0.52916 0.054,0.08 0.088,0.1694 0.078,0.1984 0,0.029 -0.06,0.25532 -0.112,0.5027 -0.052,0.2474 -0.134,0.58076 -0.182,0.74084 -0.096,0.3148 -0.162,0.6483 -0.2182,1.12042 -0.034,0.27912 -0.026,0.30928 0.104,0.4294 0.076,0.071 0.14,0.1658 0.14,0.21054 0,0.0448 -0.192,0.46344 -0.426,0.93042 -0.4388,0.87512 -0.5484,1.23124 -0.5516,1.79164 0,0.20574 0.022,0.29324 0.094,0.34536 0.084,0.0616 0.088,0.1008 0.04,0.333 -0.032,0.1448 -0.09,0.34652 -0.132,0.44838 -0.042,0.1018 -0.09,0.2951 -0.108,0.42938 -0.02,0.1564 -0.108,0.36274 -0.2466,0.57446 -0.3876,0.59652 -0.8312,1.54034 -0.94,2.00014 -0.072,0.30558 -0.154,0.50076 -0.2698,0.64724 -0.092,0.1154 -0.2258,0.322 -0.2986,0.45922 -0.072,0.1372 -0.186,0.31344 -0.2524,0.3916 -0.17,0.20324 -0.5072,1.13506 -0.5072,1.40562 0,0.1384 -0.3916,0.94344 -0.5884,1.20964 -0.2154,0.29132 -0.7346,1.10286 -0.7346,1.14812 0,0.0546 -1.0926,2.2564 -1.2422,2.50314 -0.5838,0.96262 -0.9042,1.62066 -1.1726,2.4077 -0.134,0.3929 -0.2612,0.72628 -0.2824,0.74084 -0.022,0.014 -0.052,0.126 -0.068,0.24762 -0.02,0.1216 -0.076,0.27108 -0.132,0.3321 -0.056,0.061 -0.134,0.21152 -0.172,0.33446 -0.038,0.123 -0.11,0.31878 -0.16,0.43518 -0.05,0.1164 -0.12,0.39026 -0.154,0.60854 -0.034,0.2183 -0.096,0.5993 -0.136,0.84668 -0.04,0.24738 -0.098,0.61648 -0.13,0.8202 -0.032,0.20374 -0.08,0.5133 -0.11,0.68792 -0.03,0.1746 -0.09,0.61516 -0.132,0.97896 -0.2,1.68054 -0.2068,1.8898 -0.058,1.6894 0.034,-0.0458 0.104,-0.1062 0.154,-0.1342 0.2894,-0.16 1.3306,-1.1914 1.4196,-1.40634 0.034,-0.0818 0.082,-0.1488 0.108,-0.1488 0.026,0 0.046,-0.0278 0.046,-0.0618 0,-0.034 0.036,-0.0994 0.08,-0.1456 0.2664,-0.28056 1.0166,-1.40848 1.1076,-1.66488 0.032,-0.0908 0.098,-0.22472 0.146,-0.29748 0.048,-0.0728 0.128,-0.22754 0.178,-0.34396 0.17,-0.3955 0.2266,-0.52888 0.3126,-0.74084 0.048,-0.1164 0.108,-0.25302 0.136,-0.30354 0.028,-0.0506 0.05,-0.1242 0.05,-0.1638 0,-0.0396 0.048,-0.115 0.106,-0.1676 0.058,-0.0526 0.106,-0.1524 0.106,-0.22152 0,-0.0692 0.036,-0.1394 0.08,-0.1562 0.044,-0.016 0.08,-0.0536 0.08,-0.0816 0,-0.0832 0.431,-0.78412 0.4822,-0.78412 0.026,0 0.046,-0.0566 0.046,-0.1258 0,-0.0692 0.036,-0.1554 0.08,-0.1916 0.044,-0.0362 0.08,-0.0932 0.08,-0.1268 0,-0.0334 0.086,-0.1912 0.192,-0.35072 0.106,-0.1594 0.234,-0.39862 0.2866,-0.5316 0.178,-0.45142 0.5124,-1.05296 0.711,-1.27914 0.2948,-0.33618 0.8222,-1.11228 0.8222,-1.21022 0,-0.0472 0.044,-0.1424 0.098,-0.21184 0.11,-0.1426 0.484,-0.8346 0.484,-0.89772 0,-0.0226 0.102,-0.1896 0.2248,-0.371 0.124,-0.1814 0.2964,-0.45534 0.3836,-0.60874 0.198,-0.34728 0.4246,-0.60352 0.5342,-0.60352 0.108,0 0.7316,-0.59816 0.8808,-0.84388 0.062,-0.1034 0.128,-0.1998 0.146,-0.21446 0.02,-0.014 0.136,-0.21696 0.2606,-0.4498 0.126,-0.23282 0.2612,-0.46076 0.301,-0.5065 0.04,-0.0458 0.154,-0.25112 0.254,-0.4564 0.166,-0.33936 0.2,-0.3765 0.3738,-0.40926 0.146,-0.0272 0.288,-0.1332 0.586,-0.43512 0.2166,-0.2195 0.3938,-0.41818 0.3938,-0.44152 0,-0.0234 0.078,-0.1604 0.172,-0.30468 0.094,-0.1442 0.2644,-0.41334 0.3774,-0.598 l 0.2052,-0.33576 0.094,0.1164 c 0.052,0.064 0.12,0.1164 0.152,0.1164 0.128,0 0.7316,-0.46784 1.1552,-0.89592 0.373,-0.3768 0.8592,-0.99274 1.0318,-1.3072 0.022,-0.0398 0.064,-0.114 0.092,-0.165 0.03,-0.051 0.076,-0.1448 0.104,-0.20882 0.032,-0.074 0.116,-0.1286 0.231,-0.1502 0.176,-0.0332 0.5756,-0.39094 0.7948,-0.71264 0.05,-0.0728 0.174,-0.2573 0.2758,-0.4101 0.102,-0.1528 0.2086,-0.2778 0.2368,-0.2778 0.028,0 0.1,0.0476 0.158,0.1058 0.14,0.1394 0.164,0.1356 0.4344,-0.0662 0.126,-0.0946 0.3194,-0.2174 0.4274,-0.27292 0.108,-0.0556 0.196,-0.1204 0.196,-0.1442 0,-0.0238 0.078,-0.0826 0.172,-0.1306 0.094,-0.048 0.3192,-0.22132 0.4992,-0.385 0.18,-0.1636 0.4062,-0.36246 0.5026,-0.4417 0.096,-0.0792 0.2544,-0.21364 0.3508,-0.29864 l 0.176,-0.1546 0.126,0.1266 c 0.07,0.0696 0.156,0.1266 0.19,0.1266 0.09,0 0.675,-0.33318 1.2642,-0.72008 0.2766,-0.1816 0.6456,-0.4236 0.8202,-0.53796 0.2678,-0.1752 0.3368,-0.1994 0.4396,-0.1534 0.2398,0.107 0.9708,-0.24734 1.4958,-0.72498 0.2292,-0.2087 0.291,-0.24182 0.3368,-0.1808 0.03,0.0412 0.098,0.0908 0.15,0.1104 0.116,0.0432 0.6036,-0.1176 1.1752,-0.38652 0.7942,-0.37366 0.8998,-0.4196 1.2144,-0.52778 0.172,-0.0596 0.3636,-0.1398 0.4232,-0.1786 0.06,-0.0386 0.174,-0.0864 0.2542,-0.1062 0.08,-0.02 0.146,-0.0592 0.146,-0.0878 0,-0.1028 0.152,-0.049 0.2528,0.0894 0.102,0.139 0.106,0.1402 0.3616,0.0712 0.142,-0.0386 0.6398,-0.195 1.1054,-0.34786 0.4656,-0.1528 0.8646,-0.26672 0.8864,-0.25324 0.022,0.014 0.04,0.0812 0.04,0.1506 0,0.0694 0.02,0.1376 0.042,0.1516 0.064,0.0392 0.735,-0.1134 0.9198,-0.20894 0.09,-0.0466 0.2824,-0.12 0.4276,-0.163 0.3746,-0.1112 1.0002,-0.41668 1.234,-0.60248 0.11,-0.087 0.3244,-0.1946 0.4776,-0.23912 0.154,-0.0446 0.3398,-0.129 0.4144,-0.1876 0.14,-0.1108 0.19,-0.1014 0.3852,0.0736 0.116,0.1044 0.118,0.1044 0.2978,-0.002 0.1,-0.0588 0.2556,-0.1232 0.3466,-0.1432 0.09,-0.02 0.166,-0.0564 0.166,-0.081 0,-0.0246 0.086,-0.0728 0.19,-0.1072 0.104,-0.0344 0.2888,-0.1194 0.41,-0.1886 0.122,-0.0694 0.271,-0.1264 0.3328,-0.1268 0.062,-3.8e-4 0.234,-0.0976 0.3828,-0.21622 0.2196,-0.1748 0.3334,-0.22464 0.6022,-0.26352 0.4042,-0.0584 1.046,-0.0648 1.0456,-0.01 -8e-4,0.0974 -0.215,0.3461 -0.5798,0.67302 -0.2172,0.1948 -0.4706,0.46522 -0.5632,0.60116 -0.092,0.136 -0.2194,0.27758 -0.2814,0.31476 -0.062,0.0372 -0.198,0.20004 -0.3014,0.36194 -0.104,0.162 -0.3476,0.46486 -0.5424,0.67326 -0.3292,0.35216 -0.6508,0.76128 -0.8684,1.10462 -0.164,0.25752 -0.09,0.67656 0.118,0.67656 0.253,0 0.267,0.0406 0.134,0.3878 -0.068,0.1796 -0.198,0.46944 -0.2864,0.64406 -0.09,0.1746 -0.162,0.34424 -0.164,0.3769 0,0.22842 -0.3152,0.94638 -0.6358,1.45976 -0.2052,0.32864 -0.3986,0.69276 -0.4298,0.80918 -0.032,0.1164 -0.082,0.24344 -0.114,0.28228 -0.032,0.0388 -0.058,0.1864 -0.058,0.32776 0,0.20802 0.028,0.28412 0.142,0.39822 l 0.142,0.141 -0.178,0.1728 c -0.098,0.095 -0.2632,0.30078 -0.3676,0.45722 -0.2778,0.41624 -0.3598,0.53214 -0.495,0.69906 -0.066,0.0826 -0.15,0.26002 -0.182,0.39446 -0.048,0.1862 -0.15,0.34008 -0.4362,0.6463 -0.206,0.22104 -0.4098,0.47214 -0.4526,0.55804 -0.042,0.086 -0.156,0.24554 -0.2514,0.35476 -0.096,0.1092 -0.174,0.23342 -0.174,0.27598 0,0.0426 -0.072,0.1588 -0.158,0.25818 -0.172,0.1964 -0.205,0.40652 -0.08,0.5108 0.118,0.098 0.096,0.20786 -0.052,0.2645 -0.072,0.0276 -0.2572,0.1468 -0.41,0.26462 -0.5328,0.4108 -0.7822,0.5952 -1.0982,0.81186 -0.2398,0.1644 -0.3234,0.26354 -0.52,0.61694 -0.126,0.22678 -0.15,0.31232 -0.108,0.38744 0.07,0.1226 -0.062,0.28232 -0.3252,0.39338 -0.154,0.065 -0.4536,0.25448 -0.7132,0.45076 -0.03,0.0226 -0.2684,0.1982 -0.5304,0.39056 -0.262,0.1922 -0.649,0.51318 -0.86,0.7131 -0.2112,0.2 -0.4072,0.3635 -0.4356,0.3635 -0.028,0 -0.178,0.1256 -0.3304,0.27924 -0.154,0.1536 -0.3444,0.32082 -0.4246,0.37164 -0.112,0.0706 -0.146,0.134 -0.146,0.26926 0,0.22148 -0.15,0.41736 -0.409,0.53158 -0.11,0.0484 -0.259,0.1224 -0.3318,0.1642 -0.072,0.0418 -0.172,0.0762 -0.222,0.0768 -0.118,0.001 -0.8486,0.38046 -1.0936,0.5679 -0.2028,0.1552 -0.4408,0.26014 -0.7482,0.32982 -0.184,0.0416 -0.8836,0.33524 -1.1906,0.49926 -0.088,0.0466 -0.2124,0.085 -0.2782,0.0852 -0.066,1.6e-4 -0.2182,0.0718 -0.3386,0.159 -0.12,0.0872 -0.2514,0.1588 -0.2906,0.1588 -0.04,0 -0.072,0.0202 -0.072,0.0448 0,0.0698 -0.235,0.32572 -0.2988,0.32572 -0.032,0 -0.116,0.0462 -0.188,0.1026 -0.072,0.0564 -0.2,0.1198 -0.2832,0.141 -0.084,0.021 -0.178,0.0578 -0.2076,0.0814 -0.3578,0.28206 -0.6168,0.50132 -0.7722,0.6541 -0.104,0.1018 -0.211,0.1852 -0.2384,0.1852 -0.028,0 -0.118,0.0714 -0.2,0.1588 -0.082,0.0874 -0.192,0.1588 -0.244,0.1588 -0.052,0 -0.15,0.0432 -0.2204,0.096 -0.152,0.116 -0.6422,0.32732 -0.7584,0.32732 -0.046,0 -0.13,0.0238 -0.188,0.053 -0.058,0.029 -0.152,0.0768 -0.211,0.1058 -0.058,0.029 -0.148,0.0738 -0.198,0.0996 -0.2852,0.1436 -0.5888,0.27088 -0.6458,0.27088 -0.036,0 -0.126,0.0476 -0.2,0.1058 -0.074,0.0582 -0.178,0.1058 -0.2302,0.1058 -0.052,0 -0.126,0.044 -0.164,0.0978 -0.038,0.0538 -0.176,0.146 -0.3072,0.20462 -0.13,0.0588 -0.2956,0.1578 -0.3658,0.22012 -0.07,0.0624 -0.225,0.141 -0.344,0.175 -0.118,0.0338 -0.252,0.0896 -0.2956,0.1236 -0.194,0.152 -0.6854,0.39596 -0.7968,0.39596 -0.068,0 -0.174,0.0486 -0.2374,0.108 -0.064,0.0594 -0.207,0.1228 -0.3198,0.1412 -0.112,0.018 -0.3114,0.1008 -0.4414,0.1832 -0.13,0.0824 -0.2656,0.1498 -0.3014,0.1498 -0.036,0 -0.096,0.0298 -0.136,0.0662 -0.038,0.0364 -0.2812,0.1734 -0.539,0.30428 -0.594,0.30178 -0.7756,0.40348 -0.8454,0.47332 -0.03,0.0308 -0.092,0.0566 -0.138,0.0576 -0.046,10e-4 -0.178,0.0478 -0.2938,0.104 -0.116,0.0562 -0.2404,0.103 -0.2754,0.104 -0.078,0.002 -0.4318,0.23818 -0.5124,0.34196 -0.032,0.0416 -0.158,0.1012 -0.2776,0.1326 -0.12,0.0314 -0.247,0.0912 -0.2814,0.1328 -0.034,0.0416 -0.132,0.091 -0.2182,0.1098 -0.086,0.018 -0.18,0.0798 -0.21,0.1356 -0.036,0.0662 -0.11,0.1016 -0.216,0.1016 -0.09,0 -0.2194,0.0454 -0.2898,0.1008 -0.072,0.0572 -0.174,0.0888 -0.2334,0.0732 -0.074,-0.02 -0.106,-0.001 -0.106,0.0594 0,0.0544 -0.06,0.0988 -0.16,0.1188 -0.088,0.018 -0.172,0.0526 -0.188,0.078 -0.02,0.0254 -0.074,0.046 -0.128,0.046 -0.056,0 -0.188,0.0596 -0.2952,0.1322 -0.108,0.0728 -0.2378,0.1322 -0.2904,0.1322 -0.052,0 -0.11,0.0238 -0.128,0.053 -0.02,0.029 -0.078,0.053 -0.136,0.053 -0.056,0 -0.102,0.0362 -0.102,0.0806 0,0.0878 -0.2426,0.20362 -0.3228,0.154 -0.028,-0.016 -0.13,0.018 -0.2268,0.079 -0.098,0.0602 -0.237,0.1096 -0.31,0.1096 -0.072,0 -0.162,0.0358 -0.198,0.0794 -0.036,0.0436 -0.1,0.0794 -0.144,0.0794 -0.042,0 -0.14,0.0486 -0.215,0.1078 -0.094,0.0742 -0.182,0.0982 -0.2776,0.077 -0.092,-0.0204 -0.164,-0.004 -0.2084,0.0508 -0.038,0.045 -0.112,0.0818 -0.166,0.0818 -0.054,0 -0.14,0.0434 -0.192,0.0964 -0.116,0.1174 -0.487,0.25796 -0.809,0.3061 -0.13,0.02 -0.2804,0.0794 -0.3318,0.133 -0.076,0.078 -0.142,0.0908 -0.3338,0.0644 -0.196,-0.0268 -0.2686,-0.012 -0.3938,0.0806 -0.084,0.0624 -0.18,0.1134 -0.212,0.1134 -0.032,0 -0.142,0.064 -0.2454,0.1424 -0.168,0.1284 -0.4144,0.1972 -0.8646,0.24142 -0.12,0.012 -0.136,0.0426 -0.172,0.33052 -0.072,0.58208 -0.202,1.84016 -0.3052,2.93688 -0.148,1.56928 -0.345,3.51216 -0.556,5.47688 -0.2242,2.08588 -0.2992,2.8429 -0.3668,3.70416 -0.042,0.52388 -0.088,1.04776 -0.104,1.16418 -0.02,0.1164 -0.054,0.73554 -0.084,1.37582 -0.03,0.6403 -0.076,1.53326 -0.104,1.98438 -0.09,1.4611 -0.114,2.43416 -0.06,2.43416 0.028,0 0.066,-0.0464 0.084,-0.1032 0.02,-0.0568 0.074,-0.1162 0.122,-0.1322 0.16,-0.0518 1.3658,-1.26414 1.5552,-1.5638 0.428,-0.67742 0.5192,-0.8323 0.5192,-0.88278 0,-0.0294 0.048,-0.0964 0.106,-0.1492 0.058,-0.0526 0.106,-0.149 0.106,-0.2142 0,-0.0652 0.036,-0.1322 0.08,-0.1488 0.044,-0.016 0.08,-0.086 0.08,-0.1538 0,-0.0678 0.022,-0.146 0.048,-0.1736 0.026,-0.0276 0.148,-0.34792 0.2674,-0.71172 0.12,-0.3638 0.2376,-0.70908 0.2608,-0.7673 0.088,-0.21968 0.174,-0.48234 0.2172,-0.6547 0.024,-0.0982 0.07,-0.2041 0.102,-0.23548 0.032,-0.0314 0.058,-0.0924 0.058,-0.1356 0,-0.0432 0.05,-0.1872 0.112,-0.32014 0.293,-0.63204 0.4882,-1.04242 0.5298,-1.11472 0.026,-0.0436 0.118,-0.22226 0.2068,-0.39688 0.088,-0.1746 0.18,-0.35322 0.203,-0.39688 0.3124,-0.5934 0.6416,-1.25678 0.6416,-1.29322 0,-0.02 0.058,-0.1598 0.128,-0.31084 0.07,-0.151 0.142,-0.31662 0.158,-0.36812 0.02,-0.0514 0.114,-0.1432 0.2164,-0.20366 0.102,-0.0606 0.186,-0.1296 0.186,-0.1534 0,-0.0238 0.088,-0.1422 0.198,-0.26282 0.3124,-0.3481 0.9862,-1.29224 1.1712,-1.64126 0.07,-0.131 0.156,-0.27386 0.194,-0.3175 0.096,-0.1122 0.2414,-0.47926 0.2102,-0.52962 -0.02,-0.0232 0.058,-0.0912 0.16,-0.1514 0.102,-0.06 0.186,-0.1398 0.186,-0.1772 8e-4,-0.0374 0.072,-0.1374 0.158,-0.22228 0.086,-0.0848 0.158,-0.1942 0.158,-0.24314 0,-0.0488 0.048,-0.132 0.106,-0.1846 0.058,-0.0526 0.106,-0.1242 0.106,-0.159 0,-0.0348 0.072,-0.1618 0.158,-0.28238 0.088,-0.1206 0.158,-0.24536 0.158,-0.27742 0,-0.032 0.048,-0.1188 0.106,-0.1928 0.058,-0.074 0.106,-0.1694 0.106,-0.21184 0,-0.0426 0.034,-0.1404 0.074,-0.21776 0.042,-0.0772 0.176,-0.35028 0.3014,-0.60672 0.124,-0.25646 0.2458,-0.47812 0.2692,-0.4926 0.024,-0.014 0.042,-0.0834 0.042,-0.1532 0,-0.1932 0.227,-0.50068 0.328,-0.44418 0.06,0.034 0.164,-0.0336 0.4072,-0.264 0.2132,-0.20298 0.3696,-0.3097 0.4538,-0.3097 0.074,0 0.264,-0.1088 0.4502,-0.25796 0.8514,-0.68194 1.0756,-0.8727 1.176,-1.0002 0.092,-0.118 0.136,-0.1332 0.3004,-0.1056 0.174,0.0294 0.212,0.012 0.401,-0.1816 0.116,-0.1178 0.2346,-0.2141 0.266,-0.2141 0.068,0 0.9178,-0.84092 0.9932,-0.98372 0.08,-0.1526 0.423,-0.49794 0.4938,-0.49794 0.034,0 0.098,0.0536 0.142,0.119 0.076,0.114 0.084,0.1152 0.182,0.0264 0.056,-0.051 0.12,-0.0926 0.142,-0.0926 0.142,0 0.7534,-0.37298 1.3364,-0.81648 0.2234,-0.1698 0.6536,-0.68146 0.6536,-0.7771 0,-0.0386 0.058,-0.0486 0.16,-0.028 0.146,0.0292 0.192,-0.002 0.5236,-0.35078 0.2,-0.2105 0.5394,-0.6446 0.7544,-0.96464 0.7272,-1.0825 0.7844,-1.14816 0.849,-0.97466 0.048,0.1314 0.2034,0.1296 0.3734,-0.004 0.074,-0.0582 0.16,-0.1058 0.192,-0.1058 0.032,0 0.058,-0.0234 0.058,-0.0518 0,-0.0286 0.096,-0.1004 0.2116,-0.1598 0.116,-0.0594 0.2118,-0.1272 0.2118,-0.151 0,-0.06 0.5006,-0.37824 0.595,-0.37824 0.042,0 0.136,-0.0536 0.2084,-0.119 0.072,-0.0656 0.3078,-0.2122 0.5236,-0.32602 0.4282,-0.22562 0.422,-0.2211 0.838,-0.61004 0.158,-0.1474 0.3024,-0.2678 0.3222,-0.2678 0.02,0 0.064,0.0596 0.096,0.1322 0.078,0.1716 0.14,0.1658 0.4542,-0.0406 0.4004,-0.26374 0.4148,-0.27278 0.6402,-0.3992 0.116,-0.0654 0.283,-0.165 0.3704,-0.22158 0.088,-0.0566 0.253,-0.1542 0.3682,-0.21684 0.116,-0.0628 0.3294,-0.1968 0.4762,-0.29808 l 0.2668,-0.184 0.08,0.19 c 0.044,0.1044 0.106,0.20032 0.14,0.21302 0.032,0.012 0.176,-0.014 0.3176,-0.058 0.142,-0.0446 0.3412,-0.1052 0.4432,-0.1346 0.2368,-0.0686 0.7212,-0.29404 0.807,-0.37576 0.036,-0.0346 0.126,-0.0926 0.198,-0.1292 0.072,-0.0364 0.2632,-0.1494 0.4234,-0.25106 0.4164,-0.26442 0.6086,-0.33954 1.0164,-0.39738 0.198,-0.0282 0.411,-0.081 0.4726,-0.1174 0.09,-0.053 0.118,-0.053 0.136,-1e-4 0.058,0.159 0.682,0.0206 1.338,-0.29632 0.2184,-0.1054 0.4326,-0.21838 0.4764,-0.25094 0.044,-0.0326 0.2102,-0.1034 0.3704,-0.1574 0.16,-0.054 0.3542,-0.1408 0.4314,-0.1928 0.2,-0.1344 0.3012,-0.118 0.4044,0.0656 0.074,0.132 0.114,0.1544 0.2224,0.1272 0.134,-0.0336 0.2758,-0.0566 1.27,-0.20552 0.606,-0.0908 0.9318,-0.1912 1.0892,-0.33596 0.178,-0.1628 0.4802,-0.3281 0.6014,-0.3281 0.064,0 0.3176,-0.0708 0.5624,-0.1572 l 0.4454,-0.1572 0.086,0.1328 c 0.146,0.22272 0.2238,0.23298 0.7072,0.0934 0.4024,-0.1162 0.855,-0.34604 1.0488,-0.5325 0.038,-0.037 0.088,-0.0672 0.112,-0.0672 0.024,0 0.122,-0.0696 0.219,-0.1546 l 0.178,-0.1546 0.172,0.151 0.172,0.1512 0.518,-0.26808 c 0.2848,-0.1474 0.631,-0.32572 0.7692,-0.3962 0.241,-0.1228 0.743,-0.2447 0.9658,-0.23446 0.058,0.002 0.148,0.006 0.198,0.008 0.2728,0.012 0.072,0.37734 -0.4998,0.90558 -1.345,1.24462 -1.456,1.363 -1.3192,1.40862 0.138,0.046 0.044,0.22274 -0.2282,0.42832 -0.158,0.12 -0.3038,0.21802 -0.322,0.21802 -0.1,0 -0.631,0.6343 -0.747,0.89194 -0.2822,0.62686 -0.2788,0.87004 0.02,0.99258 0.132,0.0554 0.168,0.096 0.142,0.166 -0.048,0.1308 -0.3074,0.60978 -0.4648,0.85904 -0.074,0.1158 -0.132,0.23194 -0.132,0.25828 0,0.0264 -0.058,0.0858 -0.128,0.132 -0.07,0.0462 -0.142,0.1264 -0.158,0.178 -0.02,0.0518 -0.102,0.1346 -0.19,0.1842 -0.088,0.0496 -0.158,0.1294 -0.158,0.1776 0,0.0482 -0.06,0.1582 -0.132,0.24466 -0.072,0.0864 -0.132,0.1952 -0.132,0.2416 0,0.0464 -0.034,0.122 -0.076,0.168 -0.042,0.046 -0.092,0.147 -0.11,0.2247 -0.028,0.1106 -0.02,0.154 0.076,0.2003 0.13,0.0692 0.144,0.22598 0.032,0.32 -0.044,0.0362 -0.08,0.098 -0.08,0.1372 0,0.0674 -0.116,0.33074 -0.301,0.68306 -0.2142,0.40768 -0.3468,0.6478 -0.4384,0.79376 -0.13,0.20788 -0.13,0.26604 0,0.39122 l 0.112,0.1044 -0.2438,0.2826 c -0.279,0.3231 -0.7142,0.71364 -1.161,1.04172 -0.4602,0.33786 -1.295,1.17478 -1.3342,1.33756 -0.026,0.1104 0,0.1542 0.078,0.20106 0.11,0.0586 0.11,0.0638 0.02,0.22924 -0.052,0.0932 -0.172,0.2686 -0.266,0.38992 -0.094,0.1214 -0.172,0.234 -0.172,0.2504 0,0.016 -0.084,0.1156 -0.186,0.22054 -0.102,0.1048 -0.186,0.21394 -0.186,0.24234 0,0.0284 -0.2892,0.33288 -0.6424,0.67664 l -0.6424,0.62502 0.026,0.27024 c 0.026,0.27482 -0.052,0.43112 -0.218,0.43112 -0.086,0 -0.9448,0.41722 -1.3542,0.6576 -0.174,0.1026 -0.376,0.21208 -0.4474,0.24346 -0.072,0.0314 -0.2442,0.1392 -0.3838,0.23946 -0.14,0.1004 -0.2678,0.1824 -0.2846,0.1824 -0.02,0 -0.132,0.0834 -0.2566,0.1852 -0.124,0.1018 -0.2412,0.1852 -0.2596,0.1852 -0.02,0 -0.154,0.1132 -0.299,0.25136 -0.146,0.1382 -0.3594,0.3303 -0.474,0.42678 -0.132,0.1106 -0.198,0.20452 -0.178,0.25404 0.038,0.099 -0.182,0.33782 -0.31,0.33782 -0.054,0 -0.098,0.018 -0.098,0.0396 -8e-4,0.0218 -0.156,0.135 -0.3462,0.25136 -0.19,0.1164 -0.4568,0.28472 -0.5938,0.37402 -0.138,0.0892 -0.2848,0.1798 -0.3286,0.20096 -0.4142,0.20152 -0.5158,0.30024 -0.688,0.66856 -0.02,0.0436 -0.086,0.0866 -0.146,0.0956 -0.06,0.008 -0.15,0.0624 -0.2012,0.119 -0.052,0.0566 -0.12,0.1028 -0.154,0.1028 -0.16,0 -0.6366,0.29294 -0.944,0.58042 -0.188,0.1756 -0.3672,0.31916 -0.3988,0.31916 -0.032,0 -0.084,0.0476 -0.114,0.1058 -0.032,0.0582 -0.104,0.1058 -0.162,0.1058 -0.058,0 -0.12,0.037 -0.138,0.0822 -0.02,0.0452 -0.142,0.1314 -0.2762,0.1914 -0.4898,0.21848 -0.5786,0.2555 -0.6128,0.2555 -0.02,0 -0.122,0.07 -0.23,0.1554 -0.108,0.0854 -0.2668,0.1728 -0.3542,0.1942 -0.2848,0.0694 -0.8202,0.46624 -0.8202,0.60774 0,0.1598 -0.4648,0.54206 -0.9524,0.7835 -0.19,0.0936 -0.4392,0.2265 -0.5558,0.29524 -0.116,0.0688 -0.25,0.127 -0.297,0.1292 -0.048,0.002 -0.144,0.0502 -0.2152,0.1064 -0.072,0.0562 -0.3188,0.20064 -0.5496,0.3211 -0.2308,0.1204 -0.4462,0.25316 -0.4786,0.29482 -0.032,0.0416 -0.08,0.0758 -0.106,0.0758 -0.092,0 -0.846,0.39188 -1.034,0.53808 -0.106,0.0824 -0.2152,0.1498 -0.2424,0.1498 -0.028,0 -0.192,0.129 -0.3664,0.28672 -0.222,0.20086 -0.5456,0.4015 -1.0806,0.6699 -0.42,0.21076 -0.7994,0.41228 -0.843,0.44784 -0.044,0.0356 -0.138,0.0824 -0.2088,0.1042 -0.072,0.0218 -0.2378,0.1052 -0.3704,0.1856 -0.132,0.0802 -0.3006,0.164 -0.3734,0.186 -0.072,0.022 -0.2274,0.101 -0.344,0.1754 -0.116,0.0744 -0.3656,0.2149 -0.554,0.31222 -0.188,0.0974 -0.3832,0.21374 -0.433,0.25874 -0.112,0.1016 -0.3154,0.21398 -0.8914,0.4929 -0.2474,0.1198 -0.5094,0.24996 -0.5822,0.28924 -0.072,0.0394 -0.21,0.088 -0.305,0.1084 -0.096,0.0204 -0.2994,0.1046 -0.4544,0.1874 -0.156,0.0828 -0.375,0.1676 -0.4888,0.1888 -0.114,0.0212 -0.2546,0.0688 -0.3128,0.1058 -0.058,0.037 -0.251,0.1158 -0.4286,0.175 -0.178,0.0592 -0.3918,0.1432 -0.4762,0.1866 -0.3226,0.1658 -0.64,0.29576 -0.7228,0.29576 -0.048,0 -0.1,0.0238 -0.118,0.053 -0.02,0.029 -0.08,0.053 -0.138,0.053 -0.058,0 -0.198,0.0476 -0.3122,0.1058 -0.114,0.0582 -0.2584,0.1058 -0.3206,0.1058 -0.062,0 -0.188,0.0318 -0.28,0.0706 -0.2804,0.1188 -0.5238,0.20262 -0.8282,0.28504 -0.16,0.0434 -0.3148,0.097 -0.3438,0.1192 -0.03,0.0222 -0.146,0.0572 -0.2592,0.0776 -0.114,0.0204 -0.2562,0.0696 -0.3174,0.1094 -0.062,0.0396 -0.294,0.133 -0.517,0.2076 -0.223,0.0746 -0.5842,0.20704 -0.8026,0.29446 -0.2182,0.0874 -0.4556,0.159 -0.5272,0.159 -0.072,0 -0.16,0.0358 -0.196,0.0794 -0.036,0.0436 -0.102,0.0794 -0.144,0.0794 -0.042,0 -0.142,0.033 -0.2184,0.0736 -0.5158,0.26998 -1.2452,0.6144 -1.301,0.6144 -0.036,0 -0.11,0.0476 -0.162,0.1058 -0.052,0.0582 -0.15,0.1058 -0.2162,0.1058 -0.2014,0 -0.7352,0.3126 -0.7998,0.4683 -0.032,0.0772 -0.072,0.39028 -0.09,0.69588 -0.056,0.95848 -0.038,8.21718 0.02,8.82506 0.03,0.3122 0.078,1.96068 0.106,3.66328 0.06,3.7236 0.186,8.01876 0.273,9.37958 0.074,1.16132 -0.02,1.13136 0.751,0.24782 0.401,-0.46176 0.7114,-0.96574 0.8288,-1.34596 0.036,-0.1164 0.108,-0.3069 0.158,-0.42332 0.1,-0.22412 0.194,-0.56952 0.275,-1.00542 0.028,-0.1456 0.092,-0.39556 0.146,-0.55562 0.052,-0.16 0.126,-0.3982 0.162,-0.52918 0.036,-0.131 0.124,-0.3934 0.192,-0.5832 0.068,-0.1898 0.126,-0.36358 0.126,-0.3862 0,-0.0226 0.108,-0.26888 0.2382,-0.54728 0.13,-0.27838 0.238,-0.52836 0.238,-0.5555 0,-0.0272 0.06,-0.1612 0.132,-0.29784 0.072,-0.1366 0.132,-0.29632 0.134,-0.35476 0,-0.1438 0.182,-0.65486 0.256,-0.72908 0.034,-0.0328 0.06,-0.0916 0.06,-0.1304 0,-0.093 0.2474,-0.57938 0.3166,-0.62204 0.03,-0.018 0.054,-0.0668 0.054,-0.1076 0,-0.0408 0.084,-0.24982 0.186,-0.46444 0.102,-0.2146 0.186,-0.4202 0.186,-0.45686 0,-0.0366 0.034,-0.13 0.074,-0.20714 0.104,-0.1964 0.2876,-0.70638 0.5202,-1.43692 0.06,-0.1892 0.166,-0.46962 0.234,-0.62322 0.068,-0.1536 0.124,-0.3217 0.124,-0.3736 0,-0.0518 0.084,-0.2635 0.186,-0.47028 0.102,-0.20676 0.186,-0.40432 0.186,-0.43898 0,-0.0348 0.072,-0.1532 0.158,-0.2635 0.088,-0.1102 0.158,-0.22386 0.158,-0.2525 0,-0.0286 0.036,-0.0812 0.078,-0.1168 0.158,-0.1318 0.6628,-0.95708 0.6628,-1.0854 0,-0.0814 0.03,-0.1328 0.078,-0.1328 0.122,0 0.4306,-0.29848 0.5336,-0.51626 0.052,-0.109 0.16,-0.28146 0.2398,-0.38332 0.08,-0.1018 0.2002,-0.29238 0.2664,-0.42334 0.166,-0.32668 0.6364,-0.89802 0.7416,-0.89888 0.048,-5.2e-4 0.116,0.0358 0.154,0.0804 0.058,0.0704 0.102,0.0426 0.3256,-0.20892 0.142,-0.1594 0.3946,-0.37314 0.561,-0.47478 0.166,-0.1016 0.4446,-0.32908 0.6184,-0.50546 0.174,-0.1764 0.3422,-0.32068 0.3744,-0.32068 0.074,0 0.2834,-0.22068 0.3638,-0.38166 0.034,-0.0666 0.124,-0.1512 0.2004,-0.1882 0.078,-0.037 0.198,-0.135 0.2668,-0.21766 0.07,-0.0828 0.2202,-0.1804 0.3346,-0.217 0.25,-0.08 0.3698,-0.1866 0.9836,-0.87398 0.26,-0.29104 0.5484,-0.60844 0.641,-0.70534 l 0.168,-0.1762 0.096,0.1196 c 0.096,0.1182 0.098,0.1186 0.2658,0.0232 0.094,-0.053 0.2284,-0.1472 0.3012,-0.20912 0.182,-0.1552 0.4644,-0.34864 0.5084,-0.34864 0.02,0 0.134,-0.0796 0.2534,-0.177 0.12,-0.0974 0.2694,-0.20466 0.3334,-0.23848 0.122,-0.0644 0.5454,-0.40262 0.736,-0.58766 0.148,-0.143 0.2244,-0.1364 0.2854,0.0242 0.028,0.0728 0.088,0.1322 0.136,0.1322 0.108,0 0.938,-0.43758 1.1868,-0.6253 0.102,-0.0768 0.4852,-0.43196 0.852,-0.7891 0.3668,-0.35714 0.6976,-0.64936 0.7354,-0.64936 0.086,0 0.6168,-0.34922 0.673,-0.44214 0.05,-0.0828 0.6284,-0.51094 0.6874,-0.5089 0.024,8e-4 0.102,0.0836 0.174,0.1838 0.072,0.1002 0.15,0.183 0.172,0.1838 0.022,7.8e-4 0.152,-0.0482 0.291,-0.1086 0.5324,-0.2338 0.6006,-0.2603 0.6694,-0.2603 0.04,0 0.102,-0.037 0.14,-0.0824 0.038,-0.0454 0.142,-0.114 0.2314,-0.1526 0.09,-0.0386 0.3454,-0.23958 0.5682,-0.44672 0.223,-0.20716 0.4216,-0.37664 0.4416,-0.37664 0.02,0 0.096,-0.0476 0.17,-0.1058 0.074,-0.0582 0.2132,-0.1058 0.3094,-0.1058 0.096,0 0.19,-0.025 0.2094,-0.0558 0.034,-0.056 0.9048,-0.63216 0.9548,-0.63216 0.02,0 0.1,-0.0536 0.188,-0.119 0.174,-0.1278 0.174,-0.1276 0.3374,0.145 0.048,0.0796 0.082,0.0724 0.3626,-0.0748 0.17,-0.0896 0.352,-0.1628 0.4036,-0.1628 0.052,0 0.124,-0.0358 0.16,-0.0794 0.036,-0.0436 0.102,-0.0794 0.146,-0.0794 0.044,0 0.2108,-0.107 0.3696,-0.23774 0.158,-0.1308 0.3994,-0.27122 0.5346,-0.31214 0.136,-0.041 0.3172,-0.1124 0.4044,-0.1588 0.088,-0.0464 0.196,-0.0846 0.2418,-0.0848 0.046,0 0.2224,-0.0716 0.3928,-0.1588 0.2878,-0.1472 0.3168,-0.1524 0.4048,-0.0728 0.056,0.0516 0.142,0.074 0.2156,0.0564 0.2212,-0.0534 0.7502,-0.24942 0.7796,-0.2889 0.03,-0.0404 0.09,-0.0706 0.8738,-0.43464 0.4434,-0.20616 0.4786,-0.21442 0.5424,-0.1272 0.038,0.0514 0.068,0.1364 0.068,0.189 0,0.15 0.166,0.1168 0.6192,-0.1228 0.417,-0.2208 1.0694,-0.45444 1.6032,-0.57418 0.16,-0.036 0.4488,-0.1124 0.6418,-0.17 0.4386,-0.131 0.5956,-0.115 0.6194,0.063 0,0.0728 0.036,0.152 0.06,0.1762 0.078,0.081 0.6596,0.0414 1.001,-0.068 0.186,-0.0596 0.3648,-0.1082 0.398,-0.1082 0.034,0 0.186,-0.0834 0.3418,-0.1852 0.154,-0.1018 0.2912,-0.1852 0.3036,-0.1852 0.02,0 0.124,-0.046 0.2468,-0.1022 0.3006,-0.137 0.7074,-0.2682 0.8314,-0.2682 0.056,0 0.114,-0.0214 0.13,-0.0476 0.02,-0.0262 0.148,-0.0762 0.2944,-0.1112 0.146,-0.035 0.2782,-0.085 0.2944,-0.1112 0.02,-0.0262 0.1,-0.0476 0.184,-0.0476 0.168,0 0.2,0.084 0.1,0.27006 -0.068,0.1252 -0.024,0.29048 0.088,0.33306 0.044,0.016 0.166,-0.004 0.269,-0.048 0.104,-0.0434 0.244,-0.0788 0.3114,-0.0788 0.068,0 0.136,-0.0218 0.152,-0.0482 0.02,-0.0266 0.13,-0.0636 0.2544,-0.0824 0.4086,-0.0618 0.9108,-0.1946 1.0332,-0.27284 0.15,-0.0956 0.2008,-0.0664 0.2414,0.1362 l 0.032,0.1582 0.4382,-0.029 c 0.241,-0.016 0.4926,-0.0556 0.559,-0.0878 0.09,-0.0436 0.166,-0.0424 0.2948,0.004 0.096,0.0346 0.2318,0.063 0.3024,0.063 0.07,0 0.2066,0.0478 0.3018,0.1058 0.096,0.0582 0.216,0.1056 0.2684,0.1056 0.052,0 0.15,0.0636 0.2176,0.1412 0.144,0.1666 0.092,0.31254 -0.11,0.30226 -0.068,-0.004 -0.144,0.0246 -0.166,0.0626 -0.046,0.0772 -0.3382,0.23482 -0.4368,0.23482 -0.036,0 -0.124,0.0476 -0.198,0.1058 -0.074,0.0582 -0.166,0.1058 -0.2062,0.1058 -0.098,0 -0.3438,0.23568 -0.4418,0.42504 -0.044,0.0864 -0.104,0.157 -0.132,0.157 -0.028,0 -0.052,0.0358 -0.052,0.0794 0,0.0436 -0.034,0.0794 -0.074,0.0794 -0.04,0 -0.15,0.119 -0.2434,0.26434 l -0.17,0.26436 0.11,0.185 0.11,0.185 -0.3552,0.36262 c -0.196,0.1994 -0.5052,0.4539 -0.6888,0.56546 -0.3224,0.196 -0.4228,0.29374 -0.7546,0.73382 -0.182,0.24282 -0.2042,0.45286 -0.05,0.49334 0.14,0.0368 0.136,0.062 -0.08,0.46152 -0.102,0.1886 -0.186,0.38072 -0.186,0.42678 0,0.0876 -0.4108,0.49958 -0.5028,0.5042 -0.064,0.004 -0.3262,0.36464 -0.483,0.6646 -0.08,0.1522 -0.098,0.24228 -0.064,0.30428 0.028,0.0484 0.03,0.1196 0,0.158 -0.06,0.1 -0.47,0.45918 -0.5236,0.45918 -0.082,0 -0.6564,0.6041 -0.6564,0.69128 0,0.0474 -0.048,0.1292 -0.106,0.1818 -0.066,0.06 -0.106,0.163 -0.106,0.27548 0,0.14 -0.044,0.22 -0.198,0.36196 -0.11,0.1002 -0.2224,0.1824 -0.2514,0.1826 -0.066,5.2e-4 -0.3524,0.26924 -0.926,0.87226 -0.579,0.60848 -0.6976,0.80006 -0.6498,1.04972 0.022,0.1192 0.068,0.1542 0.271,0.20504 0.134,0.0338 0.2146,0.071 0.178,0.083 -0.036,0.012 -0.064,0.0494 -0.064,0.0834 0,0.034 -0.2024,0.28662 -0.4498,0.56146 -0.3948,0.4388 -0.4496,0.5238 -0.4496,0.69736 0,0.22412 -0.092,0.33886 -0.3706,0.46432 -0.3022,0.136 -0.7444,0.43116 -1.0556,0.70456 -0.158,0.1394 -0.309,0.25342 -0.3344,0.25342 -0.054,0 -0.4314,0.25624 -0.6156,0.41774 -0.07,0.0612 -0.148,0.1114 -0.172,0.1114 -0.024,0 -0.084,0.0954 -0.13,0.21208 -0.092,0.22996 -0.51,0.63882 -0.7882,0.77076 -0.096,0.0452 -0.2688,0.1642 -0.3858,0.2641 -0.116,0.1 -0.2324,0.182 -0.2568,0.1822 -0.05,5.4e-4 -0.6652,0.61624 -0.7064,0.70756 -0.12,0.26486 -0.3938,0.61502 -0.482,0.61502 -0.056,0 -0.116,0.0342 -0.132,0.0762 -0.02,0.0418 -0.098,0.091 -0.18,0.1092 -0.082,0.018 -0.18,0.0672 -0.2138,0.109 -0.034,0.0418 -0.094,0.076 -0.132,0.076 -0.038,0 -0.178,0.0834 -0.3114,0.1852 -0.134,0.1018 -0.2578,0.1852 -0.2762,0.1852 -0.116,0 -0.567,0.27514 -0.8218,0.50096 -0.166,0.1464 -0.445,0.3938 -0.6216,0.5496 -0.176,0.1558 -0.3214,0.31238 -0.3214,0.34796 0,0.0356 -0.058,0.1188 -0.128,0.185 -0.07,0.0662 -0.154,0.1834 -0.186,0.26058 -0.032,0.0772 -0.172,0.20764 -0.3084,0.28996 -0.138,0.0824 -0.3314,0.20138 -0.4314,0.26458 -0.1,0.0632 -0.2548,0.1588 -0.344,0.2124 -0.3468,0.20852 -0.6616,0.59064 -0.7366,0.89374 -0.026,0.1044 -0.102,0.1742 -0.27,0.25136 -0.13,0.0588 -0.2706,0.1068 -0.3148,0.1068 -0.068,0 -0.4378,0.1202 -0.7986,0.26028 -0.102,0.0392 -0.6006,0.27918 -0.7674,0.36862 -0.044,0.0234 -0.138,0.0734 -0.2096,0.1112 -0.072,0.0378 -0.2284,0.1208 -0.3482,0.1846 -0.12,0.0638 -0.4248,0.2628 -0.6774,0.44234 -0.2526,0.1796 -0.4734,0.32644 -0.4908,0.32644 -0.054,0 -0.6022,0.57684 -0.6022,0.63386 0,0.0298 -0.026,0.054 -0.058,0.054 -0.032,0 -0.128,0.0594 -0.2152,0.1318 -0.086,0.0726 -0.292,0.1688 -0.4574,0.21398 -0.166,0.0452 -0.3422,0.105 -0.3928,0.1328 -0.05,0.0278 -0.124,0.0506 -0.162,0.0506 -0.038,0 -0.2636,0.0952 -0.5012,0.21166 -0.2374,0.1164 -0.479,0.21168 -0.5368,0.21168 -0.058,0 -0.136,0.0426 -0.174,0.0948 -0.038,0.0522 -0.212,0.1626 -0.3866,0.2456 -0.174,0.083 -0.3934,0.20702 -0.486,0.27566 -0.092,0.0686 -0.192,0.1248 -0.2204,0.1248 -0.028,0 -0.06,0.02 -0.07,0.0428 -0.02,0.0236 -0.158,0.1224 -0.3294,0.2198 -0.172,0.0974 -0.3602,0.23286 -0.4196,0.30116 -0.062,0.0716 -0.166,0.1242 -0.2478,0.1242 -0.096,0 -0.186,0.0576 -0.2872,0.1852 -0.082,0.1018 -0.178,0.1852 -0.2136,0.1852 -0.036,0 -0.176,0.0834 -0.3088,0.1854 -0.134,0.102 -0.2978,0.20906 -0.3648,0.238 -0.114,0.0494 -0.174,0.0806 -0.3998,0.21264 -0.05,0.0296 -0.164,0.0896 -0.2514,0.133 -0.088,0.0436 -0.194,0.1008 -0.238,0.1274 -0.076,0.0464 -0.464,0.21916 -0.7408,0.33004 -0.072,0.0292 -0.2204,0.0984 -0.328,0.154 -0.108,0.0556 -0.249,0.101 -0.314,0.101 -0.066,0 -0.2152,0.0448 -0.3336,0.0994 -0.2414,0.1116 -0.2872,0.1298 -0.7708,0.30474 -0.19,0.0684 -0.4064,0.1246 -0.483,0.1248 -0.076,0 -0.166,0.0328 -0.2,0.0726 -0.108,0.1296 -1.3666,0.5323 -1.502,0.48036 -0.05,-0.02 -0.134,0.012 -0.201,0.0746 -0.074,0.0684 -0.2238,0.12 -0.413,0.1416 -0.3328,0.0382 -0.6414,0.1308 -0.6414,0.1924 0,0.0224 -0.034,0.0278 -0.074,0.012 -0.042,-0.016 -0.146,0.008 -0.2354,0.0546 -0.088,0.0458 -0.2514,0.0834 -0.362,0.0836 -0.112,0 -0.2718,0.0472 -0.3598,0.1054 -0.088,0.0578 -0.2074,0.1052 -0.2666,0.1054 -0.06,0 -0.2014,0.048 -0.3154,0.1062 -0.114,0.0582 -0.2602,0.1058 -0.3244,0.1058 -0.064,0 -0.184,0.0336 -0.2668,0.0748 -0.3372,0.1684 -0.7716,0.33092 -1.0758,0.40254 -0.2842,0.067 -0.6862,0.21168 -0.9818,0.35362 -0.148,0.0706 -0.29,0.123 -0.3176,0.1164 -0.028,-0.006 -0.118,0.016 -0.2,0.0494 -0.082,0.0338 -0.2296,0.0614 -0.328,0.0614 -0.098,0 -0.198,0.0298 -0.2216,0.0662 -0.072,0.1114 -0.3762,0.30426 -0.481,0.30426 -0.054,0 -0.128,0.0536 -0.162,0.119 -0.056,0.1054 -0.096,0.117 -0.3562,0.1008 -0.2042,-0.012 -0.3198,0.006 -0.382,0.0598 -0.048,0.043 -0.168,0.1184 -0.2658,0.1676 -0.14,0.0714 -0.17,0.1134 -0.148,0.20618 0.02,0.0642 0.066,0.7232 0.11,1.46462 0.044,0.7414 0.104,1.5266 0.132,1.74488 0.028,0.21828 0.066,0.65882 0.082,0.97896 0.02,0.32014 0.054,0.76068 0.082,0.97896 0.028,0.21828 0.088,0.93266 0.134,1.5875 0.046,0.65484 0.116,1.61924 0.156,2.14312 0.16,2.10614 0.2932,4.07554 0.3414,5.05354 0.028,0.56754 0.076,1.47242 0.106,2.01084 0.03,0.53842 0.078,1.72906 0.108,2.64584 0.03,0.91678 0.066,1.78008 0.082,1.91846 0.02,0.1384 0.064,1.20992 0.11,2.38124 0.044,1.17132 0.094,2.4571 0.11,2.85728 l 0.03,0.7276 0.2976,-0.1664 c 0.413,-0.2311 0.8336,-0.50646 1.133,-0.74156 0.2936,-0.23062 0.7784,-0.79252 0.7784,-0.90222 0,-0.0412 0.072,-0.1434 0.158,-0.22706 0.088,-0.0836 0.158,-0.1844 0.158,-0.2237 0,-0.0394 0.044,-0.1362 0.098,-0.215 0.094,-0.1362 0.4154,-0.68988 0.6686,-1.1488 0.2412,-0.4373 0.5656,-0.94048 0.8114,-1.25862 0.14,-0.1808 0.3674,-0.51342 0.5058,-0.73898 0.138,-0.22556 0.268,-0.41016 0.2878,-0.4102 0.02,0 0.12,-0.125 0.2206,-0.27782 0.102,-0.1528 0.2894,-0.39678 0.4174,-0.5423 0.128,-0.1456 0.283,-0.3391 0.3444,-0.4302 0.152,-0.22616 0.602,-0.826 0.8204,-1.09502 0.098,-0.1216 0.2336,-0.30436 0.3002,-0.40622 0.066,-0.1018 0.3518,-0.42334 0.6338,-0.71438 0.282,-0.29104 0.5826,-0.63038 0.668,-0.75406 0.092,-0.1348 0.196,-0.2249 0.2584,-0.2249 0.056,0 0.104,-0.0218 0.104,-0.0484 0,-0.0266 0.116,-0.1196 0.2574,-0.20676 0.142,-0.0872 0.4126,-0.30346 0.6022,-0.48078 0.19,-0.1774 0.3686,-0.32242 0.3978,-0.32242 0.03,0 0.136,-0.0892 0.2366,-0.1984 0.186,-0.20208 0.2658,-0.26318 0.5384,-0.41502 0.084,-0.0472 0.3028,-0.20814 0.4854,-0.35786 0.8734,-0.71676 0.8328,-0.69514 1.3134,-0.69934 0.4642,-0.004 0.5994,-0.0534 1.0108,-0.36916 0.2428,-0.1864 0.5726,-0.36206 0.7724,-0.41134 0.112,-0.0276 0.148,-0.01 0.198,0.0974 0.048,0.1028 0.1,0.1312 0.2428,0.1312 0.1,0 0.2498,-0.0262 0.3318,-0.0584 0.164,-0.064 0.8542,-0.23812 1.2396,-0.3124 0.134,-0.0258 0.3962,-0.1164 0.582,-0.2013 0.186,-0.0848 0.3978,-0.1722 0.4704,-0.1942 0.072,-0.022 0.172,-0.0744 0.2196,-0.1164 0.06,-0.0524 0.144,-0.0656 0.2708,-0.0422 0.13,0.0244 0.2664,6.4e-4 0.4682,-0.0814 0.4024,-0.1634 0.8384,-0.37618 0.8676,-0.42344 0.02,-0.022 0.108,-0.0556 0.2088,-0.0746 0.102,-0.02 0.2158,-0.0634 0.2544,-0.0986 0.038,-0.0352 0.144,-0.1028 0.2324,-0.1498 0.148,-0.078 0.174,-0.0782 0.2978,-0.004 0.122,0.0744 0.156,0.0744 0.3382,0.001 0.3962,-0.1592 0.7752,-0.2652 1.05,-0.29356 0.2508,-0.026 0.2824,-0.018 0.3144,0.0838 0.038,0.1208 0.192,0.1428 0.8224,0.118 0.2988,-0.012 0.9492,-0.1822 1.1378,-0.2981 0.058,-0.0358 0.178,-0.0816 0.264,-0.102 0.086,-0.0204 0.176,-0.0648 0.2,-0.099 0.028,-0.042 0.088,-0.004 0.19,0.1178 0.13,0.1556 0.17,0.1746 0.3036,0.1406 0.084,-0.0216 0.3562,-0.059 0.6036,-0.0834 0.2474,-0.0244 0.6046,-0.0946 0.7938,-0.1562 l 0.3438,-0.112 0.108,0.1346 c 0.062,0.0766 0.162,0.1346 0.2344,0.1346 0.07,0 0.2034,0.0278 0.2972,0.0616 0.138,0.0498 0.255,0.0436 0.6122,-0.033 0.243,-0.052 0.5014,-0.1246 0.574,-0.1612 0.072,-0.0366 0.3466,-0.1068 0.6086,-0.156 0.262,-0.049 0.643,-0.1252 0.8468,-0.169 0.5478,-0.1182 0.627,-0.116 0.6858,0.018 0.028,0.0638 0.104,0.1446 0.168,0.1792 0.17,0.0912 1.0524,0.0796 1.3414,-0.018 0.13,-0.0442 0.3392,-0.097 0.4626,-0.1174 0.2062,-0.034 0.2286,-0.0264 0.2746,0.0946 0.028,0.0724 0.074,0.1472 0.106,0.166 0.094,0.058 0.9612,0.038 1.0358,-0.0238 0.05,-0.0424 0.08,-0.0418 0.108,0.002 0.02,0.033 0.088,0.0456 0.15,0.028 0.062,-0.018 0.375,-0.0548 0.6952,-0.0828 0.32,-0.028 0.6716,-0.079 0.781,-0.1136 0.2236,-0.0706 0.3932,-0.014 0.6054,0.20512 0.068,0.0692 0.18,0.1198 0.2672,0.1198 0.082,0 0.176,0.0258 0.208,0.0572 0.086,0.0864 0.9754,0.0738 1.2436,-0.018 0.126,-0.0428 0.3118,-0.1072 0.4136,-0.143 0.2154,-0.0756 0.7746,-0.20228 1.0972,-0.24846 0.2614,-0.0374 0.5254,0.0534 0.5708,0.1964 0.06,0.1886 0.336,0.27164 1.0442,0.31408 0.7088,0.0424 0.8334,0.086 0.8334,0.2913 0,0.0822 0.046,0.1358 0.146,0.1722 0.2334,0.0846 0.8046,0.1794 0.863,0.1434 0.03,-0.018 0.3206,-0.0658 0.647,-0.1056 0.3264,-0.0398 0.8096,-0.1012 1.0738,-0.1362 0.4642,-0.0616 0.4888,-0.0594 0.7316,0.0618 0.174,0.087 0.2734,0.1782 0.323,0.2974 0.044,0.106 0.118,0.1816 0.194,0.197 0.164,0.0334 0.8918,0.0948 1.2868,0.1084 0.174,0.006 0.4394,0.0288 0.5882,0.0504 0.152,0.0222 0.4016,0.016 0.569,-0.016 0.2644,-0.0488 0.3186,-0.043 0.4802,0.0524 0.138,0.082 0.2064,0.0946 0.2838,0.0532 0.08,-0.0432 0.154,-0.0208 0.3572,0.1076 l 0.2556,0.162 -0.118,0.0894 c -0.072,0.055 -0.106,0.1216 -0.086,0.1728 0.024,0.061 -0.036,0.1148 -0.2224,0.20146 -0.3336,0.155 -0.5016,0.31256 -0.4632,0.43384 0.022,0.0682 -0.02,0.1252 -0.144,0.20178 -0.096,0.0588 -0.2166,0.1068 -0.2674,0.107 -0.174,5.4e-4 -1.3294,0.6565 -1.4272,0.81036 -0.066,0.1038 -0.048,0.26032 0.044,0.36032 0.08,0.0872 0.074,0.1042 -0.066,0.23564 -0.2334,0.21864 -0.5354,0.39502 -0.8224,0.4802 -0.144,0.0426 -0.349,0.1564 -0.4564,0.25278 -0.108,0.0964 -0.243,0.19 -0.3012,0.2083 -0.158,0.0494 -0.6142,0.51382 -0.6,0.61088 0.02,0.1364 -0.156,0.41792 -0.2856,0.45646 -0.066,0.02 -0.203,0.099 -0.305,0.1766 -0.102,0.0776 -0.328,0.1954 -0.5026,0.26194 -0.174,0.0664 -0.377,0.1546 -0.4498,0.1958 -0.072,0.0412 -0.2294,0.126 -0.3478,0.1884 -0.132,0.069 -0.238,0.173 -0.2728,0.2652 -0.032,0.0856 -0.122,0.1784 -0.2078,0.21308 -0.082,0.0338 -0.2256,0.0938 -0.3174,0.1334 -0.092,0.0396 -0.2018,0.072 -0.2448,0.072 -0.044,0 -0.108,0.0358 -0.144,0.0794 -0.036,0.0436 -0.108,0.0794 -0.16,0.0794 -0.052,0 -0.2334,0.0934 -0.4044,0.20772 -0.2408,0.1608 -0.3334,0.26196 -0.41,0.44772 -0.054,0.132 -0.158,0.28262 -0.2318,0.33468 -0.243,0.1732 -0.6706,0.5547 -0.8848,0.78944 -0.116,0.1276 -0.2556,0.23176 -0.3092,0.23158 -0.054,0 -0.11,0.0444 -0.124,0.099 -0.026,0.0984 -0.2216,0.21812 -0.3566,0.21812 -0.038,0 -0.186,0.0918 -0.3282,0.2038 -0.142,0.112 -0.3298,0.2373 -0.417,0.2782 -0.11,0.0516 -0.164,0.1188 -0.176,0.21896 -0.02,0.168 -0.188,0.3037 -0.3788,0.30618 -0.162,0.002 -0.6746,0.174 -0.7528,0.25218 -0.04,0.0394 -0.084,0.0388 -0.148,-0.002 -0.07,-0.044 -0.138,-0.0368 -0.279,0.0302 -0.102,0.0486 -0.2964,0.0884 -0.4312,0.0884 -0.134,0 -0.3028,0.0376 -0.3732,0.0838 -0.07,0.046 -0.174,0.0694 -0.229,0.0516 -0.056,-0.018 -0.2134,0.016 -0.3508,0.075 -0.138,0.0588 -0.3376,0.107 -0.4446,0.107 -0.108,0 -0.2838,0.0476 -0.3924,0.1058 -0.108,0.0582 -0.2452,0.1058 -0.3034,0.1058 -0.058,0 -0.106,0.023 -0.106,0.051 0,0.072 -0.3766,0.31942 -0.4862,0.31942 -0.126,0 -0.6084,0.45512 -0.6476,0.61192 -0.02,0.0708 -0.058,0.129 -0.088,0.129 -0.03,0 -0.144,0.07 -0.2504,0.1554 -0.108,0.0854 -0.2622,0.1718 -0.344,0.1916 -0.082,0.02 -0.186,0.0936 -0.2318,0.1634 -0.054,0.0824 -0.116,0.117 -0.174,0.0982 -0.05,-0.016 -0.196,0.0308 -0.3238,0.1038 -0.128,0.073 -0.2632,0.1332 -0.301,0.1334 -0.038,5.4e-4 -0.2084,0.0934 -0.3788,0.20662 -0.17,0.1132 -0.464,0.28168 -0.652,0.37422 -0.188,0.0926 -0.4314,0.26002 -0.5408,0.3722 -0.2022,0.20708 -0.2078,0.23632 -0.106,0.56268 0.058,0.1862 -0.13,0.32118 -0.9528,0.68176 -0.116,0.051 -0.2542,0.1372 -0.3064,0.1916 -0.052,0.0544 -0.148,0.0988 -0.2142,0.0988 -0.066,0 -0.146,0.0272 -0.18,0.0604 -0.062,0.0622 -0.2772,0.1072 -1.0986,0.23012 -0.5254,0.0786 -0.7214,0.142 -1.1032,0.3571 -0.18,0.1014 -0.2826,0.1306 -0.344,0.0976 -0.263,-0.1408 -1.1716,-0.0352 -1.6004,0.1858 -0.126,0.0646 -0.564,0.1372 -0.8102,0.1342 -0.056,-6.8e-4 -0.15,0.0332 -0.2102,0.0754 -0.06,0.0422 -0.18,0.0768 -0.2656,0.0768 -0.086,0 -0.2014,0.041 -0.2566,0.091 -0.106,0.097 -0.47,0.2175 -0.7892,0.26234 -0.132,0.018 -0.202,0.0594 -0.22,0.1276 -0.02,0.0788 -0.058,0.094 -0.176,0.0706 -0.12,-0.0236 -0.194,0.008 -0.3622,0.149 -0.2564,0.21666 -0.6222,0.40982 -0.782,0.41298 -0.064,0.001 -0.2024,0.0326 -0.3062,0.0698 -0.126,0.0448 -0.2156,0.0504 -0.2696,0.016 -0.098,-0.062 -0.3256,-0.012 -0.4336,0.0966 -0.044,0.0434 -0.134,0.0774 -0.2022,0.0756 -0.068,-0.002 -0.2606,0.0464 -0.4286,0.1072 -0.2308,0.0836 -0.331,0.0972 -0.409,0.0554 -0.076,-0.0408 -0.154,-0.0336 -0.3006,0.0272 -0.108,0.0454 -0.3486,0.0894 -0.5338,0.0978 -0.2826,0.012 -0.3478,-9e-4 -0.4076,-0.0864 -0.064,-0.0912 -0.09,-0.0948 -0.2548,-0.0354 -0.164,0.059 -0.2036,0.0538 -0.365,-0.046 -0.158,-0.0978 -0.2068,-0.1046 -0.3762,-0.0526 -0.15,0.046 -0.2424,0.044 -0.403,-0.01 -0.114,-0.0378 -0.249,-0.0532 -0.2984,-0.0342 -0.05,0.018 -0.118,0.012 -0.152,-0.016 -0.038,-0.0324 -0.3512,-0.0336 -0.8542,-0.004 -2.069,0.1238 -2.1604,0.1252 -2.335,0.0348 -0.144,-0.075 -0.172,-0.0758 -0.2296,-0.008 -0.084,0.1012 -0.18,0.099 -0.2672,-0.006 -0.048,-0.058 -0.118,-0.0742 -0.2258,-0.0528 -0.086,0.018 -0.186,0.006 -0.2244,-0.0256 -0.048,-0.0396 -0.1,-0.0402 -0.17,-0.002 -0.082,0.0434 -0.124,0.0322 -0.2004,-0.0532 -0.06,-0.0672 -0.138,-0.098 -0.2052,-0.0814 -0.06,0.014 -0.2052,0.0516 -0.3248,0.0818 -0.18,0.0458 -0.2698,0.0368 -0.5252,-0.053 -0.17,-0.0594 -0.3562,-0.0954 -0.4156,-0.08 -0.06,0.016 -0.148,-0.008 -0.198,-0.0534 -0.072,-0.0644 -0.114,-0.069 -0.2018,-0.0218 -0.09,0.0482 -0.14,0.0402 -0.2556,-0.04 -0.2142,-0.1484 -0.3152,-0.1728 -0.4702,-0.1138 -0.114,0.0434 -0.16,0.0336 -0.2522,-0.0526 -0.074,-0.0694 -0.154,-0.0952 -0.2302,-0.075 -0.064,0.016 -0.118,0.006 -0.118,-0.0226 0,-0.0828 -0.164,-0.126 -0.24,-0.0632 -0.072,0.0604 -0.3074,-0.026 -0.8808,-0.32444 -0.268,-0.1396 -0.336,-0.1532 -0.6296,-0.1266 -0.2764,0.025 -0.3468,0.014 -0.4402,-0.0714 -0.14,-0.1264 -0.4248,-0.25466 -0.667,-0.29918 -0.4616,-0.085 -0.7346,-0.1888 -0.7674,-0.29182 -0.038,-0.1178 -0.2322,-0.1428 -0.3324,-0.0428 -0.08,0.0804 -0.122,0.037 -0.164,-0.175 -0.036,-0.1724 -0.164,-0.27968 -0.164,-0.1366 0,0.0426 -0.036,0.107 -0.08,0.1432 -0.068,0.0558 -0.08,0.0442 -0.08,-0.0746 0,-0.1816 -0.118,-0.22462 -0.3916,-0.1418 -0.12,0.0362 -0.3858,0.0888 -0.5922,0.1168 -0.2066,0.0282 -0.4922,0.0928 -0.635,0.144 -0.225,0.0804 -0.2806,0.1314 -0.417,0.38142 -0.146,0.26686 -0.16,0.34226 -0.19,1.00292 -0.02,0.39292 -0.06,1.08348 -0.094,1.5346 -0.034,0.4511 -0.098,1.62982 -0.146,2.61936 -0.086,1.83936 -0.12,2.31514 -0.257,3.70418 -0.176,1.78592 -0.3292,3.02868 -0.7432,6.05896 -0.2676,1.95846 -0.6112,4.0991 -0.9214,5.74146 -0.2032,1.07494 -0.2654,1.37032 -0.5632,2.67228 -0.164,0.71306 -0.341,1.5465 -0.3956,1.85208 -0.054,0.3056 -0.124,0.65088 -0.152,0.7673 -0.03,0.1164 -0.092,0.36482 -0.138,0.552 -0.048,0.1872 -0.11,0.38784 -0.142,0.44592 -0.03,0.058 -0.078,0.2502 -0.102,0.42696 -0.026,0.1768 -0.068,0.47616 -0.094,0.66532 -0.028,0.1892 -0.096,0.46176 -0.152,0.60572 -0.082,0.20862 -0.092,0.29388 -0.048,0.41996 0.048,0.1364 0.04,0.1682 -0.056,0.23146 -0.094,0.0626 -0.102,0.0958 -0.056,0.22668 0.044,0.1268 0.028,0.20662 -0.088,0.45926 -0.084,0.1796 -0.172,0.51354 -0.2158,0.8086 -0.13,0.88508 -0.17,1.08048 -0.2594,1.2899 -0.048,0.1128 -0.096,0.32282 -0.106,0.4667 -0.02,0.1438 -0.054,0.3016 -0.096,0.35052 -0.042,0.0488 -0.094,0.1834 -0.116,0.2988 -0.02,0.1154 -0.082,0.2722 -0.136,0.3484 -0.06,0.0828 -0.086,0.1844 -0.068,0.253 0.02,0.063 0,0.23212 -0.056,0.37592 -0.048,0.1438 -0.086,0.31044 -0.086,0.37034 0,0.1284 -0.2,0.72452 -0.2932,0.87662 -0.036,0.0582 -0.082,0.20008 -0.102,0.31528 -0.02,0.1152 -0.102,0.35332 -0.182,0.52916 -0.084,0.1848 -0.172,0.5206 -0.212,0.79598 -0.038,0.26194 -0.112,0.5715 -0.166,0.68792 -0.054,0.1164 -0.122,0.30692 -0.15,0.42334 -0.028,0.1164 -0.104,0.34262 -0.166,0.5027 -0.064,0.16 -0.148,0.41734 -0.186,0.57172 -0.038,0.1544 -0.092,0.30914 -0.12,0.34394 -0.028,0.0348 -0.068,0.1466 -0.088,0.2485 -0.02,0.1018 -0.106,0.28444 -0.192,0.40574 -0.086,0.1212 -0.15,0.26416 -0.146,0.3175 0.02,0.22612 -0.02,0.38624 -0.1,0.47228 -0.094,0.0934 -0.2234,0.40972 -0.225,0.54726 -4e-4,0.0418 -0.05,0.178 -0.11,0.30286 -0.06,0.1248 -0.118,0.3526 -0.128,0.50618 -0.02,0.27154 -0.192,0.6555 -1.006,2.21078 -0.2396,0.4575 -0.2632,0.4763 -0.5884,0.4688 -0.192,-0.004 -0.2848,-0.0286 -0.2848,-0.0738 z"
       id="path1136" />
  </g>
</svg>
